ComputerModernClassic-Regular.ufo
<glyph name="exclam" format="2">
  <advance width="277"/>
  <unicode hex="0021"/>
  <outline>
    <contour>
      <point x="127.891" y="111.812" type="curve" smooth="yes"/>
      <point x="133.784" y="113.071"/>
      <point x="146.821" y="112.693"/>
      <point x="152.818" y="111.09" type="curve" smooth="yes"/>
      <point x="163.512" y="108.231"/>
      <point x="175.011" y="100.923"/>
      <point x="181.863" y="92.6299" type="curve" smooth="yes"/>
      <point x="186.365" y="87.1807"/>
      <point x="191.607" y="77.0234"/>
      <point x="193.422" y="70.2314" type="curve" smooth="yes"/>
      <point x="195.16" y="63.7285"/>
      <point x="195.163" y="49.209"/>
      <point x="193.43" y="42.7744" type="curve" smooth="yes"/>
      <point x="189.087" y="26.6621"/>
      <point x="178.338" y="13.4619"/>
      <point x="163.656" y="6.21387" type="curve" smooth="yes"/>
      <point x="154.345" y="1.61621"/>
      <point x="149.494" y="0.505859"/>
      <point x="138.729" y="0.505859" type="curve" smooth="yes"/>
      <point x="127.963" y="0.505859"/>
      <point x="123.111" y="1.61621"/>
      <point x="113.801" y="6.21387" type="curve" smooth="yes"/>
      <point x="99.1191" y="13.4619"/>
      <point x="88.375" y="26.6621"/>
      <point x="84.04" y="42.7744" type="curve" smooth="yes"/>
      <point x="82.3096" y="49.2051"/>
      <point x="82.3057" y="63.8008"/>
      <point x="84.0322" y="70.2314" type="curve" smooth="yes"/>
      <point x="89.7295" y="91.4492"/>
      <point x="106.358" y="107.216"/>
    </contour>
    <contour>
      <point x="130.058" y="716.482" type="curve" smooth="yes"/>
      <point x="131.052" y="716.677"/>
      <point x="135.766" y="716.722"/>
      <point x="140.535" y="716.584" type="curve" smooth="yes"/>
      <point x="151.012" y="716.279"/>
      <point x="157.172" y="714.688"/>
      <point x="166.546" y="709.866" type="curve" smooth="yes"/>
      <point x="175.506" y="705.257"/>
      <point x="184.853" y="696.035"/>
      <point x="189.215" y="687.5" type="curve" smooth="yes"/>
      <point x="193.093" y="679.913"/>
      <point x="195.077" y="672.135"/>
      <point x="195.058" y="664.596" type="curve" smooth="yes"/>
      <point x="195.031" y="654.624"/>
      <point x="154.913" y="199.418"/>
      <point x="153.863" y="197.182" type="curve" smooth="yes"/>
      <point x="151.975" y="193.161"/>
      <point x="149.35" y="192.341"/>
      <point x="138.367" y="192.341" type="curve" smooth="yes"/>
      <point x="128.468" y="192.341" type="line"/>
      <point x="125.723" y="195.087" type="line" smooth="yes"/>
      <point x="123.648" y="197.161"/>
      <point x="122.867" y="198.627"/>
      <point x="122.529" y="201.084" type="curve" smooth="yes"/>
      <point x="121.406" y="209.249"/>
      <point x="82.3701" y="660.144"/>
      <point x="82.3701" y="664.957" type="curve" smooth="yes"/>
      <point x="82.3701" y="672.118"/>
      <point x="84.4385" y="680.058"/>
      <point x="88.2422" y="687.5" type="curve" smooth="yes"/>
      <point x="92.6182" y="696.063"/>
      <point x="101.951" y="705.25"/>
      <point x="110.982" y="709.887" type="curve" smooth="yes"/>
      <point x="116.636" y="712.789"/>
      <point x="123.771" y="715.256"/>
    </contour>
  </outline>
</glyph>
<glyph name="quotedbl" format="2">
  <advance width="499"/>
  <unicode hex="0022"/>
  <outline>
    <contour>
      <point x="325.506" y="711.028" type="curve" smooth="yes"/>
      <point x="351.59" y="714.822"/>
      <point x="375.9" y="700.274"/>
      <point x="381.846" y="677.312" type="curve" smooth="yes"/>
      <point x="384.534" y="666.93"/>
      <point x="384.94" y="671.388"/>
      <point x="366.411" y="508.093" type="curve" smooth="yes"/>
      <point x="356.826" y="423.627"/>
      <point x="348.826" y="353.82"/>
      <point x="348.627" y="352.927" type="curve" smooth="yes"/>
      <point x="348.268" y="351.309"/>
      <point x="348.193" y="351.301"/>
      <point x="333.454" y="351.301" type="curve" smooth="yes"/>
      <point x="322.904" y="351.301"/>
      <point x="318.642" y="351.54"/>
      <point x="318.642" y="352.132" type="curve" smooth="yes"/>
      <point x="318.642" y="352.589"/>
      <point x="310.842" y="421.532"/>
      <point x="301.301" y="505.419" type="curve" smooth="yes"/>
      <point x="290.962" y="596.315"/>
      <point x="283.96" y="660.56"/>
      <point x="283.96" y="664.523" type="curve" smooth="yes"/>
      <point x="283.96" y="689.012"/>
      <point x="300.361" y="707.371"/>
    </contour>
    <contour>
      <point x="157.153" y="711.094" type="curve" smooth="yes"/>
      <point x="159.535" y="711.47"/>
      <point x="164.451" y="711.63"/>
      <point x="168.063" y="711.451" type="curve" smooth="yes"/>
      <point x="196.243" y="710.052"/>
      <point x="215.318" y="691.108"/>
      <point x="215.318" y="664.523" type="curve" smooth="yes"/>
      <point x="215.318" y="660.56"/>
      <point x="208.315" y="596.315"/>
      <point x="197.977" y="505.419" type="curve" smooth="yes"/>
      <point x="188.436" y="421.532"/>
      <point x="180.636" y="352.589"/>
      <point x="180.636" y="352.132" type="curve" smooth="yes"/>
      <point x="180.636" y="351.54"/>
      <point x="176.373" y="351.301"/>
      <point x="165.823" y="351.301" type="curve" smooth="yes"/>
      <point x="151.084" y="351.301"/>
      <point x="151.01" y="351.309"/>
      <point x="150.65" y="352.927" type="curve" smooth="yes"/>
      <point x="150.451" y="353.82"/>
      <point x="142.451" y="423.627"/>
      <point x="132.866" y="508.093" type="curve" smooth="yes"/>
      <point x="114.337" y="671.388"/>
      <point x="114.743" y="666.93"/>
      <point x="117.431" y="677.312" type="curve" smooth="yes"/>
      <point x="121.948" y="694.767"/>
      <point x="137.5" y="707.992"/>
    </contour>
  </outline>
</glyph>
<glyph name="numbersign" format="2">
  <advance width="833"/>
  <unicode hex="0023"/>
  <outline>
    <contour>
      <point x="409.971" y="693.562" type="curve" smooth="yes"/>
      <point x="413.027" y="694.788"/>
      <point x="420.304" y="694.33"/>
      <point x="423.699" y="692.697" type="curve" smooth="yes"/>
      <point x="427.269" y="690.982"/>
      <point x="430.701" y="687.572"/>
      <point x="432.497" y="683.96" type="curve" smooth="yes"/>
      <point x="435.663" y="677.589"/>
      <point x="437.154" y="683.743"/>
      <point x="392.442" y="518.714" type="curve" smooth="yes"/>
      <point x="369.734" y="434.898"/>
      <point x="351.156" y="366.199"/>
      <point x="351.156" y="366.04" type="curve" smooth="yes"/>
      <point x="351.156" y="365.882"/>
      <point x="394.689" y="365.751"/>
      <point x="447.94" y="365.751" type="curve" smooth="yes"/>
      <point x="539.487" y="365.751"/>
      <point x="544.747" y="365.82"/>
      <point x="545.123" y="367.016" type="curve" smooth="yes"/>
      <point x="545.342" y="367.711"/>
      <point x="564.694" y="439.271"/>
      <point x="588.114" y="525.976" type="curve" smooth="yes"/>
      <point x="620.96" y="647.579"/>
      <point x="631.136" y="684.315"/>
      <point x="632.577" y="686.488" type="curve" smooth="yes"/>
      <point x="640.231" y="698.026"/>
      <point x="658.15" y="696.604"/>
      <point x="664.434" y="683.96" type="curve" smooth="yes"/>
      <point x="667.6" y="677.589"/>
      <point x="669.091" y="683.743"/>
      <point x="624.379" y="518.714" type="curve" smooth="yes"/>
      <point x="601.67" y="434.898"/>
      <point x="583.093" y="366.199"/>
      <point x="583.093" y="366.04" type="curve" smooth="yes"/>
      <point x="583.093" y="365.882"/>
      <point x="623.663" y="365.67"/>
      <point x="673.229" y="365.571" type="curve" smooth="yes"/>
      <point x="760.729" y="365.396"/>
      <point x="763.449" y="365.35"/>
      <point x="766.185" y="363.997" type="curve" smooth="yes"/>
      <point x="772.893" y="360.681"/>
      <point x="776.373" y="354.985"/>
      <point x="776.373" y="347.326" type="curve" smooth="yes"/>
      <point x="776.373" y="339.668"/>
      <point x="772.893" y="333.973"/>
      <point x="766.185" y="330.656" type="curve" smooth="yes"/>
      <point x="763.446" y="329.302"/>
      <point x="760.693" y="329.258"/>
      <point x="667.847" y="329.082" type="curve" smooth="yes"/>
      <point x="577.891" y="328.912"/>
      <point x="572.305" y="328.83"/>
      <point x="571.954" y="327.674" type="curve" smooth="yes"/>
      <point x="571.122" y="324.928"/>
      <point x="530.347" y="172.192"/>
      <point x="530.347" y="171.821" type="curve" smooth="yes"/>
      <point x="530.347" y="171.582"/>
      <point x="582.768" y="171.306"/>
      <point x="646.857" y="171.207" type="curve" smooth="yes"/>
      <point x="760.44" y="171.03"/>
      <point x="763.438" y="170.991"/>
      <point x="766.185" y="169.633" type="curve" smooth="yes"/>
      <point x="772.893" y="166.316"/>
      <point x="776.373" y="160.621"/>
      <point x="776.373" y="152.963" type="curve" smooth="yes"/>
      <point x="776.373" y="145.304"/>
      <point x="772.893" y="139.608"/>
      <point x="766.185" y="136.292" type="curve" smooth="yes"/>
      <point x="763.436" y="134.933"/>
      <point x="760.404" y="134.895"/>
      <point x="641.474" y="134.718" type="curve" smooth="yes"/>
      <point x="526.373" y="134.548"/>
      <point x="519.559" y="134.467"/>
      <point x="519.184" y="133.273" type="curve" smooth="yes"/>
      <point x="518.965" y="132.578"/>
      <point x="499.611" y="61.0186"/>
      <point x="476.192" y="-25.6865" type="curve" smooth="yes"/>
      <point x="443.347" y="-147.29"/>
      <point x="433.171" y="-184.026"/>
      <point x="431.729" y="-186.199" type="curve" smooth="yes"/>
      <point x="424.075" y="-197.737"/>
      <point x="406.156" y="-196.315"/>
      <point x="399.873" y="-183.671" type="curve" smooth="yes"/>
      <point x="396.707" y="-177.3"/>
      <point x="395.216" y="-183.454"/>
      <point x="439.928" y="-18.4248" type="curve" smooth="yes"/>
      <point x="462.636" y="65.3906"/>
      <point x="481.214" y="134.09"/>
      <point x="481.214" y="134.249" type="curve" smooth="yes"/>
      <point x="481.214" y="134.407"/>
      <point x="437.681" y="134.537"/>
      <point x="384.429" y="134.537" type="curve" smooth="yes"/>
      <point x="292.883" y="134.537"/>
      <point x="287.623" y="134.469"/>
      <point x="287.247" y="133.273" type="curve" smooth="yes"/>
      <point x="287.028" y="132.578"/>
      <point x="267.675" y="61.0186"/>
      <point x="244.256" y="-25.6865" type="curve" smooth="yes"/>
      <point x="211.41" y="-147.29"/>
      <point x="201.234" y="-184.026"/>
      <point x="199.793" y="-186.199" type="curve" smooth="yes"/>
      <point x="192.139" y="-197.737"/>
      <point x="174.22" y="-196.315"/>
      <point x="167.937" y="-183.671" type="curve" smooth="yes"/>
      <point x="164.771" y="-177.3"/>
      <point x="163.279" y="-183.454"/>
      <point x="207.991" y="-18.4248" type="curve" smooth="yes"/>
      <point x="230.699" y="65.3906"/>
      <point x="249.277" y="134.09"/>
      <point x="249.277" y="134.249" type="curve" smooth="yes"/>
      <point x="249.277" y="134.407"/>
      <point x="208.707" y="134.619"/>
      <point x="159.141" y="134.718" type="curve" smooth="yes"/>
      <point x="71.6406" y="134.894"/>
      <point x="68.9209" y="134.94"/>
      <point x="66.1846" y="136.308" type="curve" smooth="yes"/>
      <point x="60.2607" y="139.27"/>
      <point x="56.3818" y="145.015"/>
      <point x="55.8174" y="151.662" type="curve" smooth="yes"/>
      <point x="55.2217" y="158.671"/>
      <point x="58.8701" y="165.391"/>
      <point x="65.1738" y="168.896" type="curve" smooth="yes"/>
      <point x="69.0029" y="171.026" type="line"/>
      <point x="164.523" y="171.207" type="line" smooth="yes"/>
      <point x="254.479" y="171.377"/>
      <point x="260.065" y="171.459"/>
      <point x="260.416" y="172.615" type="curve" smooth="yes"/>
      <point x="261.248" y="175.361"/>
      <point x="302.023" y="328.097"/>
      <point x="302.023" y="328.468" type="curve" smooth="yes"/>
      <point x="302.023" y="328.707"/>
      <point x="249.603" y="328.983"/>
      <point x="185.513" y="329.082" type="curve" smooth="yes"/>
      <point x="69.0029" y="329.263" type="line"/>
      <point x="65.1738" y="331.387" type="line" smooth="yes"/>
      <point x="52.165" y="338.602"/>
      <point x="52.7461" y="357.33"/>
      <point x="66.1846" y="363.993" type="curve" smooth="yes"/>
      <point x="68.9346" y="365.356"/>
      <point x="71.9648" y="365.395"/>
      <point x="190.896" y="365.571" type="curve" smooth="yes"/>
      <point x="305.997" y="365.741"/>
      <point x="312.812" y="365.822"/>
      <point x="313.187" y="367.016" type="curve" smooth="yes"/>
      <point x="313.405" y="367.711"/>
      <point x="332.759" y="439.271"/>
      <point x="356.178" y="525.976" type="curve" smooth="yes"/>
      <point x="389.492" y="649.313"/>
      <point x="399.191" y="684.3"/>
      <point x="400.698" y="686.561" type="curve" smooth="yes"/>
      <point x="402.621" y="689.444"/>
      <point x="405.925" y="691.938"/>
    </contour>
    <contour>
      <point x="533.96" y="328.468" type="curve" smooth="yes"/>
      <point x="533.96" y="328.707"/>
      <point x="490.427" y="328.901"/>
      <point x="437.175" y="328.901" type="curve" smooth="yes"/>
      <point x="345.629" y="328.901"/>
      <point x="340.37" y="328.835"/>
      <point x="340.018" y="327.674" type="curve" smooth="yes"/>
      <point x="339.163" y="324.855"/>
      <point x="298.41" y="172.204"/>
      <point x="298.41" y="171.821" type="curve" smooth="yes"/>
      <point x="298.41" y="171.582"/>
      <point x="341.943" y="171.388"/>
      <point x="395.195" y="171.388" type="curve" smooth="yes"/>
      <point x="486.741" y="171.388"/>
      <point x="492" y="171.454"/>
      <point x="492.353" y="172.615" type="curve" smooth="yes"/>
      <point x="493.207" y="175.434"/>
      <point x="533.96" y="328.085"/>
    </contour>
  </outline>
</glyph>
<glyph name="dollar" format="2">
  <advance width="499"/>
  <unicode hex="0024"/>
  <outline>
    <contour>
      <point x="231.214" y="727.421" type="line"/>
      <point x="231.214" y="750.145" type="line"/>
      <point x="250" y="750.145" type="line"/>
      <point x="268.786" y="750.145" type="line"/>
      <point x="268.786" y="727.529" type="line"/>
      <point x="268.786" y="704.913" type="line"/>
      <point x="279.985" y="703.665" type="line" smooth="yes"/>
      <point x="327.168" y="698.404"/>
      <point x="366.517" y="680.821"/>
      <point x="394.907" y="652.312" type="curve" smooth="yes"/>
      <point x="412.962" y="634.183"/>
      <point x="425.235" y="614.09"/>
      <point x="433.48" y="589.162" type="curve" smooth="yes"/>
      <point x="440.426" y="568.162"/>
      <point x="443.104" y="551.518"/>
      <point x="443.21" y="528.685" type="curve" smooth="yes"/>
      <point x="443.278" y="514.018"/>
      <point x="443.215" y="513.319"/>
      <point x="441.321" y="507.731" type="curve" smooth="yes"/>
      <point x="438.58" y="499.639"/>
      <point x="434.724" y="493.529"/>
      <point x="428.829" y="487.936" type="curve" smooth="yes"/>
      <point x="419.387" y="478.976"/>
      <point x="407.948" y="474.566"/>
      <point x="394.147" y="474.566" type="curve" smooth="yes"/>
      <point x="380.347" y="474.566"/>
      <point x="368.908" y="478.977"/>
      <point x="359.465" y="487.938" type="curve" smooth="yes"/>
      <point x="353.537" y="493.564"/>
      <point x="349.668" y="499.711"/>
      <point x="347.006" y="507.731" type="curve" smooth="yes"/>
      <point x="345.306" y="512.851"/>
      <point x="345.083" y="514.668"/>
      <point x="345.051" y="523.627" type="curve" smooth="yes"/>
      <point x="345.018" y="532.876"/>
      <point x="345.193" y="534.288"/>
      <point x="347.098" y="540.102" type="curve" smooth="yes"/>
      <point x="351.169" y="552.529"/>
      <point x="359.121" y="561.829"/>
      <point x="370.593" y="567.579" type="curve" smooth="yes"/>
      <point x="379.21" y="571.898"/>
      <point x="385.766" y="573.304"/>
      <point x="395.882" y="573.001" type="curve" smooth="yes"/>
      <point x="400.289" y="572.868"/>
      <point x="403.901" y="572.988"/>
      <point x="403.901" y="573.266" type="curve" smooth="yes"/>
      <point x="403.901" y="574.769"/>
      <point x="399.638" y="585.332"/>
      <point x="396.376" y="591.907" type="curve" smooth="yes"/>
      <point x="375.065" y="634.875"/>
      <point x="332.876" y="660.506"/>
      <point x="273.338" y="666.654" type="curve" smooth="yes"/>
      <point x="268.786" y="667.124" type="line"/>
      <point x="268.786" y="536.488" type="line"/>
      <point x="268.786" y="405.853" type="line"/>
      <point x="284.465" y="401.972" type="line" smooth="yes"/>
      <point x="305.491" y="396.769"/>
      <point x="316.552" y="392.923"/>
      <point x="331.286" y="385.691" type="curve" smooth="yes"/>
      <point x="370.175" y="366.606"/>
      <point x="400.478" y="335.91"/>
      <point x="420.515" y="295.304" type="curve" smooth="yes"/>
      <point x="429.885" y="276.315"/>
      <point x="435.358" y="260.404"/>
      <point x="439.283" y="240.751" type="curve" smooth="yes"/>
      <point x="442.64" y="223.946"/>
      <point x="443.268" y="216.763"/>
      <point x="443.199" y="195.954" type="curve" smooth="yes"/>
      <point x="443.146" y="180.13"/>
      <point x="442.86" y="174.987"/>
      <point x="441.552" y="166.329" type="curve" smooth="yes"/>
      <point x="437.694" y="140.823"/>
      <point x="431.171" y="120.311"/>
      <point x="419.678" y="97.543" type="curve" smooth="yes"/>
      <point x="396.166" y="50.9697"/>
      <point x="356.575" y="15.9131"/>
      <point x="308.888" y="-0.558594" type="curve" smooth="yes"/>
      <point x="298.338" y="-4.20312"/>
      <point x="288.831" y="-6.64551"/>
      <point x="279.263" y="-8.16992" type="curve" smooth="yes"/>
      <point x="275.289" y="-8.80273"/>
      <point x="271.306" y="-9.4668"/>
      <point x="270.412" y="-9.64551" type="curve" smooth="yes"/>
      <point x="268.786" y="-9.9707" type="line"/>
      <point x="268.786" y="-32.7314" type="line"/>
      <point x="268.786" y="-55.4912" type="line"/>
      <point x="250" y="-55.4912" type="line"/>
      <point x="231.214" y="-55.4912" type="line"/>
      <point x="231.214" y="-32.7314" type="line"/>
      <point x="231.214" y="-9.9707" type="line"/>
      <point x="229.046" y="-9.9707" type="line" smooth="yes"/>
      <point x="225.324" y="-9.9707"/>
      <point x="210.188" y="-7.81543"/>
      <point x="201.229" y="-6.00879" type="curve" smooth="yes"/>
      <point x="172.977" y="-0.3125"/>
      <point x="146.856" y="11.1416"/>
      <point x="125.289" y="27.2939" type="curve" smooth="yes"/>
      <point x="117.734" y="32.9512"/>
      <point x="102.921" y="47.3984"/>
      <point x="96.8223" y="55.0576" type="curve" smooth="yes"/>
      <point x="70.4258" y="88.2051"/>
      <point x="56.3076" y="131.142"/>
      <point x="56.0742" y="178.974" type="curve" smooth="yes"/>
      <point x="55.999" y="194.509"/>
      <point x="56.042" y="195.001"/>
      <point x="57.9619" y="200.65" type="curve" smooth="yes"/>
      <point x="63.4258" y="216.728"/>
      <point x="74.1328" y="226.94"/>
      <point x="91.04" y="232.201" type="curve" smooth="yes"/>
      <point x="95.4658" y="233.578"/>
      <point x="98.0488" y="233.888"/>
      <point x="105.13" y="233.888" type="curve" smooth="yes"/>
      <point x="115.174" y="233.888"/>
      <point x="120.9" y="232.452"/>
      <point x="130.274" y="227.586" type="curve" smooth="yes"/>
      <point x="163.074" y="210.56"/>
      <point x="162.5" y="157.768"/>
      <point x="129.335" y="141.185" type="curve" smooth="yes"/>
      <point x="119.992" y="136.514"/>
      <point x="112.861" y="134.982"/>
      <point x="102.457" y="135.413" type="curve" smooth="yes"/>
      <point x="93.9307" y="135.766" type="line"/>
      <point x="94.3906" y="133.888" type="line" smooth="yes"/>
      <point x="97.2363" y="122.254"/>
      <point x="106.005" y="102.561"/>
      <point x="113.242" y="91.5459" type="curve" smooth="yes"/>
      <point x="137.354" y="54.8496"/>
      <point x="175" y="33.8242"/>
      <point x="227.023" y="27.998" type="curve" smooth="yes"/>
      <point x="231.214" y="27.5293" type="line"/>
      <point x="231.214" y="171.929" type="line"/>
      <point x="231.214" y="316.329" type="line"/>
      <point x="218.389" y="319.473" type="line" smooth="yes"/>
      <point x="211.308" y="321.208"/>
      <point x="201.777" y="323.687"/>
      <point x="197.109" y="325.007" type="curve" smooth="yes"/>
      <point x="158.671" y="335.88"/>
      <point x="123.071" y="359.268"/>
      <point x="98.7998" y="389.596" type="curve" smooth="yes"/>
      <point x="77.3623" y="416.381"/>
      <point x="63.0293" y="448.988"/>
      <point x="57.6699" y="483.165" type="curve" smooth="yes"/>
      <point x="55.54" y="496.749"/>
      <point x="55.3721" y="525.004"/>
      <point x="57.3467" y="537.717" type="curve" smooth="yes"/>
      <point x="61.6318" y="565.318"/>
      <point x="69.7861" y="588.337"/>
      <point x="83.4023" y="611.271" type="curve" smooth="yes"/>
      <point x="97.9443" y="635.766"/>
      <point x="122.22" y="660.546"/>
      <point x="146.315" y="675.49" type="curve" smooth="yes"/>
      <point x="171.148" y="690.893"/>
      <point x="197.182" y="700.074"/>
      <point x="227.818" y="704.235" type="curve" smooth="yes"/>
      <point x="231.214" y="704.696" type="line"/>
    </contour>
    <contour>
      <point x="231.214" y="540.968" type="curve" smooth="yes"/>
      <point x="231.214" y="666.329" type="line"/>
      <point x="229.227" y="666.293" type="line" smooth="yes"/>
      <point x="228.125" y="666.273"/>
      <point x="223.699" y="665.517"/>
      <point x="219.292" y="664.595" type="curve" smooth="yes"/>
      <point x="170.665" y="654.42"/>
      <point x="131.197" y="619.161"/>
      <point x="118.196" y="574.277" type="curve" smooth="yes"/>
      <point x="112.368" y="554.156"/>
      <point x="112.083" y="531.937"/>
      <point x="117.391" y="511.488" type="curve" smooth="yes"/>
      <point x="127.442" y="472.764"/>
      <point x="158.382" y="439.55"/>
      <point x="198.266" y="424.667" type="curve" smooth="yes"/>
      <point x="204.769" y="422.24"/>
      <point x="228.257" y="415.607"/>
      <point x="230.347" y="415.607" type="curve" smooth="yes"/>
      <point x="231.037" y="415.607"/>
      <point x="231.214" y="441.185"/>
    </contour>
    <contour>
      <point x="277.674" y="304.667" type="curve" smooth="yes"/>
      <point x="273.627" y="305.675"/>
      <point x="269.961" y="306.503"/>
      <point x="269.545" y="306.503" type="curve" smooth="yes"/>
      <point x="269.009" y="306.503"/>
      <point x="268.786" y="265.607"/>
      <point x="268.786" y="167.413" type="curve" smooth="yes"/>
      <point x="268.786" y="28.3232" type="line"/>
      <point x="271.893" y="28.7881" type="line" smooth="yes"/>
      <point x="278.133" y="29.7217"/>
      <point x="291.329" y="33.4395"/>
      <point x="298.555" y="36.2998" type="curve" smooth="yes"/>
      <point x="329.985" y="48.7432"/>
      <point x="356.296" y="73.3984"/>
      <point x="371.389" y="104.552" type="curve" smooth="yes"/>
      <point x="400.128" y="163.873"/>
      <point x="384.521" y="236.531"/>
      <point x="334.321" y="277.131" type="curve" smooth="yes"/>
      <point x="317.338" y="290.866"/>
      <point x="300.795" y="298.907"/>
    </contour>
  </outline>
</glyph>
<glyph name="percent" format="2">
  <advance width="833"/>
  <unicode hex="0025"/>
  <outline>
    <contour>
      <point x="185" y="748" type="curve" smooth="yes"/>
      <point x="203" y="752"/>
      <point x="222" y="749"/>
      <point x="239" y="742" type="curve" smooth="yes"/>
      <point x="251" y="737"/>
      <point x="260" y="731"/>
      <point x="272" y="719" type="curve" smooth="yes"/>
      <point x="320" y="676"/>
      <point x="368" y="652"/>
      <point x="429" y="643" type="curve" smooth="yes"/>
      <point x="442" y="641"/>
      <point x="486" y="641"/>
      <point x="500" y="643" type="curve" smooth="yes"/>
      <point x="562" y="653"/>
      <point x="613" y="684"/>
      <point x="650" y="732" type="curve" smooth="yes"/>
      <point x="659" y="744"/>
      <point x="660" y="746"/>
      <point x="665" y="748" type="curve" smooth="yes"/>
      <point x="680" y="754"/>
      <point x="696" y="742"/>
      <point x="693" y="726" type="curve" smooth="yes"/>
      <point x="692" y="724"/>
      <point x="599" y="584"/>
      <point x="433" y="336" type="curve" smooth="yes"/>
      <point x="229" y="32"/>
      <point x="173" y="-50"/>
      <point x="170" y="-52" type="curve" smooth="yes"/>
      <point x="164" y="-57"/>
      <point x="157" y="-57"/>
      <point x="150" y="-53" type="curve" smooth="yes"/>
      <point x="145" y="-51"/>
      <point x="144" y="-50"/>
      <point x="142" y="-45" type="curve" smooth="yes"/>
      <point x="139" y="-39"/>
      <point x="138" y="-34"/>
      <point x="141" y="-28" type="curve" smooth="yes"/>
      <point x="142" y="-25"/>
      <point x="470" y="465"/>
      <point x="578" y="624" type="curve" smooth="yes"/>
      <point x="598" y="654" type="line"/>
      <point x="588" y="649" type="line" smooth="yes"/>
      <point x="561" y="635"/>
      <point x="533" y="625"/>
      <point x="500" y="620" type="curve" smooth="yes"/>
      <point x="483" y="618"/>
      <point x="441" y="618"/>
      <point x="422" y="621" type="curve" smooth="yes"/>
      <point x="386" y="626"/>
      <point x="346" y="640"/>
      <point x="317" y="657" type="curve" smooth="yes"/>
      <point x="311" y="661" type="line"/>
      <point x="313" y="656" type="line" smooth="yes"/>
      <point x="320" y="640"/>
      <point x="328" y="609"/>
      <point x="331" y="585" type="curve" smooth="yes"/>
      <point x="333" y="571"/>
      <point x="333" y="526"/>
      <point x="331" y="512" type="curve" smooth="yes"/>
      <point x="326" y="471"/>
      <point x="313" y="432"/>
      <point x="293" y="403" type="curve" smooth="yes"/>
      <point x="284" y="389"/>
      <point x="266" y="371"/>
      <point x="255" y="364" type="curve" smooth="yes"/>
      <point x="228" y="346"/>
      <point x="199" y="343"/>
      <point x="168" y="353" type="curve" smooth="yes"/>
      <point x="157" y="357"/>
      <point x="148" y="361"/>
      <point x="136" y="369" type="curve" smooth="yes"/>
      <point x="95" y="397"/>
      <point x="65" y="451"/>
      <point x="57" y="515" type="curve" smooth="yes"/>
      <point x="55" y="527"/>
      <point x="55" y="570"/>
      <point x="57" y="582" type="curve" smooth="yes"/>
      <point x="69" y="670"/>
      <point x="119" y="737"/>
    </contour>
    <contour>
      <point x="216" y="726" type="curve" smooth="yes"/>
      <point x="204" y="728"/>
      <point x="190" y="727"/>
      <point x="181" y="722" type="curve" smooth="yes"/>
      <point x="154" y="708"/>
      <point x="133" y="676"/>
      <point x="124" y="632" type="curve" smooth="yes"/>
      <point x="120" y="608"/>
      <point x="119" y="595"/>
      <point x="119" y="549" type="curve" smooth="yes"/>
      <point x="119" y="502"/>
      <point x="120" y="489"/>
      <point x="125" y="464" type="curve" smooth="yes"/>
      <point x="135" y="410"/>
      <point x="165" y="373"/>
      <point x="200" y="370" type="curve" smooth="yes"/>
      <point x="230" y="368"/>
      <point x="261" y="392"/>
      <point x="282" y="434" type="curve" smooth="yes"/>
      <point x="305" y="479"/>
      <point x="312" y="539"/>
      <point x="303" y="598" type="curve" smooth="yes"/>
      <point x="292" y="664"/>
      <point x="256" y="717"/>
    </contour>
    <contour>
      <point x="629" y="345" type="curve" smooth="yes"/>
      <point x="653" y="350"/>
      <point x="678" y="345"/>
      <point x="699" y="330" type="curve" smooth="yes"/>
      <point x="710" y="323"/>
      <point x="728" y="305"/>
      <point x="737" y="292" type="curve" smooth="yes"/>
      <point x="757" y="262"/>
      <point x="770" y="223"/>
      <point x="775" y="182" type="curve" smooth="yes"/>
      <point x="777" y="168"/>
      <point x="777" y="123"/>
      <point x="775" y="109" type="curve" smooth="yes"/>
      <point x="770" y="68"/>
      <point x="757" y="29"/>
      <point x="737" y="0" type="curve" smooth="yes"/>
      <point x="728" y="-14"/>
      <point x="710" y="-32"/>
      <point x="699" y="-39" type="curve" smooth="yes"/>
      <point x="672" y="-57"/>
      <point x="643" y="-60"/>
      <point x="612" y="-50" type="curve" smooth="yes"/>
      <point x="601" y="-46"/>
      <point x="592" y="-42"/>
      <point x="580" y="-34" type="curve" smooth="yes"/>
      <point x="539" y="-6"/>
      <point x="509" y="48"/>
      <point x="501" y="112" type="curve" smooth="yes"/>
      <point x="499" y="124"/>
      <point x="499" y="167"/>
      <point x="501" y="179" type="curve" smooth="yes"/>
      <point x="513" y="267"/>
      <point x="563" y="334"/>
    </contour>
    <contour>
      <point x="660" y="323" type="curve" smooth="yes"/>
      <point x="648" y="325"/>
      <point x="634" y="324"/>
      <point x="625" y="319" type="curve" smooth="yes"/>
      <point x="598" y="305"/>
      <point x="577" y="273"/>
      <point x="568" y="229" type="curve" smooth="yes"/>
      <point x="564" y="205"/>
      <point x="563" y="192"/>
      <point x="563" y="146" type="curve" smooth="yes"/>
      <point x="563" y="99"/>
      <point x="564" y="86"/>
      <point x="569" y="61" type="curve" smooth="yes"/>
      <point x="579" y="7"/>
      <point x="609" y="-30"/>
      <point x="644" y="-33" type="curve" smooth="yes"/>
      <point x="674" y="-35"/>
      <point x="705" y="-11"/>
      <point x="726" y="31" type="curve" smooth="yes"/>
      <point x="749" y="76"/>
      <point x="756" y="136"/>
      <point x="747" y="195" type="curve" smooth="yes"/>
      <point x="736" y="261"/>
      <point x="700" y="314"/>
    </contour>
  </outline>
</glyph>
<glyph name="ampersand" format="2">
  <advance width="778"/>
  <unicode hex="0026"/>
  <outline>
    <contour>
      <point x="80" y="222" type="curve" smooth="yes"/>
      <point x="185" y="334"/>
      <point x="185" y="334"/>
      <point x="203" y="352" type="curve"/>
      <point x="199" y="363" type="line" smooth="yes"/>
      <point x="193" y="379"/>
      <point x="133" y="538"/>
      <point x="179" y="634" type="curve" smooth="yes"/>
      <point x="227" y="735"/>
      <point x="379" y="766"/>
      <point x="387" y="593" type="curve" smooth="yes"/>
      <point x="387" y="561"/>
      <point x="387" y="520"/>
      <point x="279" y="399" type="curve" smooth="yes"/>
      <point x="271" y="391"/>
      <point x="265" y="384"/>
      <point x="265" y="383" type="curve" smooth="yes"/>
      <point x="289" y="326"/>
      <point x="301" y="298"/>
      <point x="366" y="205" type="curve" smooth="yes"/>
      <point x="389" y="171"/>
      <point x="426" y="121"/>
      <point x="429" y="119" type="curve" smooth="yes"/>
      <point x="437" y="115"/>
      <point x="568" y="322"/>
      <point x="575" y="344" type="curve" smooth="yes"/>
      <point x="577" y="347"/>
      <point x="577" y="351"/>
      <point x="577" y="356" type="curve" smooth="yes"/>
      <point x="577" y="391"/>
      <point x="532" y="399"/>
      <point x="512" y="399" type="curve" smooth="yes"/>
      <point x="507" y="399" type="line"/>
      <point x="507" y="431" type="line"/>
      <point x="515" y="431" type="line"/>
      <point x="527" y="429"/>
      <point x="706" y="427"/>
      <point x="721" y="431" type="curve"/>
      <point x="727" y="431" type="line"/>
      <point x="727" y="399" type="line"/>
      <point x="715" y="399" type="line"/>
      <point x="670" y="396"/>
      <point x="635" y="380"/>
      <point x="612" y="352" type="curve" smooth="yes"/>
      <point x="609" y="347"/>
      <point x="601" y="335"/>
      <point x="594" y="324" type="curve" smooth="yes"/>
      <point x="494" y="157"/>
      <point x="493" y="154"/>
      <point x="446" y="98" type="curve"/>
      <point x="468" y="76" type="line" smooth="yes"/>
      <point x="507" y="37"/>
      <point x="555" y="-5"/>
      <point x="619" y="16" type="curve" smooth="yes"/>
      <point x="677" y="35"/>
      <point x="696" y="91"/>
      <point x="696" y="117" type="curve" smooth="yes"/>
      <point x="696" y="121" type="line"/>
      <point x="722" y="121" type="line"/>
      <point x="722" y="112" type="line"/>
      <point x="716" y="30"/>
      <point x="649" y="-16"/>
      <point x="603" y="-20" type="curve" smooth="yes"/>
      <point x="559" y="-27"/>
      <point x="490" y="-19"/>
      <point x="407" y="52" type="curve"/>
      <point x="404" y="54" type="line"/>
      <point x="393" y="45" type="line" smooth="yes"/>
      <point x="342" y="2"/>
      <point x="290" y="-19"/>
      <point x="231" y="-22" type="curve" smooth="yes"/>
      <point x="74" y="-25"/>
      <point x="-13" y="119"/>
    </contour>
    <contour>
      <point x="160" y="271" type="curve" smooth="yes"/>
      <point x="102" y="199"/>
      <point x="118" y="38"/>
      <point x="208" y="12" type="curve"/>
      <point x="267" y="0"/>
      <point x="349" y="38"/>
      <point x="384" y="73" type="curve"/>
      <point x="342" y="115"/>
      <point x="242" y="250"/>
      <point x="213" y="328" type="curve" smooth="yes"/>
      <point x="212" y="328"/>
      <point x="164" y="277"/>
    </contour>
    <contour>
      <point x="226" y="585" type="curve" smooth="yes"/>
      <point x="226" y="583"/>
      <point x="226" y="479"/>
      <point x="256" y="409" type="curve"/>
      <point x="257" y="410"/>
      <point x="361" y="515"/>
      <point x="361" y="585" type="curve" smooth="yes"/>
      <point x="361" y="587"/>
      <point x="361" y="680"/>
      <point x="312" y="691" type="curve" smooth="yes"/>
      <point x="285" y="699"/>
      <point x="229" y="680"/>
    </contour>
  </outline>
</glyph>
<glyph name="parenleft" format="2">
  <advance width="389"/>
  <unicode hex="0028"/>
  <outline>
    <contour>
      <point x="100" y="250" type="curve" smooth="yes"/>
      <point x="100" y="335"/>
      <point x="117" y="594"/>
      <point x="308" y="744" type="curve" smooth="yes"/>
      <point x="316" y="750"/>
      <point x="316" y="750"/>
      <point x="322" y="750" type="curve" smooth="yes"/>
      <point x="333" y="750"/>
      <point x="333" y="741"/>
      <point x="333" y="741" type="curve" smooth="yes"/>
      <point x="333" y="724"/>
      <point x="235" y="671"/>
      <point x="184" y="470" type="curve" smooth="yes"/>
      <point x="151" y="338"/>
      <point x="151" y="162"/>
      <point x="184" y="31" type="curve" smooth="yes"/>
      <point x="235" y="-171"/>
      <point x="333" y="-224"/>
      <point x="333" y="-241" type="curve" smooth="yes"/>
      <point x="333" y="-241"/>
      <point x="333" y="-250"/>
      <point x="322" y="-250" type="curve" smooth="yes"/>
      <point x="306" y="-250"/>
      <point x="100" y="-99"/>
    </contour>
  </outline>
</glyph>
<glyph name="parenright" format="2">
  <advance width="389"/>
  <unicode hex="0029"/>
  <outline>
    <contour>
      <point x="55" y="-238" type="curve" smooth="yes"/>
      <point x="124" y="-169"/>
      <point x="174" y="-92"/>
      <point x="204" y="31" type="curve" smooth="yes"/>
      <point x="231" y="138"/>
      <point x="279" y="506"/>
      <point x="72" y="720" type="curve" smooth="yes"/>
      <point x="63" y="729"/>
      <point x="56" y="737"/>
      <point x="55" y="738" type="curve" smooth="yes"/>
      <point x="55" y="742"/>
      <point x="57" y="747"/>
      <point x="60" y="749" type="curve" smooth="yes"/>
      <point x="61" y="749"/>
      <point x="65" y="750"/>
      <point x="67" y="750" type="curve" smooth="yes"/>
      <point x="80" y="750"/>
      <point x="288" y="601"/>
      <point x="288" y="250" type="curve" smooth="yes"/>
      <point x="288" y="165"/>
      <point x="271" y="-94"/>
      <point x="80" y="-244" type="curve" smooth="yes"/>
      <point x="73" y="-249"/>
      <point x="71" y="-250"/>
      <point x="67" y="-250" type="curve" smooth="yes"/>
      <point x="65" y="-250"/>
      <point x="62" y="-249"/>
      <point x="60" y="-249" type="curve" smooth="yes"/>
      <point x="57" y="-247"/>
      <point x="55" y="-242"/>
    </contour>
  </outline>
</glyph>
<glyph name="asterisk" format="2">
  <advance width="500"/>
  <unicode hex="002A"/>
  <outline>
    <contour>
      <point x="242" y="749" type="curve" smooth="yes"/>
      <point x="250" y="752"/>
      <point x="264" y="748"/>
      <point x="270" y="741" type="curve" smooth="yes"/>
      <point x="274" y="738"/>
      <point x="277" y="730"/>
      <point x="277" y="726" type="curve" smooth="yes"/>
      <point x="277" y="724"/>
      <point x="274" y="686"/>
      <point x="269" y="641" type="curve" smooth="yes"/>
      <point x="265" y="597"/>
      <point x="262" y="560"/>
      <point x="262" y="558" type="curve" smooth="yes"/>
      <point x="262" y="557"/>
      <point x="273" y="564"/>
      <point x="328" y="605" type="curve" smooth="yes"/>
      <point x="364" y="631"/>
      <point x="395" y="654"/>
      <point x="397" y="654" type="curve" smooth="yes"/>
      <point x="417" y="662"/>
      <point x="439" y="641"/>
      <point x="433" y="620" type="curve" smooth="yes"/>
      <point x="429" y="609"/>
      <point x="430" y="609"/>
      <point x="354" y="573" type="curve" smooth="yes"/>
      <point x="316" y="555"/>
      <point x="283" y="539"/>
      <point x="279" y="538" type="curve" smooth="yes"/>
      <point x="273" y="534" type="line"/>
      <point x="348" y="499" type="line" smooth="yes"/>
      <point x="431" y="459"/>
      <point x="429" y="460"/>
      <point x="433" y="449" type="curve" smooth="yes"/>
      <point x="439" y="428"/>
      <point x="417" y="407"/>
      <point x="397" y="415" type="curve" smooth="yes"/>
      <point x="395" y="415"/>
      <point x="364" y="438"/>
      <point x="328" y="464" type="curve" smooth="yes"/>
      <point x="273" y="505"/>
      <point x="262" y="512"/>
      <point x="262" y="511" type="curve" smooth="yes"/>
      <point x="262" y="509"/>
      <point x="265" y="472"/>
      <point x="269" y="428" type="curve" smooth="yes"/>
      <point x="274" y="383"/>
      <point x="277" y="345"/>
      <point x="277" y="343" type="curve" smooth="yes"/>
      <point x="277" y="339"/>
      <point x="274" y="331"/>
      <point x="270" y="328" type="curve" smooth="yes"/>
      <point x="269" y="326"/>
      <point x="265" y="324"/>
      <point x="263" y="322" type="curve" smooth="yes"/>
      <point x="258" y="320"/>
      <point x="256" y="320"/>
      <point x="250" y="320" type="curve" smooth="yes"/>
      <point x="243" y="320"/>
      <point x="241" y="320"/>
      <point x="237" y="322" type="curve" smooth="yes"/>
      <point x="234" y="324"/>
      <point x="230" y="326"/>
      <point x="229" y="328" type="curve" smooth="yes"/>
      <point x="225" y="331"/>
      <point x="222" y="339"/>
      <point x="222" y="343" type="curve" smooth="yes"/>
      <point x="222" y="345"/>
      <point x="225" y="383"/>
      <point x="230" y="428" type="curve" smooth="yes"/>
      <point x="234" y="472"/>
      <point x="237" y="509"/>
      <point x="237" y="511" type="curve" smooth="yes"/>
      <point x="237" y="512"/>
      <point x="226" y="505"/>
      <point x="171" y="464" type="curve" smooth="yes"/>
      <point x="135" y="438"/>
      <point x="104" y="415"/>
      <point x="102" y="415" type="curve" smooth="yes"/>
      <point x="82" y="407"/>
      <point x="60" y="428"/>
      <point x="66" y="449" type="curve" smooth="yes"/>
      <point x="70" y="460"/>
      <point x="68" y="459"/>
      <point x="151" y="499" type="curve" smooth="yes"/>
      <point x="226" y="534" type="line"/>
      <point x="220" y="538" type="line" smooth="yes"/>
      <point x="216" y="539"/>
      <point x="183" y="555"/>
      <point x="145" y="573" type="curve" smooth="yes"/>
      <point x="69" y="609"/>
      <point x="70" y="609"/>
      <point x="66" y="620" type="curve" smooth="yes"/>
      <point x="60" y="641"/>
      <point x="82" y="662"/>
      <point x="102" y="654" type="curve" smooth="yes"/>
      <point x="104" y="654"/>
      <point x="135" y="631"/>
      <point x="171" y="605" type="curve" smooth="yes"/>
      <point x="226" y="564"/>
      <point x="237" y="557"/>
      <point x="237" y="558" type="curve" smooth="yes"/>
      <point x="237" y="560"/>
      <point x="234" y="597"/>
      <point x="230" y="641" type="curve" smooth="yes"/>
      <point x="225" y="686"/>
      <point x="222" y="724"/>
      <point x="222" y="726" type="curve" smooth="yes"/>
      <point x="222" y="730"/>
      <point x="225" y="738"/>
      <point x="229" y="741" type="curve" smooth="yes"/>
      <point x="231" y="744"/>
      <point x="237" y="748"/>
    </contour>
  </outline>
</glyph>
<glyph name="plus" format="2">
  <advance width="777"/>
  <unicode hex="002B"/>
  <outline>
    <contour>
      <point x="384.104" y="582.771" type="curve" smooth="yes"/>
      <point x="384.864" y="582.988"/>
      <point x="387.283" y="583.056"/>
      <point x="389.523" y="582.92" type="curve" smooth="yes"/>
      <point x="394.798" y="582.6"/>
      <point x="398.672" y="580.104"/>
      <point x="401.252" y="575.361" type="curve" smooth="yes"/>
      <point x="403.179" y="571.821" type="line"/>
      <point x="403.179" y="418.569" type="line"/>
      <point x="403.179" y="265.318" type="line"/>
      <point x="554.516" y="265.318" type="line" smooth="yes"/>
      <point x="657.117" y="265.318"/>
      <point x="706.993" y="265.073"/>
      <point x="709.393" y="264.559" type="curve" smooth="yes"/>
      <point x="721.749" y="261.909"/>
      <point x="725.101" y="246.255"/>
      <point x="715.029" y="238.24" type="curve" smooth="yes"/>
      <point x="712.283" y="236.055" type="line"/>
      <point x="557.731" y="235.874" type="line"/>
      <point x="403.179" y="235.693" type="line"/>
      <point x="403.179" y="82.0811" type="line"/>
      <point x="403.179" y="-71.5322" type="line"/>
      <point x="401.265" y="-75.0361" type="line" smooth="yes"/>
      <point x="400.159" y="-77.0596"/>
      <point x="398.098" y="-79.3955"/>
      <point x="396.388" y="-80.5635" type="curve" smooth="yes"/>
      <point x="393.848" y="-82.2979"/>
      <point x="392.702" y="-82.5869"/>
      <point x="388.367" y="-82.5869" type="curve" smooth="yes"/>
      <point x="384.032" y="-82.5869"/>
      <point x="382.886" y="-82.2979"/>
      <point x="380.347" y="-80.5635" type="curve" smooth="yes"/>
      <point x="378.637" y="-79.3955"/>
      <point x="376.575" y="-77.0596"/>
      <point x="375.47" y="-75.0361" type="curve" smooth="yes"/>
      <point x="373.555" y="-71.5322" type="line"/>
      <point x="373.555" y="82.0811" type="line"/>
      <point x="373.555" y="235.693" type="line"/>
      <point x="219.003" y="235.874" type="line"/>
      <point x="64.4512" y="236.055" type="line"/>
      <point x="61.7051" y="238.24" type="line" smooth="yes"/>
      <point x="51.6338" y="246.255"/>
      <point x="54.9854" y="261.909"/>
      <point x="67.3408" y="264.559" type="curve" smooth="yes"/>
      <point x="69.7412" y="265.073"/>
      <point x="119.617" y="265.318"/>
      <point x="222.218" y="265.318" type="curve" smooth="yes"/>
      <point x="373.555" y="265.318" type="line"/>
      <point x="373.555" y="418.569" type="line"/>
      <point x="373.555" y="571.821" type="line"/>
      <point x="375.488" y="575.361" type="line" smooth="yes"/>
      <point x="377.304" y="578.685"/>
      <point x="381.026" y="581.887"/>
    </contour>
  </outline>
</glyph>
<glyph name="comma" format="2">
  <advance width="278"/>
  <unicode hex="002C"/>
  <outline>
    <contour>
      <point x="125" y="105" type="curve" smooth="yes"/>
      <point x="132" y="107"/>
      <point x="143" y="107"/>
      <point x="151" y="105" type="curve" smooth="yes"/>
      <point x="177" y="99"/>
      <point x="193" y="76"/>
      <point x="201" y="35" type="curve" smooth="yes"/>
      <point x="203" y="22"/>
      <point x="203" y="-18"/>
      <point x="201" y="-33" type="curve" smooth="yes"/>
      <point x="192" y="-91"/>
      <point x="168" y="-141"/>
      <point x="129" y="-182" type="curve" smooth="yes"/>
      <point x="115" y="-196"/>
      <point x="112" y="-197"/>
      <point x="104" y="-190" type="curve" smooth="yes"/>
      <point x="101" y="-186"/>
      <point x="100" y="-185"/>
      <point x="100" y="-182" type="curve" smooth="yes"/>
      <point x="100" y="-178"/>
      <point x="101" y="-177"/>
      <point x="110" y="-167" type="curve" smooth="yes"/>
      <point x="147" y="-129"/>
      <point x="170" y="-84"/>
      <point x="177" y="-32" type="curve" smooth="yes"/>
      <point x="179" y="-20"/>
      <point x="181" y="17"/>
      <point x="180" y="17" type="curve" smooth="yes"/>
      <point x="179" y="17"/>
      <point x="177" y="15"/>
      <point x="174" y="13" type="curve" smooth="yes"/>
      <point x="163" y="2"/>
      <point x="143" y="-3"/>
      <point x="125" y="2" type="curve" smooth="yes"/>
      <point x="101" y="7"/>
      <point x="85" y="28"/>
      <point x="85" y="53" type="curve" smooth="yes"/>
      <point x="85" y="78"/>
      <point x="101" y="100"/>
    </contour>
  </outline>
</glyph>
<glyph name="hyphen" format="2">
  <advance width="333"/>
  <unicode hex="002D"/>
  <outline>
    <contour>
      <point x="10.8379" y="215.102" type="line"/>
      <point x="10.8379" y="247.977" type="line"/>
      <point x="143.786" y="247.977" type="line"/>
      <point x="276.734" y="247.977" type="line"/>
      <point x="276.734" y="215.102" type="line"/>
      <point x="276.734" y="182.226" type="line"/>
      <point x="143.786" y="182.226" type="line"/>
      <point x="10.8379" y="182.226" type="line"/>
    </contour>
  </outline>
</glyph>
<glyph name="period" format="2">
  <advance width="278"/>
  <unicode hex="002E"/>
  <outline>
    <contour>
      <point x="87" y="66" type="curve" smooth="yes"/>
      <point x="91" y="85"/>
      <point x="107" y="101"/>
      <point x="126" y="105" type="curve" smooth="yes"/>
      <point x="164" y="115"/>
      <point x="200" y="80"/>
      <point x="190" y="41" type="curve" smooth="yes"/>
      <point x="186" y="22"/>
      <point x="170" y="6"/>
      <point x="151" y="2" type="curve" smooth="yes"/>
      <point x="112" y="-8"/>
      <point x="77" y="27"/>
    </contour>
  </outline>
</glyph>
<glyph name="slash" format="2">
  <advance width="500"/>
  <unicode hex="002F"/>
  <outline>
    <contour>
      <point x="56" y="-231" type="curve" smooth="yes"/>
      <point x="56" y="-221"/>
      <point x="400" y="727"/>
      <point x="407" y="740" type="curve" smooth="yes"/>
      <point x="410" y="746"/>
      <point x="415" y="750"/>
      <point x="425" y="750" type="curve" smooth="yes"/>
      <point x="436" y="749"/>
      <point x="445" y="740"/>
      <point x="444" y="730" type="curve" smooth="yes"/>
      <point x="444" y="722"/>
      <point x="94" y="-235"/>
      <point x="92" y="-240" type="curve" smooth="yes"/>
      <point x="83" y="-257"/>
      <point x="56" y="-251"/>
    </contour>
  </outline>
</glyph>
<glyph name="zero" format="2">
  <advance width="499"/>
  <unicode hex="0030"/>
  <outline>
    <contour>
      <point x="229.407" y="665.912" type="curve" smooth="yes"/>
      <point x="301.301" y="673.793"/>
      <point x="371.534" y="639.175"/>
      <point x="407.985" y="577.891" type="curve" smooth="yes"/>
      <point x="436.832" y="529.39"/>
      <point x="452.638" y="471.532"/>
      <point x="458.042" y="394.653" type="curve" smooth="yes"/>
      <point x="461.063" y="351.662"/>
      <point x="460.893" y="283.108"/>
      <point x="457.66" y="241.474" type="curve" smooth="yes"/>
      <point x="452.65" y="176.951"/>
      <point x="440.448" y="127.894"/>
      <point x="418.752" y="85.043" type="curve" smooth="yes"/>
      <point x="404.594" y="57.0811"/>
      <point x="389.999" y="37.8262"/>
      <point x="370.737" y="21.6963" type="curve" smooth="yes"/>
      <point x="343.312" y="-1.26953"/>
      <point x="312.789" y="-14.7783"/>
      <point x="275.289" y="-20.5479" type="curve" smooth="yes"/>
      <point x="263.584" y="-22.3486"/>
      <point x="235.693" y="-22.3486"/>
      <point x="223.988" y="-20.5479" type="curve" smooth="yes"/>
      <point x="186.488" y="-14.7783"/>
      <point x="155.965" y="-1.26953"/>
      <point x="128.54" y="21.6963" type="curve" smooth="yes"/>
      <point x="109.278" y="37.8262"/>
      <point x="94.6846" y="57.0811"/>
      <point x="80.5254" y="85.043" type="curve" smooth="yes"/>
      <point x="58.8291" y="127.894"/>
      <point x="46.627" y="176.951"/>
      <point x="41.6172" y="241.474" type="curve" smooth="yes"/>
      <point x="38.3848" y="283.108"/>
      <point x="38.2139" y="351.662"/>
      <point x="41.2354" y="394.653" type="curve" smooth="yes"/>
      <point x="46.6396" y="471.532"/>
      <point x="62.4424" y="529.39"/>
      <point x="91.2832" y="577.891" type="curve" smooth="yes"/>
      <point x="120.523" y="627.062"/>
      <point x="171.532" y="659.567"/>
    </contour>
    <contour>
      <point x="269.87" y="635.315" type="curve" smooth="yes"/>
      <point x="262.355" y="636.949"/>
      <point x="244.281" y="637.695"/>
      <point x="236.994" y="636.672" type="curve" smooth="yes"/>
      <point x="196.509" y="630.986"/>
      <point x="162.553" y="602.312"/>
      <point x="147.191" y="560.838" type="curve" smooth="yes"/>
      <point x="138.608" y="537.666"/>
      <point x="133.542" y="500.65"/>
      <point x="130.628" y="439.812" type="curve" smooth="yes"/>
      <point x="129.351" y="413.147"/>
      <point x="129.334" y="250.939"/>
      <point x="130.605" y="221.604" type="curve" smooth="yes"/>
      <point x="133.168" y="162.5"/>
      <point x="136.903" y="128.438"/>
      <point x="143.833" y="101.012" type="curve" smooth="yes"/>
      <point x="162.78" y="26.0117"/>
      <point x="232.008" y="-12.5361"/>
      <point x="292.991" y="17.9551" type="curve" smooth="yes"/>
      <point x="322.942" y="32.9307"/>
      <point x="345.992" y="63.584"/>
      <point x="355.446" y="101.012" type="curve" smooth="yes"/>
      <point x="362.374" y="128.438"/>
      <point x="366.109" y="162.5"/>
      <point x="368.672" y="221.604" type="curve" smooth="yes"/>
      <point x="369.943" y="250.939"/>
      <point x="369.927" y="413.147"/>
      <point x="368.649" y="439.812" type="curve" smooth="yes"/>
      <point x="365.735" y="500.65"/>
      <point x="360.667" y="537.666"/>
      <point x="352.079" y="560.838" type="curve" smooth="yes"/>
      <point x="337.752" y="599.494"/>
      <point x="307.165" y="627.205"/>
    </contour>
  </outline>
</glyph>
<glyph name="one" format="2">
  <advance width="500"/>
  <unicode hex="0031"/>
  <outline>
    <contour>
      <point x="90" y="570" type="line"/>
      <point x="90" y="602" type="line"/>
      <point x="101" y="602" type="line" smooth="yes"/>
      <point x="124" y="602"/>
      <point x="206" y="606"/>
      <point x="263" y="657" type="curve" smooth="yes"/>
      <point x="273" y="666" type="line"/>
      <point x="280" y="666" type="line" smooth="yes"/>
      <point x="287" y="666"/>
      <point x="287" y="666"/>
      <point x="295" y="660" type="curve"/>
      <point x="295" y="359" type="line"/>
      <point x="296" y="59" type="line"/>
      <point x="302" y="41"/>
      <point x="305" y="32"/>
      <point x="398" y="32" type="curve" smooth="yes"/>
      <point x="420" y="32" type="line"/>
      <point x="420" y="0" type="line"/>
      <point x="409" y="0" type="line"/>
      <point x="391" y="3"/>
      <point x="124" y="3"/>
      <point x="106" y="0" type="curve"/>
      <point x="95" y="0" type="line"/>
      <point x="95" y="32" type="line"/>
      <point x="117" y="32" type="line" smooth="yes"/>
      <point x="207" y="32"/>
      <point x="210" y="39"/>
      <point x="220" y="59" type="curve"/>
      <point x="220" y="596" type="line"/>
      <point x="199" y="587"/>
      <point x="159" y="570"/>
      <point x="101" y="570" type="curve" smooth="yes"/>
    </contour>
  </outline>
</glyph>
<glyph name="two" format="2">
  <advance width="500"/>
  <unicode hex="0032"/>
  <outline>
    <contour>
      <point x="219" y="665" type="curve" smooth="yes"/>
      <point x="224" y="666"/>
      <point x="262" y="665"/>
      <point x="270" y="664" type="curve" smooth="yes"/>
      <point x="310" y="658"/>
      <point x="346" y="644"/>
      <point x="375" y="623" type="curve" smooth="yes"/>
      <point x="386" y="614"/>
      <point x="406" y="595"/>
      <point x="414" y="583" type="curve" smooth="yes"/>
      <point x="422" y="572"/>
      <point x="435" y="547"/>
      <point x="439" y="535" type="curve" smooth="yes"/>
      <point x="443" y="522"/>
      <point x="447" y="505"/>
      <point x="448" y="492" type="curve" smooth="yes"/>
      <point x="450" y="478"/>
      <point x="449" y="453"/>
      <point x="447" y="441" type="curve" smooth="yes"/>
      <point x="440" y="404"/>
      <point x="423" y="369"/>
      <point x="395" y="333" type="curve" smooth="yes"/>
      <point x="376" y="309"/>
      <point x="346" y="281"/>
      <point x="293" y="234" type="curve" smooth="yes"/>
      <point x="280" y="222"/>
      <point x="263" y="207"/>
      <point x="256" y="200" type="curve" smooth="yes"/>
      <point x="243" y="188"/>
      <point x="165" y="114"/>
      <point x="141" y="90" type="curve" smooth="yes"/>
      <point x="128" y="78" type="line"/>
      <point x="244" y="78" type="line" smooth="yes"/>
      <point x="378" y="79"/>
      <point x="395" y="80"/>
      <point x="400" y="85" type="curve" smooth="yes"/>
      <point x="406" y="91"/>
      <point x="413" y="118"/>
      <point x="419" y="151" type="curve" smooth="yes"/>
      <point x="421" y="161"/>
      <point x="422" y="171"/>
      <point x="423" y="172" type="curve" smooth="yes"/>
      <point x="423" y="175" type="line"/>
      <point x="436" y="175" type="line"/>
      <point x="449" y="175" type="line"/>
      <point x="449" y="172" type="line" smooth="yes"/>
      <point x="448" y="171"/>
      <point x="442" y="133"/>
      <point x="435" y="88" type="curve" smooth="yes"/>
      <point x="428" y="42"/>
      <point x="422" y="4"/>
      <point x="421" y="3" type="curve" smooth="yes"/>
      <point x="421" y="0" type="line"/>
      <point x="235" y="0" type="line"/>
      <point x="50" y="0" type="line"/>
      <point x="50" y="12" type="line" smooth="yes"/>
      <point x="50" y="22"/>
      <point x="50" y="25"/>
      <point x="52" y="28" type="curve" smooth="yes"/>
      <point x="53" y="29"/>
      <point x="93" y="74"/>
      <point x="140" y="127" type="curve" smooth="yes"/>
      <point x="188" y="179"/>
      <point x="231" y="228"/>
      <point x="237" y="234" type="curve" smooth="yes"/>
      <point x="313" y="320"/>
      <point x="344" y="375"/>
      <point x="355" y="440" type="curve" smooth="yes"/>
      <point x="357" y="453"/>
      <point x="357" y="488"/>
      <point x="355" y="502" type="curve" smooth="yes"/>
      <point x="349" y="543"/>
      <point x="335" y="574"/>
      <point x="312" y="598" type="curve" smooth="yes"/>
      <point x="289" y="621"/>
      <point x="263" y="632"/>
      <point x="229" y="634" type="curve" smooth="yes"/>
      <point x="179" y="636"/>
      <point x="131" y="609"/>
      <point x="104" y="563" type="curve" smooth="yes"/>
      <point x="99" y="555"/>
      <point x="91" y="538"/>
      <point x="91" y="535" type="curve"/>
      <point x="101" y="535" type="line" smooth="yes"/>
      <point x="117" y="535"/>
      <point x="131" y="531"/>
      <point x="141" y="520" type="curve" smooth="yes"/>
      <point x="161" y="500"/>
      <point x="161" y="466"/>
      <point x="142" y="445" type="curve" smooth="yes"/>
      <point x="136" y="439"/>
      <point x="129" y="435"/>
      <point x="120" y="432" type="curve" smooth="yes"/>
      <point x="111" y="429"/>
      <point x="95" y="429"/>
      <point x="86" y="432" type="curve" smooth="yes"/>
      <point x="62" y="440"/>
      <point x="50" y="458"/>
      <point x="50" y="485" type="curve" smooth="yes"/>
      <point x="50" y="519"/>
      <point x="62" y="555"/>
      <point x="82" y="586" type="curve" smooth="yes"/>
      <point x="92" y="601"/>
      <point x="114" y="623"/>
      <point x="129" y="633" type="curve" smooth="yes"/>
      <point x="149" y="646"/>
      <point x="169" y="655"/>
      <point x="191" y="660" type="curve" smooth="yes"/>
      <point x="199" y="663"/>
      <point x="204" y="663"/>
    </contour>
  </outline>
</glyph>
<glyph name="three" format="2">
  <advance width="499"/>
  <unicode hex="0033"/>
  <outline>
    <contour>
      <point x="226.156" y="666.588" type="curve" smooth="yes"/>
      <point x="227.554" y="666.725"/>
      <point x="233.888" y="666.888"/>
      <point x="240.318" y="666.951" type="curve" smooth="yes"/>
      <point x="326.518" y="667.813"/>
      <point x="402.82" y="623.245"/>
      <point x="424.094" y="559.609" type="curve" smooth="yes"/>
      <point x="428.638" y="546.017"/>
      <point x="429.479" y="540.391"/>
      <point x="429.479" y="523.627" type="curve" smooth="yes"/>
      <point x="429.479" y="502.312"/>
      <point x="426.44" y="484.799"/>
      <point x="419.435" y="465.751" type="curve" smooth="yes"/>
      <point x="413.242" y="448.916"/>
      <point x="401.636" y="428.582"/>
      <point x="390.153" y="414.451" type="curve" smooth="yes"/>
      <point x="376.117" y="397.178"/>
      <point x="358.743" y="382.004"/>
      <point x="338.15" y="369.033" type="curve" smooth="yes"/>
      <point x="329.949" y="363.868"/>
      <point x="310.766" y="354.126"/>
      <point x="302.023" y="350.687" type="curve" smooth="yes"/>
      <point x="298.771" y="349.407"/>
      <point x="297.037" y="348.396"/>
      <point x="297.688" y="348.157" type="curve" smooth="yes"/>
      <point x="298.286" y="347.938"/>
      <point x="302.168" y="346.914"/>
      <point x="306.358" y="345.87" type="curve" smooth="yes"/>
      <point x="329.479" y="340.108"/>
      <point x="354.147" y="329.255"/>
      <point x="374.639" y="315.828" type="curve" smooth="yes"/>
      <point x="421.803" y="284.923"/>
      <point x="451.239" y="239.451"/>
      <point x="456.682" y="189.09" type="curve" smooth="yes"/>
      <point x="457.729" y="179.388"/>
      <point x="457.16" y="159.682"/>
      <point x="455.521" y="148.988" type="curve" smooth="yes"/>
      <point x="450.695" y="117.485"/>
      <point x="438.4" y="88.792"/>
      <point x="418.058" y="61.5605" type="curve" smooth="yes"/>
      <point x="411.592" y="52.9043"/>
      <point x="391.257" y="32.4121"/>
      <point x="382.226" y="25.4512" type="curve" smooth="yes"/>
      <point x="346.788" y="-1.86426"/>
      <point x="304.696" y="-17.9414"/>
      <point x="259.032" y="-21.6045" type="curve" smooth="yes"/>
      <point x="238.656" y="-23.2393"/>
      <point x="209.328" y="-21.4121"/>
      <point x="189.162" y="-17.251" type="curve" smooth="yes"/>
      <point x="117.558" y="-2.47754"/>
      <point x="65.3535" y="37.5527"/>
      <point x="48.2207" y="90.8232" type="curve" smooth="yes"/>
      <point x="43.6357" y="105.078"/>
      <point x="42.3408" y="113.512"/>
      <point x="42.3408" y="129.118" type="curve" smooth="yes"/>
      <point x="42.3408" y="141.979"/>
      <point x="42.4648" y="143.248"/>
      <point x="44.2979" y="149.205" type="curve" smooth="yes"/>
      <point x="51.1758" y="171.561"/>
      <point x="66.6182" y="186.148"/>
      <point x="89.3066" y="191.722" type="curve" smooth="yes"/>
      <point x="98.2656" y="193.923"/>
      <point x="111.271" y="193.925"/>
      <point x="120.231" y="191.728" type="curve" smooth="yes"/>
      <point x="142.991" y="186.144"/>
      <point x="158.405" y="171.585"/>
      <point x="165.252" y="149.205" type="curve" smooth="yes"/>
      <point x="167.02" y="143.425"/>
      <point x="167.196" y="141.763"/>
      <point x="167.196" y="130.925" type="curve" smooth="yes"/>
      <point x="167.196" y="116.907"/>
      <point x="166.041" y="111.467"/>
      <point x="160.828" y="100.939" type="curve" smooth="yes"/>
      <point x="152.919" y="84.9639"/>
      <point x="139.018" y="74.3115"/>
      <point x="119.942" y="69.6074" type="curve" smooth="yes"/>
      <point x="111.922" y="67.6299" type="line"/>
      <point x="117.196" y="62.627" type="line" smooth="yes"/>
      <point x="141.969" y="39.1279"/>
      <point x="179.552" y="24.2246"/>
      <point x="223.627" y="20.4229" type="curve" smooth="yes"/>
      <point x="247.037" y="18.4033"/>
      <point x="262.217" y="20.707"/>
      <point x="278.468" y="28.7461" type="curve" smooth="yes"/>
      <point x="307.864" y="43.2881"/>
      <point x="328.17" y="73.5547"/>
      <point x="335.628" y="113.945" type="curve" smooth="yes"/>
      <point x="339.119" y="132.849"/>
      <point x="339.891" y="143.569"/>
      <point x="339.917" y="173.555" type="curve" smooth="yes"/>
      <point x="339.947" y="207.731"/>
      <point x="338.37" y="224.937"/>
      <point x="333.401" y="244.653" type="curve" smooth="yes"/>
      <point x="323.223" y="285.043"/>
      <point x="298.422" y="314.702"/>
      <point x="265.679" y="325.642" type="curve" smooth="yes"/>
      <point x="254.994" y="329.211"/>
      <point x="249.205" y="329.624"/>
      <point x="209.898" y="329.624" type="curve" smooth="yes"/>
      <point x="176.301" y="329.624"/>
      <point x="173.6" y="329.716"/>
      <point x="171.315" y="330.935" type="curve" smooth="yes"/>
      <point x="166.907" y="333.285"/>
      <point x="166.185" y="335.693"/>
      <point x="166.185" y="348.049" type="curve" smooth="yes"/>
      <point x="166.185" y="357.226"/>
      <point x="166.389" y="359.264"/>
      <point x="167.512" y="361.344" type="curve" smooth="yes"/>
      <point x="170.019" y="365.985"/>
      <point x="170.954" y="366.179"/>
      <point x="202.674" y="368.602" type="curve" smooth="yes"/>
      <point x="218.569" y="369.815"/>
      <point x="234.273" y="371.304"/>
      <point x="237.572" y="371.907" type="curve" smooth="yes"/>
      <point x="253.612" y="374.845"/>
      <point x="267.904" y="382.717"/>
      <point x="280.706" y="395.665" type="curve" smooth="yes"/>
      <point x="289.589" y="404.649"/>
      <point x="295.963" y="413.873"/>
      <point x="302.727" y="427.529" type="curve" smooth="yes"/>
      <point x="316.512" y="455.365"/>
      <point x="323.193" y="487.211"/>
      <point x="323.193" y="525.072" type="curve" smooth="yes"/>
      <point x="323.193" y="553.54"/>
      <point x="320.212" y="570.082"/>
      <point x="312.108" y="586.561" type="curve" smooth="yes"/>
      <point x="301.354" y="608.429"/>
      <point x="280.13" y="623.104"/>
      <point x="253.612" y="627.008" type="curve" smooth="yes"/>
      <point x="234.84" y="629.771"/>
      <point x="206.575" y="626.156"/>
      <point x="185.26" y="618.266" type="curve" smooth="yes"/>
      <point x="165.029" y="610.776"/>
      <point x="145.198" y="597.87"/>
      <point x="133.882" y="584.826" type="curve" smooth="yes"/>
      <point x="130.058" y="580.419" type="line"/>
      <point x="133.526" y="579.99" type="line" smooth="yes"/>
      <point x="140.463" y="579.132"/>
      <point x="148.681" y="576.632"/>
      <point x="155.347" y="573.354" type="curve" smooth="yes"/>
      <point x="161.055" y="570.548"/>
      <point x="163.193" y="568.965"/>
      <point x="168.75" y="563.439" type="curve" smooth="yes"/>
      <point x="174.387" y="557.833"/>
      <point x="175.857" y="555.853"/>
      <point x="178.73" y="550" type="curve" smooth="yes"/>
      <point x="183.579" y="540.121"/>
      <point x="185.043" y="533.671"/>
      <point x="185.043" y="522.182" type="curve" smooth="yes"/>
      <point x="185.043" y="510.766"/>
      <point x="183.56" y="504.215"/>
      <point x="178.773" y="494.509" type="curve" smooth="yes"/>
      <point x="173.058" y="482.914"/>
      <point x="162.355" y="473.323"/>
      <point x="149.711" y="468.462" type="curve" smooth="yes"/>
      <point x="141.335" y="465.242"/>
      <point x="136.416" y="464.396"/>
      <point x="126.445" y="464.463" type="curve" smooth="yes"/>
      <point x="118.858" y="464.514"/>
      <point x="116.385" y="464.832"/>
      <point x="110.982" y="466.451" type="curve" smooth="yes"/>
      <point x="90.5352" y="472.581"/>
      <point x="77.125" y="485.832"/>
      <point x="71.4023" y="505.563" type="curve" smooth="yes"/>
      <point x="69.9209" y="510.67"/>
      <point x="69.7285" y="512.861"/>
      <point x="69.7539" y="524.35" type="curve" smooth="yes"/>
      <point x="69.7871" y="539.379"/>
      <point x="71.1992" y="548.197"/>
      <point x="75.8252" y="562.283" type="curve" smooth="yes"/>
      <point x="82.6582" y="583.093"/>
      <point x="93.8223" y="600.53"/>
      <point x="110.982" y="617.2" type="curve" smooth="yes"/>
      <point x="123.682" y="629.536"/>
      <point x="135.332" y="637.814"/>
      <point x="151.373" y="645.897" type="curve" smooth="yes"/>
      <point x="174.646" y="657.625"/>
      <point x="196.604" y="663.7"/>
    </contour>
  </outline>
</glyph>
<glyph name="four" format="2">
  <advance width="499"/>
  <unicode hex="0034"/>
  <outline>
    <contour>
      <point x="339.957" y="676.915" type="curve" smooth="yes"/>
      <point x="341.585" y="677.647"/>
      <point x="345.304" y="677.848"/>
      <point x="354.913" y="677.721" type="curve" smooth="yes"/>
      <point x="368.858" y="677.536"/>
      <point x="369.583" y="677.333"/>
      <point x="373.121" y="672.615" type="curve" smooth="yes"/>
      <point x="374.639" y="670.593" type="line"/>
      <point x="374.819" y="436.524" type="line"/>
      <point x="375" y="202.457" type="line"/>
      <point x="423.41" y="202.457" type="line"/>
      <point x="471.821" y="202.457" type="line"/>
      <point x="471.821" y="183.671" type="line"/>
      <point x="471.821" y="164.885" type="line"/>
      <point x="423.374" y="164.885" type="line"/>
      <point x="374.928" y="164.885" type="line"/>
      <point x="375.145" y="112.319" type="line"/>
      <point x="375.361" y="59.7539" type="line"/>
      <point x="377.405" y="55.3467" type="line" smooth="yes"/>
      <point x="379.817" y="50.1445"/>
      <point x="384.231" y="45.5605"/>
      <point x="388.729" y="43.5869" type="curve" smooth="yes"/>
      <point x="396.655" y="40.1094"/>
      <point x="412.5" y="38.5684"/>
      <point x="446.677" y="37.9531" type="curve" smooth="yes"/>
      <point x="471.821" y="37.5" type="line"/>
      <point x="471.821" y="18.7139" type="line"/>
      <point x="471.821" y="-0.0722656" type="line"/>
      <point x="463.367" y="0.385742" type="line" smooth="yes"/>
      <point x="408.81" y="3.33887"/>
      <point x="256.937" y="3.33984"/>
      <point x="202.168" y="0.387695" type="curve" smooth="yes"/>
      <point x="193.642" y="-0.0722656" type="line"/>
      <point x="193.642" y="18.7139" type="line"/>
      <point x="193.642" y="37.5" type="line"/>
      <point x="218.714" y="37.9531" type="line" smooth="yes"/>
      <point x="252.602" y="38.5654"/>
      <point x="268.713" y="40.1338"/>
      <point x="276.807" y="43.6064" type="curve" smooth="yes"/>
      <point x="281.133" y="45.4629"/>
      <point x="285.622" y="50.2168"/>
      <point x="288.167" y="55.6357" type="curve" smooth="yes"/>
      <point x="290.102" y="59.7539" type="line"/>
      <point x="290.318" y="112.319" type="line"/>
      <point x="290.535" y="164.885" type="line"/>
      <point x="158.996" y="164.885" type="line"/>
      <point x="27.457" y="164.885" type="line"/>
      <point x="27.457" y="183.671" type="line"/>
      <point x="27.457" y="202.457" type="line"/>
      <point x="181.069" y="437.464" type="line" smooth="yes"/>
      <point x="265.562" y="566.727"/>
      <point x="335.381" y="673.251"/>
      <point x="336.235" y="674.205" type="curve" smooth="yes"/>
      <point x="337.116" y="675.188"/>
      <point x="338.729" y="676.362"/>
    </contour>
    <contour>
      <point x="295.99" y="202.71" type="curve" smooth="yes"/>
      <point x="296.129" y="202.849"/>
      <point x="296.161" y="282.587"/>
      <point x="296.062" y="379.913" type="curve" smooth="yes"/>
      <point x="295.882" y="556.864" type="line"/>
      <point x="180.166" y="379.841" type="line"/>
      <point x="64.4512" y="202.818" type="line"/>
      <point x="180.094" y="202.638" type="line" smooth="yes"/>
      <point x="243.678" y="202.538"/>
      <point x="295.851" y="202.57"/>
    </contour>
  </outline>
</glyph>
<glyph name="five" format="2">
  <advance width="500"/>
  <unicode hex="0035"/>
  <outline>
    <contour>
      <point x="50" y="163" type="curve" smooth="yes"/>
      <point x="50" y="220"/>
      <point x="121" y="230"/>
      <point x="145" y="188" type="curve" smooth="yes"/>
      <point x="147" y="181"/>
      <point x="150" y="170"/>
      <point x="150" y="165" type="curve" smooth="yes"/>
      <point x="150" y="121"/>
      <point x="104" y="109"/>
      <point x="85" y="117" type="curve"/>
      <point x="83" y="117" type="line"/>
      <point x="96" y="87"/>
      <point x="124" y="22"/>
      <point x="203" y="9" type="curve" smooth="yes"/>
      <point x="267" y="-2"/>
      <point x="330" y="33"/>
      <point x="350" y="110" type="curve" smooth="yes"/>
      <point x="356" y="134"/>
      <point x="359" y="163"/>
      <point x="359" y="207" type="curve" smooth="yes"/>
      <point x="359" y="282"/>
      <point x="351" y="321"/>
      <point x="331" y="352" type="curve" smooth="yes"/>
      <point x="311" y="382"/>
      <point x="287" y="397"/>
      <point x="259" y="397" type="curve" smooth="yes"/>
      <point x="224" y="397"/>
      <point x="170" y="387"/>
      <point x="131" y="331" type="curve" smooth="yes"/>
      <point x="127" y="325"/>
      <point x="123" y="320"/>
      <point x="122" y="319" type="curve" smooth="yes"/>
      <point x="118" y="318"/>
      <point x="109" y="318"/>
      <point x="106" y="319" type="curve" smooth="yes"/>
      <point x="100" y="323"/>
      <point x="100" y="311"/>
      <point x="100" y="492" type="curve" smooth="yes"/>
      <point x="100" y="664"/>
      <point x="100" y="664"/>
      <point x="105" y="664" type="curve" smooth="yes"/>
      <point x="114" y="670"/>
      <point x="139" y="649"/>
      <point x="195" y="639" type="curve" smooth="yes"/>
      <point x="292" y="624"/>
      <point x="354" y="648"/>
      <point x="387" y="661" type="curve" smooth="yes"/>
      <point x="395" y="664"/>
      <point x="410" y="672"/>
      <point x="410" y="655" type="curve" smooth="yes"/>
      <point x="410" y="644"/>
      <point x="319" y="510"/>
      <point x="134" y="563" type="curve"/>
      <point x="132" y="563" type="line"/>
      <point x="132" y="369" type="line"/>
      <point x="142" y="377" type="line"/>
      <point x="243" y="467"/>
      <point x="419" y="415"/>
      <point x="447" y="236" type="curve"/>
      <point x="465" y="95"/>
      <point x="364" y="-21"/>
      <point x="231" y="-21" type="curve" smooth="yes"/>
      <point x="209" y="-21"/>
      <point x="168" y="-21"/>
      <point x="122" y="16" type="curve" smooth="yes"/>
      <point x="115" y="21"/>
      <point x="50" y="71"/>
    </contour>
  </outline>
</glyph>
<glyph name="six" format="2">
  <advance width="499"/>
  <unicode hex="0036"/>
  <outline>
    <contour>
      <point x="289.74" y="666.614" type="curve" smooth="yes"/>
      <point x="296.749" y="667.266"/>
      <point x="324.302" y="666.421"/>
      <point x="331.069" y="665.347" type="curve" smooth="yes"/>
      <point x="351.59" y="662.09"/>
      <point x="370.27" y="655.1"/>
      <point x="385.838" y="644.852" type="curve" smooth="yes"/>
      <point x="393.497" y="639.81"/>
      <point x="408.16" y="625.305"/>
      <point x="413.138" y="617.847" type="curve" smooth="yes"/>
      <point x="420.309" y="607.103"/>
      <point x="425.849" y="594.437"/>
      <point x="429.064" y="581.431" type="curve" smooth="yes"/>
      <point x="431.709" y="570.737"/>
      <point x="432.378" y="564.885"/>
      <point x="432.41" y="552.168" type="curve" smooth="yes"/>
      <point x="432.438" y="541.04"/>
      <point x="432.241" y="538.829"/>
      <point x="430.765" y="533.743" type="curve" smooth="yes"/>
      <point x="428.06" y="524.422"/>
      <point x="424.607" y="518.61"/>
      <point x="417.63" y="511.633" type="curve" smooth="yes"/>
      <point x="407.116" y="501.119"/>
      <point x="395.593" y="496.532"/>
      <point x="379.696" y="496.532" type="curve" smooth="yes"/>
      <point x="369.437" y="496.532"/>
      <point x="361.684" y="498.368"/>
      <point x="352.963" y="502.865" type="curve" smooth="yes"/>
      <point x="346.026" y="506.441"/>
      <point x="336.486" y="515.968"/>
      <point x="332.896" y="522.904" type="curve" smooth="yes"/>
      <point x="328.394" y="531.604"/>
      <point x="326.951" y="538.006"/>
      <point x="326.951" y="549.277" type="curve" smooth="yes"/>
      <point x="326.951" y="560.549"/>
      <point x="328.394" y="566.95"/>
      <point x="332.896" y="575.65" type="curve" smooth="yes"/>
      <point x="336.486" y="582.587"/>
      <point x="346.026" y="592.114"/>
      <point x="352.963" y="595.69" type="curve" smooth="yes"/>
      <point x="358.31" y="598.447"/>
      <point x="369.448" y="602.023"/>
      <point x="372.688" y="602.023" type="curve" smooth="yes"/>
      <point x="374.566" y="602.023" type="line"/>
      <point x="372.075" y="604.624" type="line" smooth="yes"/>
      <point x="362.407" y="614.719"/>
      <point x="346.026" y="622.718"/>
      <point x="328.54" y="625.881" type="curve" smooth="yes"/>
      <point x="285.693" y="633.633"/>
      <point x="243.487" y="619.473"/>
      <point x="210.26" y="586.199" type="curve" smooth="yes"/>
      <point x="173.439" y="549.328"/>
      <point x="154.805" y="499.35"/>
      <point x="148.541" y="420.665" type="curve" smooth="yes"/>
      <point x="147.459" y="407.081"/>
      <point x="145.581" y="360.127"/>
      <point x="146.099" y="359.609" type="curve" smooth="yes"/>
      <point x="146.259" y="359.449"/>
      <point x="147.944" y="361.922"/>
      <point x="149.892" y="365.174" type="curve" smooth="yes"/>
      <point x="155.558" y="374.639"/>
      <point x="165.439" y="387.188"/>
      <point x="173.844" y="395.593" type="curve" smooth="yes"/>
      <point x="196.074" y="417.822"/>
      <point x="220.737" y="429.941"/>
      <point x="251.445" y="433.724" type="curve" smooth="yes"/>
      <point x="260.077" y="434.786"/>
      <point x="282.876" y="434.164"/>
      <point x="293.353" y="432.578" type="curve" smooth="yes"/>
      <point x="334.898" y="426.292"/>
      <point x="367.68" y="406.899"/>
      <point x="399.475" y="369.798" type="curve" smooth="yes"/>
      <point x="440.657" y="321.741"/>
      <point x="457.37" y="275"/>
      <point x="457.37" y="207.876" type="curve" smooth="yes"/>
      <point x="457.37" y="134.898"/>
      <point x="436.737" y="84.7266"/>
      <point x="385.91" y="34.1094" type="curve" smooth="yes"/>
      <point x="372.931" y="21.1826"/>
      <point x="366.112" y="15.5361"/>
      <point x="352.674" y="6.58398" type="curve" smooth="yes"/>
      <point x="331.57" y="-7.47461"/>
      <point x="308.815" y="-16.0684"/>
      <point x="282.081" y="-20.0752" type="curve" smooth="yes"/>
      <point x="269.003" y="-22.0352"/>
      <point x="246.153" y="-22.7627"/>
      <point x="234.465" y="-21.5908" type="curve" smooth="yes"/>
      <point x="176.156" y="-15.7451"/>
      <point x="124.254" y="19.417"/>
      <point x="93.0654" y="74.2051" type="curve" smooth="yes"/>
      <point x="58.0381" y="135.736"/>
      <point x="41.9639" y="212.572"/>
      <point x="41.9287" y="318.642" type="curve" smooth="yes"/>
      <point x="41.9141" y="363.15"/>
      <point x="46.6006" y="400.839"/>
      <point x="56.8174" y="438.367" type="curve" smooth="yes"/>
      <point x="72.4736" y="495.882"/>
      <point x="100.896" y="548.814"/>
      <point x="137.011" y="587.717" type="curve" smooth="yes"/>
      <point x="180.088" y="634.119"/>
      <point x="232.731" y="661.314"/>
    </contour>
    <contour>
      <point x="276.373" y="395.733" type="curve" smooth="yes"/>
      <point x="268.497" y="397.149"/>
      <point x="250.047" y="397.736"/>
      <point x="243.136" y="396.79" type="curve" smooth="yes"/>
      <point x="189.438" y="389.441"/>
      <point x="153.861" y="332.587"/>
      <point x="148.121" y="244.942" type="curve" smooth="yes"/>
      <point x="146.231" y="216.098"/>
      <point x="148.27" y="160.91"/>
      <point x="152.491" y="126.59" type="curve" smooth="yes"/>
      <point x="155.317" y="103.612"/>
      <point x="158.579" y="91.1631"/>
      <point x="165.268" y="77.8184" type="curve" smooth="yes"/>
      <point x="178.522" y="51.373"/>
      <point x="199.748" y="31.8955"/>
      <point x="224.205" y="23.7354" type="curve" smooth="yes"/>
      <point x="244.581" y="16.9365"/>
      <point x="275.011" y="19.0332"/>
      <point x="295.304" y="28.6338" type="curve" smooth="yes"/>
      <point x="311.228" y="36.168"/>
      <point x="324.145" y="48.4102"/>
      <point x="334.922" y="66.1846" type="curve" smooth="yes"/>
      <point x="349.005" y="89.4102"/>
      <point x="353.323" y="122.832"/>
      <point x="353.323" y="208.599" type="curve" smooth="yes"/>
      <point x="353.323" y="296.893"/>
      <point x="349.361" y="329.391"/>
      <point x="335.836" y="352.023" type="curve" smooth="yes"/>
      <point x="320.827" y="377.139"/>
      <point x="301.734" y="391.174"/>
    </contour>
  </outline>
</glyph>
<glyph name="seven" format="2">
  <advance width="500"/>
  <unicode hex="0037"/>
  <outline>
    <contour>
      <point x="55" y="469" type="line"/>
      <point x="55" y="472" type="line"/>
      <point x="56" y="473"/>
      <point x="87" y="672"/>
      <point x="88" y="673" type="curve" smooth="yes"/>
      <point x="88" y="676" type="line"/>
      <point x="114" y="676" type="line"/>
      <point x="114" y="672" type="line"/>
      <point x="115" y="660"/>
      <point x="127" y="649"/>
      <point x="182" y="646" type="curve" smooth="yes"/>
      <point x="191" y="645"/>
      <point x="249" y="645"/>
      <point x="341" y="644" type="curve"/>
      <point x="485" y="644" type="line"/>
      <point x="485" y="619" type="line"/>
      <point x="412" y="517" type="line" smooth="yes"/>
      <point x="371" y="460"/>
      <point x="336" y="410"/>
      <point x="332" y="404" type="curve" smooth="yes"/>
      <point x="279" y="317"/>
      <point x="268" y="203"/>
      <point x="268" y="54" type="curve" smooth="yes"/>
      <point x="268" y="11"/>
      <point x="268" y="-2"/>
      <point x="245" y="-16" type="curve" smooth="yes"/>
      <point x="217" y="-31"/>
      <point x="182" y="-16"/>
      <point x="176" y="14" type="curve" smooth="yes"/>
      <point x="175" y="18"/>
      <point x="160" y="208"/>
      <point x="305" y="419" type="curve" smooth="yes"/>
      <point x="306" y="420"/>
      <point x="311" y="428"/>
      <point x="409" y="565" type="curve" smooth="yes"/>
      <point x="409" y="565"/>
      <point x="118" y="568"/>
      <point x="107" y="561" type="curve" smooth="yes"/>
      <point x="95" y="555"/>
      <point x="82" y="473"/>
      <point x="81" y="472" type="curve" smooth="yes"/>
      <point x="81" y="469" type="line"/>
    </contour>
  </outline>
</glyph>
<glyph name="eight" format="2">
  <advance width="500"/>
  <unicode hex="0038"/>
  <outline>
    <contour>
      <point x="228" y="665" type="curve" smooth="yes"/>
      <point x="275" y="670"/>
      <point x="327" y="658"/>
      <point x="366" y="632" type="curve" smooth="yes"/>
      <point x="386" y="618"/>
      <point x="406" y="596"/>
      <point x="416" y="576" type="curve" smooth="yes"/>
      <point x="439" y="530"/>
      <point x="433" y="477"/>
      <point x="401" y="434" type="curve" smooth="yes"/>
      <point x="384" y="411"/>
      <point x="353" y="386"/>
      <point x="321" y="369" type="curve" smooth="yes"/>
      <point x="315" y="365"/>
      <point x="310" y="362"/>
      <point x="311" y="362" type="curve" smooth="yes"/>
      <point x="311" y="362"/>
      <point x="326" y="352"/>
      <point x="345" y="340" type="curve" smooth="yes"/>
      <point x="363" y="328"/>
      <point x="382" y="316"/>
      <point x="387" y="312" type="curve" smooth="yes"/>
      <point x="429" y="277"/>
      <point x="454" y="228"/>
      <point x="457" y="176" type="curve" smooth="yes"/>
      <point x="458" y="145"/>
      <point x="452" y="117"/>
      <point x="438" y="89" type="curve" smooth="yes"/>
      <point x="418" y="49"/>
      <point x="388" y="20"/>
      <point x="346" y="0" type="curve" smooth="yes"/>
      <point x="325" y="-10"/>
      <point x="305" y="-16"/>
      <point x="280" y="-20" type="curve" smooth="yes"/>
      <point x="267" y="-22"/>
      <point x="229" y="-22"/>
      <point x="215" y="-20" type="curve" smooth="yes"/>
      <point x="190" y="-16"/>
      <point x="165" y="-8"/>
      <point x="143" y="2" type="curve" smooth="yes"/>
      <point x="90" y="28"/>
      <point x="56" y="69"/>
      <point x="45" y="121" type="curve" smooth="yes"/>
      <point x="42" y="136"/>
      <point x="42" y="165"/>
      <point x="45" y="181" type="curve" smooth="yes"/>
      <point x="53" y="223"/>
      <point x="77" y="260"/>
      <point x="116" y="292" type="curve" smooth="yes"/>
      <point x="129" y="302"/>
      <point x="153" y="318"/>
      <point x="170" y="327" type="curve" smooth="yes"/>
      <point x="178" y="331"/>
      <point x="185" y="335"/>
      <point x="185" y="335" type="curve"/>
      <point x="185" y="335"/>
      <point x="174" y="343"/>
      <point x="161" y="351" type="curve" smooth="yes"/>
      <point x="128" y="372"/>
      <point x="115" y="384"/>
      <point x="100" y="404" type="curve" smooth="yes"/>
      <point x="93" y="414"/>
      <point x="82" y="434"/>
      <point x="78" y="447" type="curve" smooth="yes"/>
      <point x="54" y="516"/>
      <point x="80" y="592"/>
      <point x="144" y="634" type="curve" smooth="yes"/>
      <point x="167" y="650"/>
      <point x="200" y="662"/>
    </contour>
    <contour>
      <point x="276" y="638" type="curve" smooth="yes"/>
      <point x="266" y="639"/>
      <point x="240" y="640"/>
      <point x="230" y="639" type="curve" smooth="yes"/>
      <point x="158" y="630"/>
      <point x="111" y="586"/>
      <point x="114" y="532" type="curve" smooth="yes"/>
      <point x="115" y="521"/>
      <point x="117" y="512"/>
      <point x="122" y="502" type="curve" smooth="yes"/>
      <point x="131" y="485"/>
      <point x="143" y="471"/>
      <point x="162" y="458" type="curve" smooth="yes"/>
      <point x="168" y="454"/>
      <point x="199" y="434"/>
      <point x="230" y="414" type="curve" smooth="yes"/>
      <point x="286" y="378" type="line"/>
      <point x="289" y="379" type="line" smooth="yes"/>
      <point x="291" y="380"/>
      <point x="297" y="385"/>
      <point x="304" y="389" type="curve" smooth="yes"/>
      <point x="359" y="425"/>
      <point x="388" y="473"/>
      <point x="385" y="524" type="curve" smooth="yes"/>
      <point x="383" y="553"/>
      <point x="372" y="577"/>
      <point x="350" y="599" type="curve" smooth="yes"/>
      <point x="330" y="619"/>
      <point x="305" y="632"/>
    </contour>
    <contour>
      <point x="280" y="274" type="curve" smooth="yes"/>
      <point x="242" y="299"/>
      <point x="211" y="319"/>
      <point x="210" y="319" type="curve" smooth="yes"/>
      <point x="209" y="319"/>
      <point x="195" y="311"/>
      <point x="185" y="305" type="curve" smooth="yes"/>
      <point x="136" y="272"/>
      <point x="104" y="227"/>
      <point x="95" y="179" type="curve" smooth="yes"/>
      <point x="93" y="164"/>
      <point x="93" y="137"/>
      <point x="96" y="123" type="curve" smooth="yes"/>
      <point x="101" y="97"/>
      <point x="114" y="74"/>
      <point x="134" y="55" type="curve" smooth="yes"/>
      <point x="168" y="19"/>
      <point x="217" y="3"/>
      <point x="269" y="8" type="curve" smooth="yes"/>
      <point x="361" y="18"/>
      <point x="421" y="85"/>
      <point x="403" y="158" type="curve" smooth="yes"/>
      <point x="396" y="182"/>
      <point x="379" y="208"/>
      <point x="357" y="224" type="curve" smooth="yes"/>
      <point x="353" y="227"/>
      <point x="318" y="250"/>
    </contour>
  </outline>
</glyph>
<glyph name="nine" format="2">
  <advance width="499"/>
  <unicode hex="0039"/>
  <outline>
    <contour>
      <point x="233.382" y="666.229" type="curve" smooth="yes"/>
      <point x="244.364" y="667.186"/>
      <point x="264.169" y="667.062"/>
      <point x="273.121" y="665.979" type="curve" smooth="yes"/>
      <point x="304.624" y="662.174"/>
      <point x="336.255" y="648.355"/>
      <point x="361.271" y="627.471" type="curve" smooth="yes"/>
      <point x="370.665" y="619.629"/>
      <point x="384.521" y="605.146"/>
      <point x="391.357" y="596.026" type="curve" smooth="yes"/>
      <point x="418.385" y="559.966"/>
      <point x="439.222" y="506.214"/>
      <point x="448.691" y="448.121" type="curve" smooth="yes"/>
      <point x="454.978" y="409.562"/>
      <point x="456.946" y="381.575"/>
      <point x="456.979" y="330.347" type="curve" smooth="yes"/>
      <point x="457.005" y="291.04"/>
      <point x="456.42" y="280.788"/>
      <point x="452.65" y="254.479" type="curve" smooth="yes"/>
      <point x="433.387" y="120.015"/>
      <point x="356.471" y="13.2246"/>
      <point x="258.599" y="-14.9404" type="curve" smooth="yes"/>
      <point x="239.107" y="-20.5498"/>
      <point x="222.037" y="-22.6396"/>
      <point x="200.867" y="-22.0088" type="curve" smooth="yes"/>
      <point x="178.974" y="-21.3564"/>
      <point x="163.313" y="-18.7568"/>
      <point x="145.665" y="-12.8457" type="curve" smooth="yes"/>
      <point x="103.035" y="1.43359"/>
      <point x="76.7568" y="30.2861"/>
      <point x="68.5537" y="71.8213" type="curve" smooth="yes"/>
      <point x="66.1855" y="83.8154"/>
      <point x="66.1748" y="102.886"/>
      <point x="68.5332" y="111.055" type="curve" smooth="yes"/>
      <point x="71.2227" y="120.376"/>
      <point x="74.6699" y="126.188"/>
      <point x="81.6475" y="133.165" type="curve" smooth="yes"/>
      <point x="92.1611" y="143.678"/>
      <point x="103.685" y="148.266"/>
      <point x="119.581" y="148.266" type="curve" smooth="yes"/>
      <point x="135.477" y="148.266"/>
      <point x="147.001" y="143.678"/>
      <point x="157.515" y="133.165" type="curve" smooth="yes"/>
      <point x="164.492" y="126.188"/>
      <point x="167.942" y="120.376"/>
      <point x="170.644" y="111.055" type="curve" smooth="yes"/>
      <point x="173.03" y="102.818"/>
      <point x="173.053" y="88.2568"/>
      <point x="170.692" y="80.0576" type="curve" smooth="yes"/>
      <point x="168.009" y="70.7373"/>
      <point x="164.555" y="64.9062"/>
      <point x="157.55" y="57.876" type="curve" smooth="yes"/>
      <point x="150.618" y="50.918"/>
      <point x="143.642" y="46.8838"/>
      <point x="134.465" y="44.5264" type="curve" smooth="yes"/>
      <point x="131.647" y="43.8018"/>
      <point x="129.44" y="42.8828"/>
      <point x="129.569" y="42.4854" type="curve" smooth="yes"/>
      <point x="130.478" y="39.6797"/>
      <point x="147.254" y="30.4785"/>
      <point x="157.948" y="26.9219" type="curve" smooth="yes"/>
      <point x="181.214" y="19.1836"/>
      <point x="212.703" y="17.5527"/>
      <point x="234.104" y="22.9775" type="curve" smooth="yes"/>
      <point x="264.292" y="30.6299"/>
      <point x="291.625" y="51.2285"/>
      <point x="312.146" y="81.792" type="curve" smooth="yes"/>
      <point x="334.845" y="115.596"/>
      <point x="346.73" y="159.537"/>
      <point x="351.137" y="225.939" type="curve" smooth="yes"/>
      <point x="351.899" y="237.428"/>
      <point x="353.29" y="273.697"/>
      <point x="353.312" y="282.659" type="curve" smooth="yes"/>
      <point x="353.323" y="287.283" type="line"/>
      <point x="349.619" y="281.069" type="line" smooth="yes"/>
      <point x="341.133" y="266.835"/>
      <point x="326.734" y="249.936"/>
      <point x="314.668" y="240.045" type="curve" smooth="yes"/>
      <point x="295.569" y="224.391"/>
      <point x="273.121" y="214.903"/>
      <point x="247.832" y="211.799" type="curve" smooth="yes"/>
      <point x="239.2" y="210.738"/>
      <point x="216.329" y="211.374"/>
      <point x="205.925" y="212.962" type="curve" smooth="yes"/>
      <point x="176.518" y="217.452"/>
      <point x="151.765" y="228.367"/>
      <point x="128.974" y="246.895" type="curve" smooth="yes"/>
      <point x="120.029" y="254.166"/>
      <point x="102.287" y="272.471"/>
      <point x="93.2588" y="283.743" type="curve" smooth="yes"/>
      <point x="63.4395" y="320.973"/>
      <point x="48.2441" y="357.948"/>
      <point x="43.2256" y="405.491" type="curve" smooth="yes"/>
      <point x="41.7617" y="419.364"/>
      <point x="41.9824" y="459.456"/>
      <point x="43.5957" y="472.688" type="curve" smooth="yes"/>
      <point x="46.874" y="499.566"/>
      <point x="52.8447" y="520.353"/>
      <point x="63.625" y="542.413" type="curve" smooth="yes"/>
      <point x="80.75" y="577.457"/>
      <point x="113.656" y="614.743"/>
      <point x="147.037" y="636.928" type="curve" smooth="yes"/>
      <point x="171.977" y="653.502"/>
      <point x="201.229" y="663.429"/>
    </contour>
    <contour>
      <point x="266.979" y="626.961" type="curve" smooth="yes"/>
      <point x="246.821" y="630.253"/>
      <point x="218.832" y="625.561"/>
      <point x="201.807" y="616.033" type="curve" smooth="yes"/>
      <point x="191.797" y="610.433"/>
      <point x="180.696" y="600.578"/>
      <point x="172.92" y="590.391" type="curve" smooth="yes"/>
      <point x="150.188" y="560.608"/>
      <point x="145.233" y="529.407"/>
      <point x="146.197" y="422.109" type="curve" smooth="yes"/>
      <point x="146.702" y="365.968"/>
      <point x="147.838" y="347.498"/>
      <point x="152.156" y="325.217" type="curve" smooth="yes"/>
      <point x="156.372" y="303.468"/>
      <point x="164.64" y="287.73"/>
      <point x="179.864" y="272.471" type="curve" smooth="yes"/>
      <point x="187.735" y="264.582"/>
      <point x="192.702" y="260.896"/>
      <point x="200.867" y="256.887" type="curve" smooth="yes"/>
      <point x="222.883" y="246.074"/>
      <point x="255.274" y="245.07"/>
      <point x="277.457" y="254.513" type="curve" smooth="yes"/>
      <point x="319.151" y="272.262"/>
      <point x="345.671" y="324.855"/>
      <point x="351.218" y="400.795" type="curve" smooth="yes"/>
      <point x="352.951" y="424.541"/>
      <point x="351.24" y="484.249"/>
      <point x="347.873" y="517.485" type="curve" smooth="yes"/>
      <point x="344.718" y="548.627"/>
      <point x="339.576" y="565.479"/>
      <point x="327.656" y="583.743" type="curve" smooth="yes"/>
      <point x="311.67" y="608.237"/>
      <point x="290.856" y="623.062"/>
    </contour>
  </outline>
</glyph>
<glyph name="colon" format="2">
  <advance width="278"/>
  <unicode hex="003A"/>
  <outline>
    <contour>
      <point x="87" y="66" type="curve" smooth="yes"/>
      <point x="91" y="85"/>
      <point x="107" y="101"/>
      <point x="126" y="105" type="curve" smooth="yes"/>
      <point x="164" y="115"/>
      <point x="200" y="80"/>
      <point x="190" y="41" type="curve" smooth="yes"/>
      <point x="186" y="22"/>
      <point x="170" y="6"/>
      <point x="151" y="2" type="curve" smooth="yes"/>
      <point x="112" y="-8"/>
      <point x="77" y="27"/>
    </contour>
    <contour>
      <point x="87" y="390" type="curve" smooth="yes"/>
      <point x="91" y="409"/>
      <point x="107" y="425"/>
      <point x="126" y="429" type="curve" smooth="yes"/>
      <point x="164" y="439"/>
      <point x="200" y="404"/>
      <point x="190" y="365" type="curve" smooth="yes"/>
      <point x="186" y="346"/>
      <point x="170" y="330"/>
      <point x="151" y="326" type="curve" smooth="yes"/>
      <point x="112" y="316"/>
      <point x="77" y="351"/>
    </contour>
  </outline>
</glyph>
<glyph name="semicolon" format="2">
  <advance width="277"/>
  <unicode hex="003B"/>
  <outline>
    <contour>
      <point x="129.335" y="112.357" type="curve" smooth="yes"/>
      <point x="133.567" y="113.067"/>
      <point x="145.231" y="112.746"/>
      <point x="149.711" y="111.796" type="curve" smooth="yes"/>
      <point x="163.729" y="108.823"/>
      <point x="176.386" y="100.239"/>
      <point x="184.897" y="87.9336" type="curve" smooth="yes"/>
      <point x="195.977" y="71.915"/>
      <point x="202.827" y="49.9277"/>
      <point x="205.27" y="22.543" type="curve" smooth="yes"/>
      <point x="206.325" y="10.6992"/>
      <point x="205.764" y="-13.7285"/>
      <point x="204.14" y="-26.5898" type="curve" smooth="yes"/>
      <point x="196.475" y="-87.2832"/>
      <point x="170.064" y="-142.131"/>
      <point x="127.877" y="-184.971" type="curve" smooth="yes"/>
      <point x="119.125" y="-193.858"/>
      <point x="116.935" y="-195.109"/>
      <point x="112.211" y="-193.918" type="curve" smooth="yes"/>
      <point x="109.515" y="-193.237"/>
      <point x="99.2051" y="-183.021"/>
      <point x="98.2266" y="-180.058" type="curve" smooth="yes"/>
      <point x="96.7568" y="-175.609"/>
      <point x="97.8623" y="-173.555"/>
      <point x="106.542" y="-164.596" type="curve" smooth="yes"/>
      <point x="126.209" y="-144.297"/>
      <point x="139.912" y="-124.928"/>
      <point x="151.782" y="-100.65" type="curve" smooth="yes"/>
      <point x="167.733" y="-68.0273"/>
      <point x="176.301" y="-31.1416"/>
      <point x="176.301" y="4.91309" type="curve" smooth="yes"/>
      <point x="176.301" y="13.1504" type="line"/>
      <point x="172.904" y="10.7275" type="line" smooth="yes"/>
      <point x="167.852" y="7.12305"/>
      <point x="161.271" y="3.99219"/>
      <point x="154.841" y="2.13184" type="curve" smooth="yes"/>
      <point x="146.678" y="-0.229492"/>
      <point x="130.708" y="-0.21582"/>
      <point x="122.471" y="2.16113" type="curve" smooth="yes"/>
      <point x="98.2207" y="9.15625"/>
      <point x="82.3701" y="30.6357"/>
      <point x="82.3701" y="56.5029" type="curve" smooth="yes"/>
      <point x="82.3701" y="84.8984"/>
      <point x="101.538" y="107.694"/>
    </contour>
    <contour>
      <point x="125.289" y="429.036" type="curve" smooth="yes"/>
      <point x="130.893" y="430.522"/>
      <point x="133.093" y="430.737"/>
      <point x="140.174" y="430.49" type="curve" smooth="yes"/>
      <point x="149.783" y="430.153"/>
      <point x="154.841" y="428.949"/>
      <point x="162.934" y="425.071" type="curve" smooth="yes"/>
      <point x="174.783" y="419.392"/>
      <point x="183.179" y="411.102"/>
      <point x="188.981" y="399.35" type="curve" smooth="yes"/>
      <point x="193.633" y="389.93"/>
      <point x="194.726" y="385.188"/>
      <point x="194.726" y="374.422" type="curve" smooth="yes"/>
      <point x="194.726" y="364.018"/>
      <point x="193.634" y="359.069"/>
      <point x="189.387" y="350.217" type="curve" smooth="yes"/>
      <point x="183.701" y="338.367"/>
      <point x="175.408" y="329.972"/>
      <point x="163.656" y="324.169" type="curve" smooth="yes"/>
      <point x="154.236" y="319.518"/>
      <point x="149.494" y="318.425"/>
      <point x="138.729" y="318.425" type="curve" smooth="yes"/>
      <point x="127.963" y="318.425"/>
      <point x="123.221" y="319.518"/>
      <point x="113.801" y="324.169" type="curve" smooth="yes"/>
      <point x="102.049" y="329.972"/>
      <point x="93.752" y="338.367"/>
      <point x="88.0596" y="350.217" type="curve" smooth="yes"/>
      <point x="84.3506" y="357.937"/>
      <point x="83.0146" y="363.223"/>
      <point x="82.5459" y="372.037" type="curve" smooth="yes"/>
      <point x="82.2266" y="378.035"/>
      <point x="82.4512" y="380.699"/>
      <point x="83.7549" y="386.344" type="curve" smooth="yes"/>
      <point x="88.6768" y="407.659"/>
      <point x="103.974" y="423.383"/>
    </contour>
  </outline>
</glyph>
<glyph name="less" format="2">
  <advance width="778"/>
  <unicode hex="003C"/>
  <outline>
    <contour>
      <point x="382" y="404" type="curve" smooth="yes"/>
      <point x="698" y="553"/>
      <point x="674" y="543"/>
      <point x="683" y="538" type="curve" smooth="yes"/>
      <point x="696" y="531"/>
      <point x="698" y="513"/>
      <point x="687" y="505" type="curve" smooth="yes"/>
      <point x="685" y="503"/>
      <point x="564" y="446"/>
      <point x="417" y="376" type="curve" smooth="yes"/>
      <point x="271" y="307"/>
      <point x="151" y="250"/>
      <point x="151" y="250" type="curve"/>
      <point x="151" y="250"/>
      <point x="271" y="193"/>
      <point x="417" y="124" type="curve" smooth="yes"/>
      <point x="564" y="54"/>
      <point x="685" y="-3"/>
      <point x="687" y="-5" type="curve" smooth="yes"/>
      <point x="698" y="-13"/>
      <point x="696" y="-31"/>
      <point x="683" y="-38" type="curve" smooth="yes"/>
      <point x="674" y="-43"/>
      <point x="698" y="-53"/>
      <point x="382" y="96" type="curve" smooth="yes"/>
      <point x="223" y="171"/>
      <point x="92" y="233"/>
      <point x="90" y="235" type="curve" smooth="yes"/>
      <point x="86" y="238"/>
      <point x="83" y="244"/>
      <point x="83" y="250" type="curve" smooth="yes"/>
      <point x="83" y="256"/>
      <point x="86" y="263"/>
      <point x="91" y="266" type="curve" smooth="yes"/>
      <point x="93" y="267"/>
      <point x="224" y="329"/>
    </contour>
  </outline>
</glyph>
<glyph name="equal" format="2">
  <advance width="777"/>
  <unicode hex="003D"/>
  <outline>
    <contour>
      <point x="68.5693" y="170.384" type="curve" smooth="yes"/>
      <point x="70.6865" y="171.142"/>
      <point x="130.419" y="171.288"/>
      <point x="389.451" y="171.171" type="curve" smooth="yes"/>
      <point x="702.674" y="171.028"/>
      <point x="707.776" y="171.004"/>
      <point x="710.549" y="169.633" type="curve" smooth="yes"/>
      <point x="717.257" y="166.316"/>
      <point x="720.737" y="160.621"/>
      <point x="720.737" y="152.963" type="curve" smooth="yes"/>
      <point x="720.737" y="145.304"/>
      <point x="717.257" y="139.608"/>
      <point x="710.549" y="136.292" type="curve" smooth="yes"/>
      <point x="707.774" y="134.92"/>
      <point x="702.818" y="134.898"/>
      <point x="388.367" y="134.898" type="curve" smooth="yes"/>
      <point x="73.916" y="134.898"/>
      <point x="68.96" y="134.921"/>
      <point x="66.1846" y="136.308" type="curve" smooth="yes"/>
      <point x="60.2607" y="139.27"/>
      <point x="56.3779" y="145.015"/>
      <point x="55.8057" y="151.662" type="curve" smooth="yes"/>
      <point x="55.0771" y="160.126"/>
      <point x="59.9707" y="167.305"/>
    </contour>
    <contour>
      <point x="68.2803" y="364.833" type="curve" smooth="yes"/>
      <point x="69.9316" y="365.478"/>
      <point x="146.388" y="365.645"/>
      <point x="389.09" y="365.535" type="curve" smooth="yes"/>
      <point x="702.674" y="365.393"/>
      <point x="707.776" y="365.368"/>
      <point x="710.549" y="363.997" type="curve" smooth="yes"/>
      <point x="717.257" y="360.681"/>
      <point x="720.737" y="354.985"/>
      <point x="720.737" y="347.326" type="curve" smooth="yes"/>
      <point x="720.737" y="339.668"/>
      <point x="717.257" y="333.973"/>
      <point x="710.549" y="330.656" type="curve" smooth="yes"/>
      <point x="707.774" y="329.284"/>
      <point x="702.818" y="329.263"/>
      <point x="388.367" y="329.263" type="curve" smooth="yes"/>
      <point x="69.0029" y="329.263" type="line"/>
      <point x="65.1738" y="331.374" type="line" smooth="yes"/>
      <point x="59.3096" y="334.607"/>
      <point x="55.6357" y="340.751"/>
      <point x="55.6357" y="347.326" type="curve" smooth="yes"/>
      <point x="55.6357" y="355.086"/>
      <point x="60.4766" y="361.788"/>
    </contour>
  </outline>
</glyph>
<glyph name="greater" format="2">
  <advance width="778"/>
  <unicode hex="003E"/>
  <outline>
    <contour>
      <point x="89" y="529" type="curve" smooth="yes"/>
      <point x="90" y="530"/>
      <point x="93" y="531"/>
      <point x="94" y="531" type="curve" smooth="yes"/>
      <point x="96" y="531"/>
      <point x="681" y="264"/>
      <point x="689" y="259" type="curve" smooth="yes"/>
      <point x="696" y="255"/>
      <point x="696" y="245"/>
      <point x="689" y="241" type="curve" smooth="yes"/>
      <point x="682" y="236"/>
      <point x="97" y="-31"/>
      <point x="94" y="-31" type="curve" smooth="yes"/>
      <point x="86" y="-31"/>
      <point x="80" y="-21"/>
      <point x="85" y="-13" type="curve" smooth="yes"/>
      <point x="86" y="-11"/>
      <point x="121" y="5"/>
      <point x="370" y="120" type="curve" smooth="yes"/>
      <point x="526" y="191"/>
      <point x="654" y="250"/>
      <point x="654" y="250" type="curve"/>
      <point x="654" y="250"/>
      <point x="526" y="309"/>
      <point x="370" y="380" type="curve" smooth="yes"/>
      <point x="121" y="495"/>
      <point x="86" y="511"/>
      <point x="85" y="513" type="curve" smooth="yes"/>
      <point x="81" y="519"/>
      <point x="83" y="526"/>
    </contour>
  </outline>
</glyph>
<glyph name="question" format="2">
  <advance width="472"/>
  <unicode hex="003F"/>
  <outline>
    <contour>
      <point x="213.15" y="119.669" type="curve" smooth="yes"/>
      <point x="217.541" y="120.518"/>
      <point x="232.37" y="119.491"/>
      <point x="237.645" y="117.973" type="curve" smooth="yes"/>
      <point x="253.901" y="113.293"/>
      <point x="267.218" y="102.41"/>
      <point x="274.929" y="87.5" type="curve" smooth="yes"/>
      <point x="280.003" y="77.6875"/>
      <point x="281.431" y="71.6768"/>
      <point x="281.431" y="60.1152" type="curve" smooth="yes"/>
      <point x="281.431" y="48.5547"/>
      <point x="280.007" y="42.5439"/>
      <point x="274.944" y="32.7314" type="curve" smooth="yes"/>
      <point x="268.943" y="21.0986"/>
      <point x="260.838" y="12.9932"/>
      <point x="249.205" y="6.99219" type="curve" smooth="yes"/>
      <point x="239.393" y="1.92969"/>
      <point x="233.382" y="0.505859"/>
      <point x="221.821" y="0.505859" type="curve" smooth="yes"/>
      <point x="210.26" y="0.505859"/>
      <point x="204.249" y="1.93262"/>
      <point x="194.437" y="7.00781" type="curve" smooth="yes"/>
      <point x="179.409" y="14.7793"/>
      <point x="168.64" y="28.0352"/>
      <point x="163.85" y="44.6533" type="curve" smooth="yes"/>
      <point x="161.476" y="52.8906"/>
      <point x="161.486" y="67.3408"/>
      <point x="163.873" y="75.5781" type="curve" smooth="yes"/>
      <point x="166.009" y="82.9482"/>
      <point x="170.945" y="92.4873"/>
      <point x="175.615" y="98.2656" type="curve" smooth="yes"/>
      <point x="184.225" y="108.92"/>
      <point x="197.904" y="116.72"/>
    </contour>
    <contour>
      <point x="205.925" y="704.912" type="curve" smooth="yes"/>
      <point x="211.603" y="705.443"/>
      <point x="251.518" y="704.722"/>
      <point x="259.393" y="703.945" type="curve" smooth="yes"/>
      <point x="301.229" y="699.821"/>
      <point x="333.271" y="689.566"/>
      <point x="360.404" y="671.619" type="curve" smooth="yes"/>
      <point x="371.893" y="664.02"/>
      <point x="386.277" y="649.744"/>
      <point x="393.691" y="638.584" type="curve" smooth="yes"/>
      <point x="422.683" y="594.942"/>
      <point x="422.676" y="538.754"/>
      <point x="393.674" y="495.376" type="curve" smooth="yes"/>
      <point x="388.166" y="487.139"/>
      <point x="375.671" y="473.531"/>
      <point x="369.003" y="468.509" type="curve" smooth="yes"/>
      <point x="366.937" y="466.952"/>
      <point x="360.693" y="462.296"/>
      <point x="355.13" y="458.16" type="curve" smooth="yes"/>
      <point x="299.998" y="417.178"/>
      <point x="262.644" y="364.451"/>
      <point x="248.252" y="307.298" type="curve" smooth="yes"/>
      <point x="243.079" y="286.753"/>
      <point x="242.589" y="281.431"/>
      <point x="242.115" y="240.607" type="curve" smooth="yes"/>
      <point x="241.703" y="205.058"/>
      <point x="241.646" y="203.914"/>
      <point x="240.201" y="201.951" type="curve" smooth="yes"/>
      <point x="237.272" y="197.974"/>
      <point x="234.971" y="197.398"/>
      <point x="221.965" y="197.398" type="curve" smooth="yes"/>
      <point x="208.671" y="197.398"/>
      <point x="206.119" y="198.026"/>
      <point x="203.768" y="201.879" type="curve" smooth="yes"/>
      <point x="202.359" y="204.186"/>
      <point x="202.312" y="205.419"/>
      <point x="202.312" y="240.029" type="curve" smooth="yes"/>
      <point x="202.312" y="259.682"/>
      <point x="202.643" y="279.701"/>
      <point x="203.046" y="284.465" type="curve" smooth="yes"/>
      <point x="205.631" y="315.029"/>
      <point x="210.996" y="341.344"/>
      <point x="220.355" y="369.364" type="curve" smooth="yes"/>
      <point x="234.884" y="412.861"/>
      <point x="256.88" y="451.412"/>
      <point x="285.206" y="483.021" type="curve" smooth="yes"/>
      <point x="300.163" y="499.711"/>
      <point x="303.695" y="504.699"/>
      <point x="308.638" y="516.112" type="curve" smooth="yes"/>
      <point x="312.127" y="524.17"/>
      <point x="314.617" y="533.165"/>
      <point x="316.32" y="543.858" type="curve" smooth="yes"/>
      <point x="318.119" y="555.157"/>
      <point x="318.07" y="594.653"/>
      <point x="316.241" y="607.804" type="curve" smooth="yes"/>
      <point x="313.537" y="627.24"/>
      <point x="309.551" y="637.198"/>
      <point x="301.084" y="645.665" type="curve" smooth="yes"/>
      <point x="286.372" y="660.377"/>
      <point x="265.174" y="667.16"/>
      <point x="230.491" y="668.252" type="curve" smooth="yes"/>
      <point x="215.174" y="668.735"/>
      <point x="203.496" y="667.844"/>
      <point x="190.029" y="665.166" type="curve" smooth="yes"/>
      <point x="161.199" y="659.433"/>
      <point x="135.285" y="645.199"/>
      <point x="117.954" y="625.578" type="curve" smooth="yes"/>
      <point x="112.852" y="619.801"/>
      <point x="112.428" y="620.495"/>
      <point x="122.398" y="618.295" type="curve" smooth="yes"/>
      <point x="129.118" y="616.812"/>
      <point x="137.442" y="612.786"/>
      <point x="143.208" y="608.23" type="curve" smooth="yes"/>
      <point x="151.035" y="602.046"/>
      <point x="157.312" y="592.124"/>
      <point x="160.164" y="581.431" type="curve" smooth="yes"/>
      <point x="162.033" y="574.422"/>
      <point x="162.034" y="559.537"/>
      <point x="160.167" y="552.529" type="curve" smooth="yes"/>
      <point x="155.308" y="534.29"/>
      <point x="142.341" y="521.187"/>
      <point x="123.916" y="515.895" type="curve" smooth="yes"/>
      <point x="119.203" y="514.541"/>
      <point x="116.401" y="514.234"/>
      <point x="108.743" y="514.234" type="curve" smooth="yes"/>
      <point x="97.9766" y="514.234"/>
      <point x="91.2471" y="515.759"/>
      <point x="83.0928" y="520.043" type="curve" smooth="yes"/>
      <point x="66.0566" y="528.995"/>
      <point x="56.7969" y="544.075"/>
      <point x="55.8242" y="564.451" type="curve" smooth="yes"/>
      <point x="54.6816" y="588.367"/>
      <point x="62.3066" y="613.95"/>
      <point x="77.167" y="636.055" type="curve" smooth="yes"/>
      <point x="102.829" y="674.229"/>
      <point x="150.506" y="699.726"/>
    </contour>
  </outline>
</glyph>
<glyph name="at" format="2">
  <advance width="777"/>
  <unicode hex="0040"/>
  <outline>
    <contour>
      <point x="369.581" y="704.893" type="curve" smooth="yes"/>
      <point x="377.913" y="705.538"/>
      <point x="412.717" y="704.638"/>
      <point x="422.326" y="703.527" type="curve" smooth="yes"/>
      <point x="480.853" y="696.765"/>
      <point x="536.761" y="673.634"/>
      <point x="584.537" y="636.415" type="curve" smooth="yes"/>
      <point x="642.842" y="590.996"/>
      <point x="686.878" y="523.844"/>
      <point x="707.35" y="449.133" type="curve" smooth="yes"/>
      <point x="716.37" y="416.215"/>
      <point x="720.213" y="388.873"/>
      <point x="720.897" y="352.746" type="curve" smooth="yes"/>
      <point x="721.69" y="310.838"/>
      <point x="718.302" y="266.28"/>
      <point x="712.033" y="236.199" type="curve" smooth="yes"/>
      <point x="699.009" y="173.699"/>
      <point x="673.245" y="138.643"/>
      <point x="632.442" y="127.896" type="curve" smooth="yes"/>
      <point x="624.249" y="125.738"/>
      <point x="623.338" y="125.648"/>
      <point x="609.104" y="125.591" type="curve" smooth="yes"/>
      <point x="592.124" y="125.522"/>
      <point x="584.272" y="126.71"/>
      <point x="569.437" y="131.589" type="curve" smooth="yes"/>
      <point x="543.063" y="140.263"/>
      <point x="522.527" y="157.068"/>
      <point x="511.975" y="178.612" type="curve" smooth="yes"/>
      <point x="509.321" y="184.032" type="line"/>
      <point x="499.422" y="174.226" type="line" smooth="yes"/>
      <point x="484.304" y="159.248"/>
      <point x="471.677" y="150.031"/>
      <point x="454.479" y="141.419" type="curve" smooth="yes"/>
      <point x="439.682" y="134.008"/>
      <point x="424.711" y="129.131"/>
      <point x="408.599" y="126.472" type="curve" smooth="yes"/>
      <point x="399.825" y="125.023"/>
      <point x="373.771" y="125.212"/>
      <point x="363.439" y="126.799" type="curve" smooth="yes"/>
      <point x="343.353" y="129.883"/>
      <point x="326.469" y="135.263"/>
      <point x="307.442" y="144.643" type="curve" smooth="yes"/>
      <point x="286.416" y="155.008"/>
      <point x="271.455" y="165.745"/>
      <point x="254.624" y="182.551" type="curve" smooth="yes"/>
      <point x="238.548" y="198.604"/>
      <point x="225.61" y="216.401"/>
      <point x="215.156" y="236.85" type="curve" smooth="yes"/>
      <point x="201.992" y="262.599"/>
      <point x="194.423" y="287.066"/>
      <point x="190.255" y="317.341" type="curve" smooth="yes"/>
      <point x="188.504" y="330.058"/>
      <point x="188.504" y="364.596"/>
      <point x="190.255" y="377.312" type="curve" smooth="yes"/>
      <point x="194.423" y="407.587"/>
      <point x="201.992" y="432.055"/>
      <point x="215.156" y="457.804" type="curve" smooth="yes"/>
      <point x="225.61" y="478.251"/>
      <point x="238.548" y="496.05"/>
      <point x="254.624" y="512.103" type="curve" smooth="yes"/>
      <point x="271.455" y="528.908"/>
      <point x="286.416" y="539.646"/>
      <point x="307.442" y="550.011" type="curve" smooth="yes"/>
      <point x="326.469" y="559.391"/>
      <point x="343.353" y="564.771"/>
      <point x="363.439" y="567.854" type="curve" smooth="yes"/>
      <point x="373.771" y="569.44"/>
      <point x="399.825" y="569.63"/>
      <point x="408.599" y="568.182" type="curve" smooth="yes"/>
      <point x="417.413" y="566.728"/>
      <point x="430.92" y="563.192"/>
      <point x="438.584" y="560.335" type="curve" smooth="yes"/>
      <point x="453.179" y="554.893"/>
      <point x="471.611" y="544.394"/>
      <point x="484.393" y="534.241" type="curve" smooth="yes"/>
      <point x="498.643" y="522.924"/>
      <point x="515.459" y="504.118"/>
      <point x="525.998" y="487.717" type="curve" smooth="yes"/>
      <point x="531.431" y="479.263" type="line"/>
      <point x="556.358" y="479.229" type="line" smooth="yes"/>
      <point x="584.321" y="479.191"/>
      <point x="584.479" y="479.164"/>
      <point x="586.956" y="473.916" type="curve" smooth="yes"/>
      <point x="588.059" y="471.582"/>
      <point x="588.15" y="461.163"/>
      <point x="588.15" y="338.909" type="curve" smooth="yes"/>
      <point x="588.15" y="246.785"/>
      <point x="588.393" y="204.45"/>
      <point x="588.946" y="199.928" type="curve" smooth="yes"/>
      <point x="591.166" y="181.792"/>
      <point x="597.689" y="168.905"/>
      <point x="607.081" y="164.102" type="curve" smooth="yes"/>
      <point x="616.849" y="159.104"/>
      <point x="637.934" y="163.743"/>
      <point x="648.699" y="173.258" type="curve" smooth="yes"/>
      <point x="665.514" y="188.117"/>
      <point x="675.311" y="217.485"/>
      <point x="679.167" y="264.596" type="curve" smooth="yes"/>
      <point x="681.267" y="290.246"/>
      <point x="682.076" y="348.407"/>
      <point x="680.624" y="369.364" type="curve" smooth="yes"/>
      <point x="677.381" y="416.185"/>
      <point x="666.34" y="458.553"/>
      <point x="647.012" y="498.338" type="curve" smooth="yes"/>
      <point x="604.032" y="586.808"/>
      <point x="523.844" y="649.284"/>
      <point x="433.888" y="664.388" type="curve" smooth="yes"/>
      <point x="415.677" y="667.445"/>
      <point x="408.021" y="668.063"/>
      <point x="388.367" y="668.063" type="curve" smooth="yes"/>
      <point x="368.714" y="668.063"/>
      <point x="361.058" y="667.445"/>
      <point x="342.847" y="664.388" type="curve" smooth="yes"/>
      <point x="252.891" y="649.284"/>
      <point x="172.708" y="586.808"/>
      <point x="129.739" y="498.338" type="curve" smooth="yes"/>
      <point x="97.3477" y="431.646"/>
      <point x="87.5488" y="354.552"/>
      <point x="101.959" y="279.769" type="curve" smooth="yes"/>
      <point x="125.251" y="158.888"/>
      <point x="211.527" y="62.8428"/>
      <point x="322.254" y="34.5303" type="curve" smooth="yes"/>
      <point x="332.218" y="31.9824"/>
      <point x="349.205" y="28.9316"/>
      <point x="360.91" y="27.5879" type="curve" smooth="yes"/>
      <point x="378.576" y="25.5605"/>
      <point x="415.174" y="26.0674"/>
      <point x="444.726" y="28.751" type="curve" smooth="yes"/>
      <point x="516.257" y="35.2451"/>
      <point x="583.369" y="52.584"/>
      <point x="648.266" y="81.3389" type="curve" smooth="yes"/>
      <point x="657.442" y="85.4043" type="line"/>
      <point x="685.477" y="85.4043" type="line" smooth="yes"/>
      <point x="711.271" y="85.4043"/>
      <point x="713.708" y="85.2998"/>
      <point x="715.968" y="84.0938" type="curve" smooth="yes"/>
      <point x="720.81" y="81.5098"/>
      <point x="722.415" y="74.7432"/>
      <point x="719.31" y="70.0146" type="curve" smooth="yes"/>
      <point x="716.446" y="65.6562"/>
      <point x="664.957" y="42.8574"/>
      <point x="631.142" y="30.9756" type="curve" smooth="yes"/>
      <point x="550.65" y="2.69238"/>
      <point x="461.67" y="-12.1885"/>
      <point x="383.31" y="-10.4707" type="curve" smooth="yes"/>
      <point x="356.72" y="-9.8877"/>
      <point x="338.764" y="-7.58105"/>
      <point x="314.523" y="-1.63477" type="curve" smooth="yes"/>
      <point x="248.482" y="14.5664"/>
      <point x="187.249" y="53.0293"/>
      <point x="142.021" y="106.72" type="curve" smooth="yes"/>
      <point x="94.6543" y="162.951"/>
      <point x="65.4014" y="233.093"/>
      <point x="57.3447" y="309.754" type="curve" smooth="yes"/>
      <point x="55.5225" y="327.096"/>
      <point x="55.5117" y="367.558"/>
      <point x="57.3252" y="384.898" type="curve" smooth="yes"/>
      <point x="61.2783" y="422.688"/>
      <point x="71.041" y="461.412"/>
      <point x="84.9434" y="494.437" type="curve" smooth="yes"/>
      <point x="90.083" y="506.647"/>
      <point x="101.798" y="529.886"/>
      <point x="108.035" y="540.246" type="curve" smooth="yes"/>
      <point x="143.535" y="599.205"/>
      <point x="191.593" y="643.973"/>
      <point x="250.361" y="672.825" type="curve" smooth="yes"/>
      <point x="288.056" y="691.332"/>
      <point x="325.867" y="701.502"/>
    </contour>
    <contour>
      <point x="401.951" y="531.578" type="curve" smooth="yes"/>
      <point x="397.398" y="532.176"/>
      <point x="391.063" y="532.627"/>
      <point x="387.789" y="532.588" type="curve" smooth="yes"/>
      <point x="353.261" y="532.172"/>
      <point x="320.898" y="507.298"/>
      <point x="298.387" y="463.873" type="curve" smooth="yes"/>
      <point x="285.467" y="438.949"/>
      <point x="277.968" y="413.006"/>
      <point x="274.098" y="379.841" type="curve" smooth="yes"/>
      <point x="272.327" y="364.668"/>
      <point x="272.327" y="329.985"/>
      <point x="274.098" y="314.812" type="curve" smooth="yes"/>
      <point x="277.968" y="281.647"/>
      <point x="285.472" y="255.704"/>
      <point x="298.401" y="230.78" type="curve" smooth="yes"/>
      <point x="318.419" y="192.196"/>
      <point x="346.389" y="168.011"/>
      <point x="376.662" y="163.108" type="curve" smooth="yes"/>
      <point x="385.082" y="161.745"/>
      <point x="391.618" y="161.744"/>
      <point x="402.023" y="163.105" type="curve" smooth="yes"/>
      <point x="440.655" y="168.159"/>
      <point x="476.105" y="195.376"/>
      <point x="499.958" y="238.295" type="curve" smooth="yes"/>
      <point x="504.335" y="246.171" type="line"/>
      <point x="504.335" y="347.326" type="line"/>
      <point x="504.335" y="448.482" type="line"/>
      <point x="499.958" y="456.358" type="line" smooth="yes"/>
      <point x="476.105" y="499.277"/>
      <point x="440.629" y="526.506"/>
    </contour>
  </outline>
</glyph>
<glyph name="A" format="2">
  <advance width="750"/>
  <unicode hex="0041"/>
  <outline>
    <contour>
      <point x="32" y="0" type="line"/>
      <point x="32" y="32" type="line"/>
      <point x="38" y="32" type="line" smooth="yes"/>
      <point x="65" y="32"/>
      <point x="116" y="39"/>
      <point x="139" y="85" type="curve" smooth="yes"/>
      <point x="139" y="86"/>
      <point x="352" y="702"/>
      <point x="357" y="711" type="curve" smooth="yes"/>
      <point x="358" y="712"/>
      <point x="361" y="714"/>
      <point x="362" y="714" type="curve" smooth="yes"/>
      <point x="365" y="716"/>
      <point x="368" y="716"/>
      <point x="376" y="716" type="curve" smooth="yes"/>
      <point x="386" y="716"/>
      <point x="386" y="716"/>
      <point x="395" y="707" type="curve"/>
      <point x="395" y="700"/>
      <point x="609" y="90"/>
      <point x="620" y="58" type="curve" smooth="yes"/>
      <point x="625" y="46"/>
      <point x="632" y="32"/>
      <point x="701" y="32" type="curve" smooth="yes"/>
      <point x="717" y="32" type="line"/>
      <point x="717" y="0" type="line"/>
      <point x="708" y="0" type="line"/>
      <point x="691" y="3"/>
      <point x="465" y="3"/>
      <point x="451" y="0" type="curve"/>
      <point x="441" y="0" type="line"/>
      <point x="441" y="32" type="line"/>
      <point x="459" y="32" type="line" smooth="yes"/>
      <point x="478" y="33"/>
      <point x="531" y="37"/>
      <point x="524" y="64" type="curve" smooth="yes"/>
      <point x="524" y="66"/>
      <point x="511" y="104"/>
      <point x="496" y="147" type="curve" smooth="yes"/>
      <point x="469" y="227" type="line"/>
      <point x="222" y="227" type="line"/>
      <point x="222" y="226"/>
      <point x="219" y="220"/>
      <point x="175" y="88" type="curve" smooth="yes"/>
      <point x="171" y="64"/>
      <point x="192" y="37"/>
      <point x="239" y="32" type="curve"/>
      <point x="249" y="32" type="line"/>
      <point x="249" y="0" type="line"/>
      <point x="241" y="0" type="line"/>
      <point x="230" y="3"/>
      <point x="49" y="3"/>
      <point x="39" y="0" type="curve"/>
    </contour>
    <contour>
      <point x="233" y="260" type="line"/>
      <point x="345" y="259" type="line"/>
      <point x="457" y="259" type="line"/>
      <point x="457" y="260"/>
      <point x="350" y="567"/>
      <point x="348" y="576" type="curve" smooth="yes"/>
      <point x="346" y="581"/>
      <point x="345" y="581"/>
      <point x="345" y="581" type="curve"/>
      <point x="344" y="579"/>
      <point x="319" y="507"/>
      <point x="289" y="419" type="curve" smooth="yes"/>
    </contour>
  </outline>
</glyph>
<glyph name="B" format="2">
  <advance width="708"/>
  <unicode hex="0042"/>
  <outline>
    <contour>
      <point x="35" y="667" type="line"/>
      <point x="35" y="683" type="line"/>
      <point x="232" y="683" type="line" smooth="yes"/>
      <point x="414" y="682"/>
      <point x="430" y="682"/>
      <point x="441" y="681" type="curve" smooth="yes"/>
      <point x="521" y="669"/>
      <point x="583" y="628"/>
      <point x="611" y="571" type="curve" smooth="yes"/>
      <point x="637" y="516"/>
      <point x="625" y="460"/>
      <point x="578" y="415" type="curve" smooth="yes"/>
      <point x="550" y="389"/>
      <point x="510" y="369"/>
      <point x="470" y="360" type="curve" smooth="yes"/>
      <point x="459" y="358"/>
      <point x="456" y="356"/>
      <point x="462" y="356" type="curve" smooth="yes"/>
      <point x="464" y="356"/>
      <point x="471" y="355"/>
      <point x="477" y="354" type="curve" smooth="yes"/>
      <point x="529" y="345"/>
      <point x="572" y="324"/>
      <point x="605" y="291" type="curve" smooth="yes"/>
      <point x="628" y="267"/>
      <point x="642" y="241"/>
      <point x="649" y="211" type="curve" smooth="yes"/>
      <point x="652" y="196"/>
      <point x="652" y="169"/>
      <point x="649" y="154" type="curve" smooth="yes"/>
      <point x="631" y="71"/>
      <point x="553" y="10"/>
      <point x="453" y="1" type="curve" smooth="yes"/>
      <point x="446" y="0"/>
      <point x="369" y="0"/>
      <point x="238" y="0" type="curve" smooth="yes"/>
      <point x="35" y="0" type="line"/>
      <point x="35" y="16" type="line"/>
      <point x="35" y="32" type="line"/>
      <point x="53" y="32" type="line" smooth="yes"/>
      <point x="72" y="32"/>
      <point x="99" y="33"/>
      <point x="109" y="35" type="curve" smooth="yes"/>
      <point x="125" y="38"/>
      <point x="132" y="43"/>
      <point x="136" y="55" type="curve" smooth="yes"/>
      <point x="138" y="61" type="line"/>
      <point x="138" y="341" type="line"/>
      <point x="138" y="622" type="line"/>
      <point x="136" y="628" type="line" smooth="yes"/>
      <point x="132" y="640"/>
      <point x="125" y="645"/>
      <point x="109" y="648" type="curve" smooth="yes"/>
      <point x="99" y="650"/>
      <point x="72" y="651"/>
      <point x="53" y="651" type="curve" smooth="yes"/>
      <point x="35" y="651" type="line"/>
    </contour>
    <contour>
      <point x="417" y="650" type="curve" smooth="yes"/>
      <point x="407" y="651"/>
      <point x="256" y="651"/>
      <point x="246" y="650" type="curve" smooth="yes"/>
      <point x="235" y="649"/>
      <point x="228" y="645"/>
      <point x="225" y="639" type="curve" smooth="yes"/>
      <point x="223" y="634" type="line"/>
      <point x="222" y="500" type="line"/>
      <point x="222" y="367" type="line"/>
      <point x="305" y="367" type="line" smooth="yes"/>
      <point x="374" y="367"/>
      <point x="389" y="367"/>
      <point x="398" y="369" type="curve" smooth="yes"/>
      <point x="475" y="380"/>
      <point x="531" y="449"/>
      <point x="525" y="524" type="curve" smooth="yes"/>
      <point x="522" y="561"/>
      <point x="508" y="592"/>
      <point x="484" y="615" type="curve" smooth="yes"/>
      <point x="465" y="634"/>
      <point x="442" y="646"/>
    </contour>
    <contour>
      <point x="428" y="343" type="curve" smooth="yes"/>
      <point x="422" y="344"/>
      <point x="380" y="344"/>
      <point x="320" y="344" type="curve" smooth="yes"/>
      <point x="222" y="344" type="line"/>
      <point x="222" y="197" type="line"/>
      <point x="223" y="49" type="line"/>
      <point x="225" y="44" type="line" smooth="yes"/>
      <point x="227" y="40"/>
      <point x="229" y="39"/>
      <point x="233" y="37" type="curve" smooth="yes"/>
      <point x="242" y="32"/>
      <point x="250" y="32"/>
      <point x="340" y="32" type="curve" smooth="yes"/>
      <point x="420" y="33"/>
      <point x="422" y="33"/>
      <point x="431" y="35" type="curve" smooth="yes"/>
      <point x="459" y="41"/>
      <point x="483" y="54"/>
      <point x="503" y="73" type="curve" smooth="yes"/>
      <point x="522" y="91"/>
      <point x="535" y="111"/>
      <point x="543" y="136" type="curve" smooth="yes"/>
      <point x="556" y="175"/>
      <point x="552" y="222"/>
      <point x="533" y="262" type="curve" smooth="yes"/>
      <point x="512" y="308"/>
      <point x="472" y="338"/>
    </contour>
  </outline>
</glyph>
<glyph name="C" format="2">
  <advance width="722"/>
  <unicode hex="0043"/>
  <outline>
    <contour>
      <point x="377" y="704" type="curve" smooth="yes"/>
      <point x="395" y="705"/>
      <point x="429" y="705"/>
      <point x="443" y="702" type="curve" smooth="yes"/>
      <point x="493" y="693"/>
      <point x="536" y="671"/>
      <point x="574" y="633" type="curve" smooth="yes"/>
      <point x="588" y="619" type="line"/>
      <point x="617" y="661" type="line" smooth="yes"/>
      <point x="636" y="689"/>
      <point x="647" y="703"/>
      <point x="648" y="704" type="curve" smooth="yes"/>
      <point x="650" y="704"/>
      <point x="653" y="705"/>
      <point x="656" y="705" type="curve" smooth="yes"/>
      <point x="659" y="705"/>
      <point x="661" y="704"/>
      <point x="663" y="702" type="curve" smooth="yes"/>
      <point x="666" y="699" type="line"/>
      <point x="666" y="563" type="line"/>
      <point x="666" y="426" type="line"/>
      <point x="663" y="423" type="line" smooth="yes"/>
      <point x="660" y="420"/>
      <point x="660" y="420"/>
      <point x="650" y="420" type="curve" smooth="yes"/>
      <point x="640" y="420"/>
      <point x="640" y="420"/>
      <point x="637" y="423" type="curve" smooth="yes"/>
      <point x="635" y="425"/>
      <point x="634" y="427"/>
      <point x="634" y="433" type="curve" smooth="yes"/>
      <point x="632" y="444"/>
      <point x="628" y="468"/>
      <point x="625" y="479" type="curve" smooth="yes"/>
      <point x="612" y="534"/>
      <point x="586" y="581"/>
      <point x="551" y="616" type="curve" smooth="yes"/>
      <point x="520" y="646"/>
      <point x="488" y="663"/>
      <point x="447" y="671" type="curve" smooth="yes"/>
      <point x="434" y="673"/>
      <point x="400" y="673"/>
      <point x="384" y="671" type="curve" smooth="yes"/>
      <point x="342" y="664"/>
      <point x="305" y="649"/>
      <point x="271" y="624" type="curve" smooth="yes"/>
      <point x="250" y="608"/>
      <point x="223" y="579"/>
      <point x="208" y="554" type="curve" smooth="yes"/>
      <point x="176" y="502"/>
      <point x="159" y="430"/>
      <point x="159" y="342" type="curve" smooth="yes"/>
      <point x="159" y="201"/>
      <point x="199" y="107"/>
      <point x="284" y="51" type="curve" smooth="yes"/>
      <point x="322" y="26"/>
      <point x="363" y="12"/>
      <point x="410" y="10" type="curve" smooth="yes"/>
      <point x="454" y="8"/>
      <point x="500" y="21"/>
      <point x="537" y="46" type="curve" smooth="yes"/>
      <point x="599" y="88"/>
      <point x="636" y="154"/>
      <point x="640" y="231" type="curve" smooth="yes"/>
      <point x="640" y="244"/>
      <point x="640" y="245"/>
      <point x="643" y="247" type="curve" smooth="yes"/>
      <point x="646" y="250"/>
      <point x="647" y="250"/>
      <point x="653" y="250" type="curve" smooth="yes"/>
      <point x="660" y="250"/>
      <point x="660" y="250"/>
      <point x="663" y="247" type="curve" smooth="yes"/>
      <point x="666" y="244" type="line"/>
      <point x="666" y="229" type="line" smooth="yes"/>
      <point x="663" y="174"/>
      <point x="644" y="122"/>
      <point x="610" y="78" type="curve" smooth="yes"/>
      <point x="601" y="66"/>
      <point x="581" y="45"/>
      <point x="569" y="36" type="curve" smooth="yes"/>
      <point x="531" y="6"/>
      <point x="487" y="-13"/>
      <point x="438" y="-20" type="curve" smooth="yes"/>
      <point x="424" y="-22"/>
      <point x="381" y="-22"/>
      <point x="365" y="-20" type="curve" smooth="yes"/>
      <point x="324" y="-14"/>
      <point x="292" y="-4"/>
      <point x="256" y="13" type="curve" smooth="yes"/>
      <point x="228" y="27"/>
      <point x="206" y="41"/>
      <point x="184" y="60" type="curve" smooth="yes"/>
      <point x="170" y="71"/>
      <point x="144" y="99"/>
      <point x="134" y="112" type="curve" smooth="yes"/>
      <point x="91" y="167"/>
      <point x="66" y="228"/>
      <point x="57" y="299" type="curve" smooth="yes"/>
      <point x="55" y="318"/>
      <point x="55" y="365"/>
      <point x="57" y="385" type="curve" smooth="yes"/>
      <point x="66" y="455"/>
      <point x="91" y="516"/>
      <point x="134" y="571" type="curve" smooth="yes"/>
      <point x="144" y="584"/>
      <point x="170" y="612"/>
      <point x="184" y="623" type="curve" smooth="yes"/>
      <point x="238" y="669"/>
      <point x="307" y="698"/>
    </contour>
  </outline>
</glyph>
<glyph name="D" format="2">
  <advance width="764"/>
  <unicode hex="0044"/>
  <outline>
    <contour>
      <point x="34" y="0" type="line"/>
      <point x="34" y="32" type="line"/>
      <point x="52" y="32" type="line" smooth="yes"/>
      <point x="127" y="32"/>
      <point x="130" y="39"/>
      <point x="137" y="61" type="curve"/>
      <point x="137" y="622" type="line"/>
      <point x="130" y="644"/>
      <point x="127" y="651"/>
      <point x="52" y="651" type="curve" smooth="yes"/>
      <point x="34" y="651" type="line"/>
      <point x="34" y="683" type="line"/>
      <point x="231" y="683" type="line"/>
      <point x="448" y="682"/>
      <point x="431" y="683"/>
      <point x="461" y="676" type="curve" smooth="yes"/>
      <point x="513" y="665"/>
      <point x="563" y="637"/>
      <point x="604" y="597" type="curve" smooth="yes"/>
      <point x="800" y="389"/>
      <point x="703" y="45"/>
      <point x="442" y="3" type="curve" smooth="yes"/>
      <point x="429" y="1"/>
      <point x="428" y="1"/>
      <point x="231" y="0" type="curve"/>
    </contour>
    <contour>
      <point x="225" y="49" type="line"/>
      <point x="232" y="32"/>
      <point x="232" y="32"/>
      <point x="330" y="32" type="curve" smooth="yes"/>
      <point x="390" y="33"/>
      <point x="402" y="33"/>
      <point x="411" y="34" type="curve" smooth="yes"/>
      <point x="504" y="50"/>
      <point x="569" y="110"/>
      <point x="593" y="203" type="curve" smooth="yes"/>
      <point x="613" y="280"/>
      <point x="606" y="382"/>
      <point x="603" y="412" type="curve" smooth="yes"/>
      <point x="597" y="476"/>
      <point x="580" y="526"/>
      <point x="551" y="564" type="curve" smooth="yes"/>
      <point x="515" y="612"/>
      <point x="459" y="644"/>
      <point x="398" y="650" type="curve" smooth="yes"/>
      <point x="384" y="651"/>
      <point x="258" y="651"/>
      <point x="248" y="650" type="curve" smooth="yes"/>
      <point x="231" y="648"/>
      <point x="228" y="641"/>
      <point x="225" y="634" type="curve"/>
    </contour>
  </outline>
</glyph>
<glyph name="E" format="2">
  <advance width="680"/>
  <unicode hex="0045"/>
  <anchor x="338.909" y="680.058" name="TopAnchor"/>
  <anchor x="338.909" y="0.144531" name="BottomAnchor"/>
  <outline>
    <contour>
      <point x="26.0117" y="657.768" type="line"/>
      <point x="26.0117" y="680.058" type="line"/>
      <point x="311.019" y="680.058" type="line"/>
      <point x="596.026" y="680.058" type="line"/>
      <point x="596.46" y="676.987" type="line" smooth="yes"/>
      <point x="596.698" y="675.297"/>
      <point x="602.709" y="622.904"/>
      <point x="609.826" y="560.477" type="curve" smooth="yes"/>
      <point x="616.944" y="498.049"/>
      <point x="622.955" y="445.656"/>
      <point x="623.193" y="443.967" type="curve" smooth="yes"/>
      <point x="623.627" y="440.896" type="line"/>
      <point x="603.757" y="440.896" type="line"/>
      <point x="583.888" y="440.896" type="line"/>
      <point x="583.49" y="443.967" type="line" smooth="yes"/>
      <point x="583.271" y="445.665"/>
      <point x="582.44" y="452.529"/>
      <point x="581.633" y="459.321" type="curve" smooth="yes"/>
      <point x="570.567" y="552.457"/>
      <point x="550.713" y="593.653"/>
      <point x="506.142" y="615.957" type="curve" smooth="yes"/>
      <point x="486.45" y="625.811"/>
      <point x="463.656" y="631.169"/>
      <point x="429.552" y="633.962" type="curve" smooth="yes"/>
      <point x="413.367" y="635.287"/>
      <point x="257.829" y="635.295"/>
      <point x="250.361" y="633.971" type="curve" smooth="yes"/>
      <point x="239.74" y="632.088"/>
      <point x="236.16" y="629.999"/>
      <point x="233.625" y="624.205" type="curve" smooth="yes"/>
      <point x="232.352" y="621.295"/>
      <point x="232.29" y="616.148"/>
      <point x="232.117" y="498.446" type="curve" smooth="yes"/>
      <point x="231.937" y="375.723" type="line"/>
      <point x="283.815" y="376.071" type="line" smooth="yes"/>
      <point x="336.416" y="376.424"/>
      <point x="340.422" y="376.615"/>
      <point x="355.636" y="379.491" type="curve" smooth="yes"/>
      <point x="376.156" y="383.369"/>
      <point x="391.322" y="391.894"/>
      <point x="399.71" y="404.263" type="curve" smooth="yes"/>
      <point x="410.121" y="419.616"/>
      <point x="414.346" y="438.584"/>
      <point x="415.225" y="473.916" type="curve" smooth="yes"/>
      <point x="415.679" y="492.196" type="line"/>
      <point x="435.44" y="492.196" type="line"/>
      <point x="455.202" y="492.196" type="line"/>
      <point x="455.202" y="353.468" type="line"/>
      <point x="455.202" y="214.74" type="line"/>
      <point x="435.44" y="214.74" type="line"/>
      <point x="415.679" y="214.74" type="line"/>
      <point x="415.225" y="233.021" type="line" smooth="yes"/>
      <point x="414.346" y="268.353"/>
      <point x="410.121" y="287.32"/>
      <point x="399.71" y="302.674" type="curve" smooth="yes"/>
      <point x="391.322" y="315.042"/>
      <point x="376.156" y="323.566"/>
      <point x="355.636" y="327.445" type="curve" smooth="yes"/>
      <point x="340.422" y="330.321"/>
      <point x="336.416" y="330.512"/>
      <point x="283.815" y="330.865" type="curve" smooth="yes"/>
      <point x="231.937" y="331.214" type="line"/>
      <point x="232.117" y="195.123" type="line" smooth="yes"/>
      <point x="232.291" y="64.415"/>
      <point x="232.351" y="58.9121"/>
      <point x="233.625" y="55.9971" type="curve" smooth="yes"/>
      <point x="236.16" y="50.2041"/>
      <point x="239.74" y="48.1143"/>
      <point x="250.361" y="46.2295" type="curve" smooth="yes"/>
      <point x="257.842" y="44.9014"/>
      <point x="416.329" y="44.9326"/>
      <point x="432.442" y="46.2646" type="curve" smooth="yes"/>
      <point x="470.231" y="49.3887"/>
      <point x="493.531" y="55.0098"/>
      <point x="516.979" y="66.6562" type="curve" smooth="yes"/>
      <point x="523.338" y="69.8145"/>
      <point x="531.597" y="74.5898"/>
      <point x="535.332" y="77.2676" type="curve" smooth="yes"/>
      <point x="572.979" y="104.252"/>
      <point x="591.773" y="147.832"/>
      <point x="607.646" y="244.942" type="curve" smooth="yes"/>
      <point x="609.642" y="257.153"/>
      <point x="611.45" y="268.18"/>
      <point x="611.669" y="269.473" type="curve" smooth="yes"/>
      <point x="612.066" y="271.821" type="line"/>
      <point x="631.937" y="271.821" type="line"/>
      <point x="651.807" y="271.821" type="line"/>
      <point x="651.373" y="269.473" type="line" smooth="yes"/>
      <point x="651.135" y="268.182"/>
      <point x="641.865" y="208.093"/>
      <point x="630.78" y="135.982" type="curve" smooth="yes"/>
      <point x="619.695" y="63.873"/>
      <point x="610.426" y="3.78418"/>
      <point x="610.188" y="2.49316" type="curve" smooth="yes"/>
      <point x="609.754" y="0.144531" type="line"/>
      <point x="317.883" y="0.144531" type="line"/>
      <point x="26.0117" y="0.144531" type="line"/>
      <point x="26.0117" y="22.4346" type="line"/>
      <point x="26.0117" y="44.7256" type="line"/>
      <point x="55.1299" y="45.1641" type="line" smooth="yes"/>
      <point x="94.5811" y="45.7578"/>
      <point x="110.023" y="47.1338"/>
      <point x="117.413" y="50.7139" type="curve" smooth="yes"/>
      <point x="121.026" y="52.4639"/>
      <point x="125.224" y="56.3623"/>
      <point x="126.992" y="59.6094" type="curve" smooth="yes"/>
      <point x="128.186" y="61.8008"/>
      <point x="128.251" y="76.4453"/>
      <point x="128.251" y="340.102" type="curve" smooth="yes"/>
      <point x="128.251" y="603.757"/>
      <point x="128.186" y="618.401"/>
      <point x="126.992" y="620.593" type="curve" smooth="yes"/>
      <point x="125.224" y="623.84"/>
      <point x="121.026" y="627.738"/>
      <point x="117.413" y="629.488" type="curve" smooth="yes"/>
      <point x="110.023" y="633.068"/>
      <point x="94.5811" y="634.444"/>
      <point x="55.1299" y="635.038" type="curve" smooth="yes"/>
      <point x="26.0117" y="635.477" type="line"/>
    </contour>
  </outline>
</glyph>
<glyph name="F" format="2">
  <advance width="653"/>
  <unicode hex="0046"/>
  <outline>
    <contour>
      <point x="32" y="0" type="line"/>
      <point x="32" y="32" type="line"/>
      <point x="50" y="32" type="line" smooth="yes"/>
      <point x="125" y="32"/>
      <point x="128" y="39"/>
      <point x="135" y="61" type="curve"/>
      <point x="135" y="619" type="line"/>
      <point x="128" y="641"/>
      <point x="125" y="648"/>
      <point x="50" y="648" type="curve" smooth="yes"/>
      <point x="32" y="648" type="line"/>
      <point x="32" y="680" type="line"/>
      <point x="582" y="680" type="line"/>
      <point x="582" y="676" type="line"/>
      <point x="584" y="672"/>
      <point x="608" y="462"/>
      <point x="610" y="458" type="curve"/>
      <point x="610" y="454" type="line"/>
      <point x="584" y="454" type="line"/>
      <point x="584" y="456"/>
      <point x="577" y="565"/>
      <point x="533" y="609" type="curve" smooth="yes"/>
      <point x="513" y="629"/>
      <point x="485" y="640"/>
      <point x="441" y="646" type="curve" smooth="yes"/>
      <point x="424" y="648"/>
      <point x="266" y="649"/>
      <point x="251" y="647" type="curve" smooth="yes"/>
      <point x="232" y="646"/>
      <point x="229" y="638"/>
      <point x="226" y="631" type="curve"/>
      <point x="225" y="493" type="line"/>
      <point x="225" y="356" type="line"/>
      <point x="283" y="356" type="line"/>
      <point x="383" y="358"/>
      <point x="413" y="358"/>
      <point x="417" y="453" type="curve"/>
      <point x="417" y="473" type="line"/>
      <point x="443" y="473" type="line"/>
      <point x="443" y="207" type="line"/>
      <point x="417" y="207" type="line"/>
      <point x="417" y="227" type="line"/>
      <point x="413" y="322"/>
      <point x="383" y="322"/>
      <point x="283" y="324" type="curve"/>
      <point x="225" y="324" type="line"/>
      <point x="225" y="193" type="line" smooth="yes"/>
      <point x="225" y="48"/>
      <point x="225" y="57"/>
      <point x="231" y="48" type="curve" smooth="yes"/>
      <point x="235" y="42"/>
      <point x="242" y="32"/>
      <point x="331" y="32" type="curve" smooth="yes"/>
      <point x="353" y="32" type="line"/>
      <point x="353" y="0" type="line"/>
      <point x="342" y="0" type="line"/>
      <point x="326" y="3"/>
      <point x="63" y="3"/>
      <point x="42" y="0" type="curve"/>
    </contour>
  </outline>
</glyph>
<glyph name="G" format="2">
  <advance width="785"/>
  <unicode hex="0047"/>
  <outline>
    <contour>
      <point x="377" y="704" type="curve" smooth="yes"/>
      <point x="395" y="705"/>
      <point x="429" y="705"/>
      <point x="443" y="702" type="curve" smooth="yes"/>
      <point x="493" y="693"/>
      <point x="536" y="671"/>
      <point x="574" y="633" type="curve" smooth="yes"/>
      <point x="588" y="619" type="line"/>
      <point x="617" y="661" type="line" smooth="yes"/>
      <point x="636" y="689"/>
      <point x="647" y="703"/>
      <point x="648" y="704" type="curve" smooth="yes"/>
      <point x="650" y="704"/>
      <point x="653" y="705"/>
      <point x="656" y="705" type="curve" smooth="yes"/>
      <point x="659" y="705"/>
      <point x="661" y="704"/>
      <point x="663" y="702" type="curve" smooth="yes"/>
      <point x="666" y="699" type="line"/>
      <point x="666" y="563" type="line"/>
      <point x="666" y="426" type="line"/>
      <point x="663" y="423" type="line" smooth="yes"/>
      <point x="660" y="420"/>
      <point x="660" y="420"/>
      <point x="650" y="420" type="curve" smooth="yes"/>
      <point x="640" y="420"/>
      <point x="640" y="420"/>
      <point x="637" y="423" type="curve" smooth="yes"/>
      <point x="635" y="425"/>
      <point x="634" y="427"/>
      <point x="634" y="433" type="curve" smooth="yes"/>
      <point x="632" y="444"/>
      <point x="628" y="468"/>
      <point x="625" y="479" type="curve" smooth="yes"/>
      <point x="612" y="534"/>
      <point x="586" y="581"/>
      <point x="551" y="616" type="curve" smooth="yes"/>
      <point x="520" y="646"/>
      <point x="488" y="663"/>
      <point x="447" y="671" type="curve" smooth="yes"/>
      <point x="434" y="673"/>
      <point x="400" y="673"/>
      <point x="384" y="671" type="curve" smooth="yes"/>
      <point x="351" y="666"/>
      <point x="322" y="655"/>
      <point x="295" y="639" type="curve" smooth="yes"/>
      <point x="276" y="628"/>
      <point x="262" y="617"/>
      <point x="245" y="601" type="curve" smooth="yes"/>
      <point x="209" y="564"/>
      <point x="186" y="523"/>
      <point x="172" y="466" type="curve" smooth="yes"/>
      <point x="155" y="396"/>
      <point x="155" y="293"/>
      <point x="171" y="222" type="curve" smooth="yes"/>
      <point x="192" y="135"/>
      <point x="240" y="72"/>
      <point x="313" y="36" type="curve" smooth="yes"/>
      <point x="361" y="12"/>
      <point x="416" y="4"/>
      <point x="467" y="15" type="curve" smooth="yes"/>
      <point x="501" y="21"/>
      <point x="527" y="35"/>
      <point x="548" y="56" type="curve" smooth="yes"/>
      <point x="560" y="68"/>
      <point x="567" y="78"/>
      <point x="571" y="91" type="curve" smooth="yes"/>
      <point x="576" y="105"/>
      <point x="576" y="112"/>
      <point x="576" y="166" type="curve" smooth="yes"/>
      <point x="576" y="215" type="line"/>
      <point x="573" y="220" type="line" smooth="yes"/>
      <point x="567" y="231"/>
      <point x="559" y="236"/>
      <point x="541" y="238" type="curve" smooth="yes"/>
      <point x="528" y="240"/>
      <point x="497" y="241"/>
      <point x="473" y="241" type="curve" smooth="yes"/>
      <point x="451" y="241" type="line"/>
      <point x="451" y="257" type="line"/>
      <point x="451" y="273" type="line"/>
      <point x="462" y="273" type="line" smooth="yes"/>
      <point x="468" y="272"/>
      <point x="507" y="272"/>
      <point x="547" y="271" type="curve" smooth="yes"/>
      <point x="605" y="270"/>
      <point x="632" y="270"/>
      <point x="671" y="271" type="curve" smooth="yes"/>
      <point x="698" y="272"/>
      <point x="724" y="272"/>
      <point x="728" y="273" type="curve" smooth="yes"/>
      <point x="735" y="273" type="line"/>
      <point x="735" y="257" type="line"/>
      <point x="735" y="241" type="line"/>
      <point x="723" y="241" type="line" smooth="yes"/>
      <point x="707" y="241"/>
      <point x="691" y="239"/>
      <point x="683" y="237" type="curve" smooth="yes"/>
      <point x="675" y="235"/>
      <point x="670" y="230"/>
      <point x="668" y="223" type="curve" smooth="yes"/>
      <point x="667" y="220"/>
      <point x="666" y="196"/>
      <point x="666" y="112" type="curve" smooth="yes"/>
      <point x="666" y="5" type="line"/>
      <point x="663" y="2" type="line" smooth="yes"/>
      <point x="657" y="-2"/>
      <point x="652" y="0"/>
      <point x="637" y="14" type="curve" smooth="yes"/>
      <point x="624" y="25"/>
      <point x="611" y="38"/>
      <point x="603" y="49" type="curve" smooth="yes"/>
      <point x="598" y="54"/>
      <point x="595" y="60"/>
      <point x="594" y="61" type="curve" smooth="yes"/>
      <point x="593" y="63"/>
      <point x="593" y="63"/>
      <point x="587" y="54" type="curve" smooth="yes"/>
      <point x="580" y="43"/>
      <point x="565" y="28"/>
      <point x="553" y="20" type="curve" smooth="yes"/>
      <point x="542" y="12"/>
      <point x="515" y="-2"/>
      <point x="501" y="-7" type="curve" smooth="yes"/>
      <point x="468" y="-18"/>
      <point x="433" y="-23"/>
      <point x="396" y="-22" type="curve" smooth="yes"/>
      <point x="345" y="-20"/>
      <point x="302" y="-9"/>
      <point x="256" y="13" type="curve" smooth="yes"/>
      <point x="228" y="27"/>
      <point x="206" y="41"/>
      <point x="184" y="60" type="curve" smooth="yes"/>
      <point x="170" y="71"/>
      <point x="144" y="99"/>
      <point x="134" y="112" type="curve" smooth="yes"/>
      <point x="91" y="167"/>
      <point x="66" y="228"/>
      <point x="57" y="299" type="curve" smooth="yes"/>
      <point x="55" y="318"/>
      <point x="55" y="365"/>
      <point x="57" y="385" type="curve" smooth="yes"/>
      <point x="66" y="455"/>
      <point x="91" y="516"/>
      <point x="134" y="571" type="curve" smooth="yes"/>
      <point x="144" y="584"/>
      <point x="170" y="612"/>
      <point x="184" y="623" type="curve" smooth="yes"/>
      <point x="238" y="669"/>
      <point x="307" y="698"/>
    </contour>
  </outline>
</glyph>
<glyph name="H" format="2">
  <advance width="749"/>
  <unicode hex="0048"/>
  <outline>
    <contour>
      <point x="29.624" y="664.379" type="line"/>
      <point x="29.624" y="683.165" type="line"/>
      <point x="38.873" y="682.703" type="line" smooth="yes"/>
      <point x="98.4521" y="679.731"/>
      <point x="262.139" y="679.733"/>
      <point x="321.749" y="682.707" type="curve" smooth="yes"/>
      <point x="330.925" y="683.165" type="line"/>
      <point x="330.925" y="664.379" type="line"/>
      <point x="330.925" y="645.593" type="line"/>
      <point x="303.974" y="645.134" type="line" smooth="yes"/>
      <point x="252.168" y="644.253"/>
      <point x="240.249" y="641.948"/>
      <point x="233.122" y="631.431" type="curve" smooth="yes"/>
      <point x="227.989" y="623.856"/>
      <point x="228.323" y="633.237"/>
      <point x="228.323" y="496.749" type="curve" smooth="yes"/>
      <point x="228.323" y="373.699" type="line"/>
      <point x="374.639" y="373.699" type="line"/>
      <point x="520.954" y="373.699" type="line"/>
      <point x="520.954" y="496.749" type="line" smooth="yes"/>
      <point x="520.954" y="633.237"/>
      <point x="521.288" y="623.856"/>
      <point x="516.155" y="631.431" type="curve" smooth="yes"/>
      <point x="509.028" y="641.948"/>
      <point x="497.109" y="644.253"/>
      <point x="445.304" y="645.134" type="curve" smooth="yes"/>
      <point x="418.353" y="645.593" type="line"/>
      <point x="418.353" y="664.379" type="line"/>
      <point x="418.353" y="683.165" type="line"/>
      <point x="427.529" y="682.707" type="line" smooth="yes"/>
      <point x="487.139" y="679.733"/>
      <point x="650.825" y="679.731"/>
      <point x="710.404" y="682.703" type="curve" smooth="yes"/>
      <point x="719.653" y="683.165" type="line"/>
      <point x="719.653" y="664.379" type="line"/>
      <point x="719.653" y="645.593" type="line"/>
      <point x="692.702" y="645.134" type="line" smooth="yes"/>
      <point x="640.896" y="644.253"/>
      <point x="628.978" y="641.948"/>
      <point x="621.851" y="631.431" type="curve" smooth="yes"/>
      <point x="616.61" y="623.698"/>
      <point x="617.052" y="650.361"/>
      <point x="617.052" y="341.546" type="curve" smooth="yes"/>
      <point x="617.052" y="32.7314"/>
      <point x="616.61" y="59.3945"/>
      <point x="621.851" y="51.6621" type="curve" smooth="yes"/>
      <point x="628.978" y="41.1445"/>
      <point x="640.896" y="38.8389"/>
      <point x="692.702" y="37.958" type="curve" smooth="yes"/>
      <point x="719.653" y="37.5" type="line"/>
      <point x="719.653" y="18.7139" type="line"/>
      <point x="719.653" y="-0.0722656" type="line"/>
      <point x="710.404" y="0.388672" type="line" smooth="yes"/>
      <point x="650.825" y="3.36133"/>
      <point x="487.139" y="3.3584"/>
      <point x="427.529" y="0.385742" type="curve" smooth="yes"/>
      <point x="418.353" y="-0.0722656" type="line"/>
      <point x="418.353" y="18.7139" type="line"/>
      <point x="418.353" y="37.5" type="line"/>
      <point x="445.304" y="37.958" type="line" smooth="yes"/>
      <point x="497.109" y="38.8389"/>
      <point x="509.028" y="41.1445"/>
      <point x="516.155" y="51.6621" type="curve" smooth="yes"/>
      <point x="521.306" y="59.2617"/>
      <point x="520.954" y="48.4102"/>
      <point x="520.954" y="199.711" type="curve" smooth="yes"/>
      <point x="520.954" y="336.127" type="line"/>
      <point x="374.639" y="336.127" type="line"/>
      <point x="228.323" y="336.127" type="line"/>
      <point x="228.323" y="199.711" type="line" smooth="yes"/>
      <point x="228.323" y="48.4102"/>
      <point x="227.972" y="59.2617"/>
      <point x="233.122" y="51.6621" type="curve" smooth="yes"/>
      <point x="240.249" y="41.1445"/>
      <point x="252.168" y="38.8389"/>
      <point x="303.974" y="37.958" type="curve" smooth="yes"/>
      <point x="330.925" y="37.5" type="line"/>
      <point x="330.925" y="18.7139" type="line"/>
      <point x="330.925" y="-0.0722656" type="line"/>
      <point x="321.749" y="0.385742" type="line" smooth="yes"/>
      <point x="262.139" y="3.3584"/>
      <point x="98.4521" y="3.36133"/>
      <point x="38.873" y="0.388672" type="curve" smooth="yes"/>
      <point x="29.624" y="-0.0722656" type="line"/>
      <point x="29.624" y="18.7139" type="line"/>
      <point x="29.624" y="37.5" type="line"/>
      <point x="56.5752" y="37.958" type="line" smooth="yes"/>
      <point x="108.382" y="38.8389"/>
      <point x="120.3" y="41.1445"/>
      <point x="127.427" y="51.6621" type="curve" smooth="yes"/>
      <point x="132.667" y="59.3945"/>
      <point x="132.226" y="32.7314"/>
      <point x="132.226" y="341.546" type="curve" smooth="yes"/>
      <point x="132.226" y="650.361"/>
      <point x="132.667" y="623.698"/>
      <point x="127.427" y="631.431" type="curve" smooth="yes"/>
      <point x="120.3" y="641.948"/>
      <point x="108.382" y="644.253"/>
      <point x="56.5752" y="645.134" type="curve" smooth="yes"/>
      <point x="29.624" y="645.593" type="line"/>
    </contour>
  </outline>
</glyph>
<glyph name="I" format="2">
  <advance width="361"/>
  <unicode hex="0049"/>
  <outline>
    <contour>
      <point x="28" y="0" type="line"/>
      <point x="28" y="32" type="line"/>
      <point x="46" y="32" type="line" smooth="yes"/>
      <point x="122" y="32"/>
      <point x="126" y="39"/>
      <point x="135" y="58" type="curve"/>
      <point x="135" y="626" type="line"/>
      <point x="124" y="645"/>
      <point x="120" y="651"/>
      <point x="46" y="651" type="curve" smooth="yes"/>
      <point x="28" y="651" type="line"/>
      <point x="28" y="683" type="line"/>
      <point x="38" y="683" type="line"/>
      <point x="56" y="680"/>
      <point x="304" y="680"/>
      <point x="322" y="683" type="curve"/>
      <point x="332" y="683" type="line"/>
      <point x="332" y="651" type="line"/>
      <point x="314" y="651" type="line" smooth="yes"/>
      <point x="236" y="651"/>
      <point x="232" y="642"/>
      <point x="226" y="626" type="curve"/>
      <point x="226" y="58" type="line"/>
      <point x="232" y="41"/>
      <point x="235" y="32"/>
      <point x="314" y="32" type="curve" smooth="yes"/>
      <point x="332" y="32" type="line"/>
      <point x="332" y="0" type="line"/>
      <point x="322" y="0" type="line"/>
      <point x="304" y="3"/>
      <point x="56" y="3"/>
      <point x="38" y="0" type="curve"/>
    </contour>
  </outline>
</glyph>
<glyph name="J" format="2">
  <advance width="514"/>
  <unicode hex="004A"/>
  <outline>
    <contour>
      <point x="168" y="667" type="line"/>
      <point x="168" y="683" type="line"/>
      <point x="180" y="683" type="line" smooth="yes"/>
      <point x="186" y="682"/>
      <point x="226" y="682"/>
      <point x="268" y="681" type="curve" smooth="yes"/>
      <point x="328" y="680"/>
      <point x="356" y="680"/>
      <point x="397" y="681" type="curve" smooth="yes"/>
      <point x="426" y="682"/>
      <point x="453" y="682"/>
      <point x="457" y="683" type="curve" smooth="yes"/>
      <point x="465" y="683" type="line"/>
      <point x="465" y="667" type="line"/>
      <point x="465" y="651" type="line"/>
      <point x="444" y="651" type="line" smooth="yes"/>
      <point x="423" y="650"/>
      <point x="408" y="648"/>
      <point x="402" y="646" type="curve" smooth="yes"/>
      <point x="397" y="644"/>
      <point x="392" y="638"/>
      <point x="390" y="633" type="curve" smooth="yes"/>
      <point x="389" y="629"/>
      <point x="388" y="616"/>
      <point x="388" y="376" type="curve" smooth="yes"/>
      <point x="387" y="123" type="line"/>
      <point x="385" y="112" type="line" smooth="yes"/>
      <point x="382" y="100"/>
      <point x="377" y="87"/>
      <point x="372" y="77" type="curve" smooth="yes"/>
      <point x="352" y="37"/>
      <point x="313" y="4"/>
      <point x="267" y="-11" type="curve" smooth="yes"/>
      <point x="197" y="-34"/>
      <point x="123" y="-20"/>
      <point x="76" y="26" type="curve" smooth="yes"/>
      <point x="51" y="52"/>
      <point x="38" y="83"/>
      <point x="39" y="116" type="curve" smooth="yes"/>
      <point x="40" y="129"/>
      <point x="42" y="137"/>
      <point x="49" y="147" type="curve" smooth="yes"/>
      <point x="55" y="157"/>
      <point x="68" y="165"/>
      <point x="81" y="168" type="curve" smooth="yes"/>
      <point x="88" y="170"/>
      <point x="103" y="170"/>
      <point x="110" y="168" type="curve" smooth="yes"/>
      <point x="128" y="164"/>
      <point x="142" y="152"/>
      <point x="149" y="134" type="curve" smooth="yes"/>
      <point x="152" y="125"/>
      <point x="153" y="109"/>
      <point x="151" y="100" type="curve" smooth="yes"/>
      <point x="145" y="78"/>
      <point x="129" y="63"/>
      <point x="106" y="58" type="curve" smooth="yes"/>
      <point x="101" y="58"/>
      <point x="95" y="57"/>
      <point x="93" y="57" type="curve" smooth="yes"/>
      <point x="90" y="57"/>
      <point x="88" y="58"/>
      <point x="88" y="57" type="curve" smooth="yes"/>
      <point x="88" y="56"/>
      <point x="98" y="44"/>
      <point x="105" y="37" type="curve" smooth="yes"/>
      <point x="128" y="16"/>
      <point x="159" y="3"/>
      <point x="193" y="1" type="curve" smooth="yes"/>
      <point x="207" y="1"/>
      <point x="218" y="2"/>
      <point x="229" y="7" type="curve" smooth="yes"/>
      <point x="240" y="12"/>
      <point x="247" y="17"/>
      <point x="258" y="28" type="curve" smooth="yes"/>
      <point x="282" y="52"/>
      <point x="296" y="84"/>
      <point x="300" y="126" type="curve" smooth="yes"/>
      <point x="301" y="134"/>
      <point x="301" y="213"/>
      <point x="301" y="381" type="curve" smooth="yes"/>
      <point x="301" y="625" type="line"/>
      <point x="298" y="630" type="line" smooth="yes"/>
      <point x="294" y="636"/>
      <point x="287" y="642"/>
      <point x="281" y="644" type="curve" smooth="yes"/>
      <point x="269" y="648"/>
      <point x="250" y="650"/>
      <point x="204" y="651" type="curve" smooth="yes"/>
      <point x="168" y="651" type="line"/>
    </contour>
  </outline>
</glyph>
<glyph name="K" format="2">
  <advance width="777"/>
  <unicode hex="004B"/>
  <outline>
    <contour>
      <point x="29.624" y="664.379" type="line"/>
      <point x="29.624" y="683.165" type="line"/>
      <point x="38.873" y="682.703" type="line" smooth="yes"/>
      <point x="98.4521" y="679.731"/>
      <point x="262.139" y="679.733"/>
      <point x="321.749" y="682.707" type="curve" smooth="yes"/>
      <point x="330.925" y="683.165" type="line"/>
      <point x="330.925" y="664.379" type="line"/>
      <point x="330.925" y="645.593" type="line"/>
      <point x="303.974" y="645.128" type="line" smooth="yes"/>
      <point x="276.156" y="644.648"/>
      <point x="264.645" y="643.944"/>
      <point x="252.891" y="642.005" type="curve" smooth="yes"/>
      <point x="242.052" y="640.216"/>
      <point x="237.415" y="637.734"/>
      <point x="233.134" y="631.431" type="curve" smooth="yes"/>
      <point x="227.947" y="623.795"/>
      <point x="228.31" y="637.355"/>
      <point x="228.507" y="458.382" type="curve" smooth="yes"/>
      <point x="228.685" y="297.037" type="line"/>
      <point x="371.749" y="434.791" type="line" smooth="yes"/>
      <point x="540.391" y="597.174"/>
      <point x="534.193" y="591.133"/>
      <point x="537.742" y="596.604" type="curve" smooth="yes"/>
      <point x="543.508" y="605.491"/>
      <point x="544.908" y="616.758"/>
      <point x="541.218" y="624.566" type="curve" smooth="yes"/>
      <point x="539.104" y="629.038"/>
      <point x="533.815" y="634.896"/>
      <point x="529.263" y="637.804" type="curve" smooth="yes"/>
      <point x="522.604" y="642.059"/>
      <point x="510.766" y="645.376"/>
      <point x="502.24" y="645.376" type="curve" smooth="yes"/>
      <point x="499.277" y="645.376" type="line"/>
      <point x="499.277" y="664.271" type="line"/>
      <point x="499.277" y="683.165" type="line"/>
      <point x="507.804" y="682.703" type="line" smooth="yes"/>
      <point x="563.006" y="679.716"/>
      <point x="686.003" y="679.688"/>
      <point x="716.618" y="682.658" type="curve" smooth="yes"/>
      <point x="721.099" y="683.093" type="line"/>
      <point x="721.099" y="664.234" type="line"/>
      <point x="721.099" y="645.376" type="line"/>
      <point x="716.474" y="645.376" type="line" smooth="yes"/>
      <point x="696.315" y="645.376"/>
      <point x="667.847" y="640.139"/>
      <point x="647.688" y="632.721" type="curve" smooth="yes"/>
      <point x="629.19" y="625.914"/>
      <point x="605.91" y="612.277"/>
      <point x="589.957" y="598.904" type="curve" smooth="yes"/>
      <point x="585.983" y="595.573"/>
      <point x="542.16" y="553.756"/>
      <point x="492.594" y="505.997" type="curve" smooth="yes"/>
      <point x="402.457" y="419.147" type="line"/>
      <point x="439.098" y="364.451" type="line" smooth="yes"/>
      <point x="589.531" y="139.885"/>
      <point x="628.834" y="81.3975"/>
      <point x="632.828" y="76.1562" type="curve" smooth="yes"/>
      <point x="655.948" y="45.8174"/>
      <point x="675.145" y="37.7764"/>
      <point x="724.566" y="37.7266" type="curve" smooth="yes"/>
      <point x="734.826" y="37.7168" type="line"/>
      <point x="734.826" y="18.8584" type="line"/>
      <point x="734.826" y="-0" type="line"/>
      <point x="728.107" y="0.450195" type="line" smooth="yes"/>
      <point x="684.178" y="3.39551"/>
      <point x="537.789" y="3.36035"/>
      <point x="478.829" y="0.389648" type="curve" smooth="yes"/>
      <point x="469.653" y="-0.0722656" type="line"/>
      <point x="469.653" y="18.8223" type="line"/>
      <point x="469.653" y="37.7168" type="line"/>
      <point x="477.023" y="37.7305" type="line" smooth="yes"/>
      <point x="498.627" y="37.7695"/>
      <point x="512.874" y="41.8428"/>
      <point x="520.446" y="50.1445" type="curve" smooth="yes"/>
      <point x="524.021" y="54.0635"/>
      <point x="525.156" y="56.2861"/>
      <point x="526.057" y="61.127" type="curve" smooth="yes"/>
      <point x="527.051" y="66.4756"/>
      <point x="525.428" y="73.916"/>
      <point x="521.5" y="82.0088" type="curve" smooth="yes"/>
      <point x="518.485" y="88.2227"/>
      <point x="339.007" y="357.164"/>
      <point x="338.078" y="356.861" type="curve" smooth="yes"/>
      <point x="337.84" y="356.783"/>
      <point x="313.042" y="333.027"/>
      <point x="282.984" y="304.082" type="curve" smooth="yes"/>
      <point x="228.323" y="251.445" type="line"/>
      <point x="228.323" y="157.37" type="line" smooth="yes"/>
      <point x="228.323" y="53.0352"/>
      <point x="228.045" y="59.1523"/>
      <point x="233.134" y="51.6621" type="curve" smooth="yes"/>
      <point x="237.387" y="45.4004"/>
      <point x="242.124" y="42.8643"/>
      <point x="252.891" y="41.0879" type="curve" smooth="yes"/>
      <point x="264.645" y="39.1484"/>
      <point x="276.156" y="38.4443"/>
      <point x="303.974" y="37.9648" type="curve" smooth="yes"/>
      <point x="330.925" y="37.5" type="line"/>
      <point x="330.925" y="18.7139" type="line"/>
      <point x="330.925" y="-0.0722656" type="line"/>
      <point x="321.749" y="0.385742" type="line" smooth="yes"/>
      <point x="262.139" y="3.3584"/>
      <point x="98.4521" y="3.36133"/>
      <point x="38.873" y="0.388672" type="curve" smooth="yes"/>
      <point x="29.624" y="-0.0722656" type="line"/>
      <point x="29.624" y="18.7139" type="line"/>
      <point x="29.624" y="37.5" type="line"/>
      <point x="56.5752" y="37.9648" type="line" smooth="yes"/>
      <point x="84.3926" y="38.4443"/>
      <point x="95.9053" y="39.1484"/>
      <point x="107.659" y="41.0879" type="curve" smooth="yes"/>
      <point x="118.425" y="42.8643"/>
      <point x="123.162" y="45.4004"/>
      <point x="127.416" y="51.6621" type="curve" smooth="yes"/>
      <point x="132.668" y="59.3945"/>
      <point x="132.226" y="32.7314"/>
      <point x="132.226" y="341.546" type="curve" smooth="yes"/>
      <point x="132.226" y="650.361"/>
      <point x="132.668" y="623.698"/>
      <point x="127.416" y="631.431" type="curve" smooth="yes"/>
      <point x="123.162" y="637.692"/>
      <point x="118.425" y="640.229"/>
      <point x="107.659" y="642.005" type="curve" smooth="yes"/>
      <point x="95.9053" y="643.944"/>
      <point x="84.3926" y="644.648"/>
      <point x="56.5752" y="645.128" type="curve" smooth="yes"/>
      <point x="29.624" y="645.593" type="line"/>
    </contour>
  </outline>
</glyph>
<glyph name="L" format="2">
  <advance width="624"/>
  <unicode hex="004C"/>
  <outline>
    <contour>
      <point x="26.0117" y="660.766" type="line"/>
      <point x="26.0117" y="683.165" type="line"/>
      <point x="35.1875" y="682.708" type="line" smooth="yes"/>
      <point x="95.0264" y="679.732"/>
      <point x="276.59" y="679.726"/>
      <point x="349.133" y="682.697" type="curve" smooth="yes"/>
      <point x="360.549" y="683.165" type="line"/>
      <point x="360.549" y="660.766" type="line"/>
      <point x="360.549" y="638.367" type="line"/>
      <point x="323.916" y="637.928" type="line" smooth="yes"/>
      <point x="274.061" y="637.33"/>
      <point x="255.025" y="635.964"/>
      <point x="245.448" y="632.294" type="curve" smooth="yes"/>
      <point x="240.102" y="630.246"/>
      <point x="234.615" y="625.375"/>
      <point x="233.082" y="621.315" type="curve" smooth="yes"/>
      <point x="232.039" y="618.554"/>
      <point x="231.953" y="593.136"/>
      <point x="232.117" y="338.656" type="curve" smooth="yes"/>
      <point x="232.292" y="68.208"/>
      <point x="232.342" y="58.9326"/>
      <point x="233.632" y="55.9971" type="curve" smooth="yes"/>
      <point x="236.106" y="50.3711"/>
      <point x="239.523" y="48.2852"/>
      <point x="249.639" y="46.2275" type="curve" smooth="yes"/>
      <point x="254.989" y="45.1396"/>
      <point x="355.202" y="44.6162"/>
      <point x="368.786" y="45.6064" type="curve" smooth="yes"/>
      <point x="433.96" y="50.3545"/>
      <point x="481.246" y="76.3154"/>
      <point x="507.21" y="121.604" type="curve" smooth="yes"/>
      <point x="523.92" y="150.75"/>
      <point x="533.489" y="187.428"/>
      <point x="540.086" y="247.615" type="curve" smooth="yes"/>
      <point x="541.092" y="256.792"/>
      <point x="542.086" y="265.933"/>
      <point x="542.305" y="268.027" type="curve" smooth="yes"/>
      <point x="542.702" y="271.821" type="line"/>
      <point x="562.608" y="271.821" type="line"/>
      <point x="582.515" y="271.821" type="line"/>
      <point x="582.081" y="268.389" type="line" smooth="yes"/>
      <point x="581.843" y="266.501"/>
      <point x="575.797" y="206.937"/>
      <point x="568.642" y="135.982" type="curve" smooth="yes"/>
      <point x="561.486" y="65.0293"/>
      <point x="555.44" y="5.46484"/>
      <point x="555.202" y="3.57617" type="curve" smooth="yes"/>
      <point x="554.769" y="0.144531" type="line"/>
      <point x="290.391" y="0.144531" type="line"/>
      <point x="26.0117" y="0.144531" type="line"/>
      <point x="26.0117" y="22.4346" type="line"/>
      <point x="26.0117" y="44.7256" type="line"/>
      <point x="55.1299" y="45.1641" type="line" smooth="yes"/>
      <point x="94.5811" y="45.7578"/>
      <point x="110.023" y="47.1338"/>
      <point x="117.413" y="50.7139" type="curve" smooth="yes"/>
      <point x="121.026" y="52.4639"/>
      <point x="125.224" y="56.3623"/>
      <point x="126.992" y="59.6094" type="curve" smooth="yes"/>
      <point x="128.186" y="61.8018"/>
      <point x="128.251" y="76.5176"/>
      <point x="128.251" y="341.546" type="curve" smooth="yes"/>
      <point x="128.251" y="606.575"/>
      <point x="128.186" y="621.291"/>
      <point x="126.992" y="623.482" type="curve" smooth="yes"/>
      <point x="125.224" y="626.73"/>
      <point x="121.026" y="630.628"/>
      <point x="117.413" y="632.378" type="curve" smooth="yes"/>
      <point x="110.023" y="635.958"/>
      <point x="94.5811" y="637.335"/>
      <point x="55.1299" y="637.929" type="curve" smooth="yes"/>
      <point x="26.0117" y="638.367" type="line"/>
    </contour>
  </outline>
</glyph>
<glyph name="M" format="2">
  <advance width="917"/>
  <unicode hex="004D"/>
  <outline>
    <contour>
      <point x="36" y="667" type="line"/>
      <point x="36" y="683" type="line"/>
      <point x="130" y="683" type="line" smooth="yes"/>
      <point x="194" y="683"/>
      <point x="225" y="683"/>
      <point x="227" y="682" type="curve" smooth="yes"/>
      <point x="234" y="679"/>
      <point x="228" y="693"/>
      <point x="347" y="389" type="curve" smooth="yes"/>
      <point x="408" y="232"/>
      <point x="458" y="103"/>
      <point x="458" y="103" type="curve"/>
      <point x="458" y="103"/>
      <point x="508" y="232"/>
      <point x="569" y="389" type="curve" smooth="yes"/>
      <point x="688" y="693"/>
      <point x="682" y="679"/>
      <point x="689" y="682" type="curve" smooth="yes"/>
      <point x="691" y="683"/>
      <point x="722" y="683"/>
      <point x="786" y="683" type="curve" smooth="yes"/>
      <point x="880" y="683" type="line"/>
      <point x="880" y="667" type="line"/>
      <point x="880" y="651" type="line"/>
      <point x="862" y="651" type="line" smooth="yes"/>
      <point x="843" y="651"/>
      <point x="816" y="650"/>
      <point x="807" y="648" type="curve" smooth="yes"/>
      <point x="790" y="645"/>
      <point x="783" y="640"/>
      <point x="779" y="628" type="curve" smooth="yes"/>
      <point x="777" y="622" type="line"/>
      <point x="777" y="341" type="line"/>
      <point x="777" y="61" type="line"/>
      <point x="779" y="55" type="line" smooth="yes"/>
      <point x="783" y="43"/>
      <point x="790" y="38"/>
      <point x="807" y="35" type="curve" smooth="yes"/>
      <point x="816" y="33"/>
      <point x="843" y="32"/>
      <point x="862" y="32" type="curve" smooth="yes"/>
      <point x="880" y="32" type="line"/>
      <point x="880" y="16" type="line"/>
      <point x="880" y="0" type="line"/>
      <point x="870" y="0" type="line" smooth="yes"/>
      <point x="864" y="1"/>
      <point x="832" y="1"/>
      <point x="798" y="2" type="curve" smooth="yes"/>
      <point x="750" y="3"/>
      <point x="722" y="3"/>
      <point x="674" y="2" type="curve" smooth="yes"/>
      <point x="640" y="1"/>
      <point x="608" y="1"/>
      <point x="602" y="0" type="curve" smooth="yes"/>
      <point x="592" y="0" type="line"/>
      <point x="592" y="16" type="line"/>
      <point x="592" y="32" type="line"/>
      <point x="610" y="32" type="line" smooth="yes"/>
      <point x="629" y="32"/>
      <point x="656" y="33"/>
      <point x="666" y="35" type="curve" smooth="yes"/>
      <point x="682" y="38"/>
      <point x="689" y="43"/>
      <point x="693" y="55" type="curve" smooth="yes"/>
      <point x="695" y="62" type="line"/>
      <point x="695" y="357" type="line"/>
      <point x="695" y="652" type="line"/>
      <point x="570" y="330" type="line" smooth="yes"/>
      <point x="452" y="26"/>
      <point x="444" y="8"/>
      <point x="441" y="4" type="curve" smooth="yes"/>
      <point x="434" y="-2"/>
      <point x="425" y="-1"/>
      <point x="419" y="5" type="curve" smooth="yes"/>
      <point x="415" y="8"/>
      <point x="408" y="26"/>
      <point x="292" y="326" type="curve" smooth="yes"/>
      <point x="224" y="501"/>
      <point x="169" y="644"/>
      <point x="168" y="644" type="curve"/>
      <point x="168" y="363" type="line"/>
      <point x="169" y="83" type="line"/>
      <point x="171" y="77" type="line" smooth="yes"/>
      <point x="181" y="50"/>
      <point x="203" y="37"/>
      <point x="244" y="33" type="curve" smooth="yes"/>
      <point x="250" y="32"/>
      <point x="258" y="32"/>
      <point x="263" y="32" type="curve" smooth="yes"/>
      <point x="271" y="32" type="line"/>
      <point x="271" y="16" type="line"/>
      <point x="271" y="0" type="line"/>
      <point x="263" y="0" type="line" smooth="yes"/>
      <point x="259" y="1"/>
      <point x="232" y="1"/>
      <point x="204" y="2" type="curve" smooth="yes"/>
      <point x="164" y="3"/>
      <point x="142" y="3"/>
      <point x="102" y="2" type="curve" smooth="yes"/>
      <point x="74" y="1"/>
      <point x="48" y="1"/>
      <point x="44" y="0" type="curve" smooth="yes"/>
      <point x="36" y="0" type="line"/>
      <point x="36" y="16" type="line"/>
      <point x="36" y="32" type="line"/>
      <point x="44" y="32" type="line" smooth="yes"/>
      <point x="49" y="32"/>
      <point x="57" y="32"/>
      <point x="63" y="33" type="curve" smooth="yes"/>
      <point x="104" y="37"/>
      <point x="126" y="50"/>
      <point x="136" y="77" type="curve" smooth="yes"/>
      <point x="139" y="83" type="line"/>
      <point x="139" y="352" type="line"/>
      <point x="139" y="622" type="line"/>
      <point x="137" y="628" type="line" smooth="yes"/>
      <point x="133" y="640"/>
      <point x="126" y="645"/>
      <point x="110" y="648" type="curve" smooth="yes"/>
      <point x="100" y="650"/>
      <point x="73" y="651"/>
      <point x="54" y="651" type="curve" smooth="yes"/>
      <point x="36" y="651" type="line"/>
    </contour>
  </outline>
</glyph>
<glyph name="N" format="2">
  <advance width="750"/>
  <unicode hex="004E"/>
  <outline>
    <contour>
      <point x="32" y="0" type="line"/>
      <point x="32" y="32" type="line"/>
      <point x="47" y="32" type="line"/>
      <point x="114" y="35"/>
      <point x="125" y="60"/>
      <point x="135" y="83" type="curve"/>
      <point x="135" y="645" type="line"/>
      <point x="87" y="650"/>
      <point x="87" y="650"/>
      <point x="64" y="651" type="curve" smooth="yes"/>
      <point x="32" y="651" type="line"/>
      <point x="32" y="683" type="line"/>
      <point x="222" y="683" type="line"/>
      <point x="229" y="676"/>
      <point x="581" y="158"/>
      <point x="585" y="153" type="curve"/>
      <point x="585" y="601" type="line"/>
      <point x="572" y="627"/>
      <point x="561" y="648"/>
      <point x="497" y="651" type="curve"/>
      <point x="482" y="651" type="line"/>
      <point x="482" y="683" type="line"/>
      <point x="490" y="683" type="line"/>
      <point x="502" y="680"/>
      <point x="697" y="680"/>
      <point x="709" y="683" type="curve"/>
      <point x="717" y="683" type="line"/>
      <point x="717" y="651" type="line"/>
      <point x="702" y="651" type="line"/>
      <point x="634" y="648"/>
      <point x="622" y="621"/>
      <point x="615" y="601" type="curve"/>
      <point x="614" y="303" type="line"/>
      <point x="614" y="6" type="line"/>
      <point x="606" y="0"/>
      <point x="606" y="0"/>
      <point x="600" y="0" type="curve" smooth="yes"/>
      <point x="593" y="0"/>
      <point x="592" y="0"/>
      <point x="590" y="2" type="curve" smooth="yes"/>
      <point x="586" y="4"/>
      <point x="171" y="617"/>
      <point x="166" y="622" type="curve" smooth="yes"/>
      <point x="164" y="624"/>
      <point x="164" y="622"/>
      <point x="164" y="353" type="curve" smooth="yes"/>
      <point x="165" y="83" type="line"/>
      <point x="171" y="63"/>
      <point x="184" y="35"/>
      <point x="252" y="32" type="curve"/>
      <point x="267" y="32" type="line"/>
      <point x="267" y="0" type="line"/>
      <point x="259" y="0" type="line"/>
      <point x="232" y="5"/>
      <point x="42" y="1"/>
      <point x="40" y="0" type="curve" smooth="yes"/>
    </contour>
  </outline>
</glyph>
<glyph name="O" format="2">
  <advance width="778"/>
  <unicode hex="004F"/>
  <outline>
    <contour>
      <point x="56" y="340" type="curve" smooth="yes"/>
      <point x="56" y="642"/>
      <point x="367" y="809"/>
      <point x="587" y="633" type="curve" smooth="yes"/>
      <point x="601" y="622"/>
      <point x="626" y="596"/>
      <point x="639" y="581" type="curve" smooth="yes"/>
      <point x="744" y="450"/>
      <point x="756" y="240"/>
      <point x="636" y="97" type="curve" smooth="yes"/>
      <point x="433" y="-143"/>
      <point x="56" y="3"/>
    </contour>
    <contour>
      <point x="161" y="405" type="curve" smooth="yes"/>
      <point x="156" y="357"/>
      <point x="145" y="152"/>
      <point x="271" y="49" type="curve" smooth="yes"/>
      <point x="373" y="-33"/>
      <point x="486" y="10"/>
      <point x="547" y="91" type="curve" smooth="yes"/>
      <point x="586" y="143"/>
      <point x="608" y="208"/>
      <point x="616" y="294" type="curve" smooth="yes"/>
      <point x="620" y="341"/>
      <point x="624" y="455"/>
      <point x="580" y="547" type="curve"/>
      <point x="485" y="725"/>
      <point x="305" y="712"/>
      <point x="214" y="577" type="curve" smooth="yes"/>
      <point x="202" y="558"/>
      <point x="171" y="510"/>
    </contour>
  </outline>
</glyph>
<glyph name="P" format="2">
  <advance width="681"/>
  <unicode hex="0050"/>
  <outline>
    <contour>
      <point x="34" y="667" type="line"/>
      <point x="34" y="683" type="line"/>
      <point x="225" y="683" type="line" smooth="yes"/>
      <point x="433" y="682"/>
      <point x="421" y="683"/>
      <point x="449" y="677" type="curve" smooth="yes"/>
      <point x="535" y="659"/>
      <point x="603" y="603"/>
      <point x="620" y="534" type="curve" smooth="yes"/>
      <point x="631" y="491"/>
      <point x="624" y="451"/>
      <point x="599" y="414" type="curve" smooth="yes"/>
      <point x="565" y="363"/>
      <point x="507" y="330"/>
      <point x="435" y="318" type="curve" smooth="yes"/>
      <point x="422" y="316"/>
      <point x="418" y="316"/>
      <point x="324" y="315" type="curve" smooth="yes"/>
      <point x="227" y="315" type="line"/>
      <point x="227" y="188" type="line" smooth="yes"/>
      <point x="227" y="63"/>
      <point x="227" y="61"/>
      <point x="229" y="55" type="curve" smooth="yes"/>
      <point x="233" y="43"/>
      <point x="240" y="38"/>
      <point x="257" y="35" type="curve" smooth="yes"/>
      <point x="266" y="33"/>
      <point x="293" y="32"/>
      <point x="312" y="32" type="curve" smooth="yes"/>
      <point x="330" y="32" type="line"/>
      <point x="330" y="16" type="line"/>
      <point x="330" y="0" type="line"/>
      <point x="320" y="0" type="line" smooth="yes"/>
      <point x="314" y="1"/>
      <point x="281" y="1"/>
      <point x="246" y="2" type="curve" smooth="yes"/>
      <point x="196" y="3"/>
      <point x="168" y="3"/>
      <point x="118" y="2" type="curve" smooth="yes"/>
      <point x="83" y="1"/>
      <point x="50" y="1"/>
      <point x="44" y="0" type="curve" smooth="yes"/>
      <point x="34" y="0" type="line"/>
      <point x="34" y="16" type="line"/>
      <point x="34" y="32" type="line"/>
      <point x="52" y="32" type="line" smooth="yes"/>
      <point x="71" y="32"/>
      <point x="98" y="33"/>
      <point x="108" y="35" type="curve" smooth="yes"/>
      <point x="124" y="38"/>
      <point x="131" y="43"/>
      <point x="135" y="55" type="curve" smooth="yes"/>
      <point x="137" y="61" type="line"/>
      <point x="137" y="341" type="line"/>
      <point x="137" y="622" type="line"/>
      <point x="135" y="628" type="line" smooth="yes"/>
      <point x="131" y="640"/>
      <point x="124" y="645"/>
      <point x="108" y="648" type="curve" smooth="yes"/>
      <point x="98" y="650"/>
      <point x="71" y="651"/>
      <point x="52" y="651" type="curve" smooth="yes"/>
      <point x="34" y="651" type="line"/>
    </contour>
    <contour>
      <point x="401" y="649" type="curve" smooth="yes"/>
      <point x="392" y="650"/>
      <point x="381" y="650"/>
      <point x="323" y="651" type="curve" smooth="yes"/>
      <point x="285" y="651"/>
      <point x="251" y="650"/>
      <point x="248" y="650" type="curve" smooth="yes"/>
      <point x="237" y="649"/>
      <point x="230" y="645"/>
      <point x="227" y="639" type="curve" smooth="yes"/>
      <point x="225" y="634" type="line"/>
      <point x="224" y="488" type="line"/>
      <point x="224" y="342" type="line"/>
      <point x="307" y="342" type="line" smooth="yes"/>
      <point x="379" y="343"/>
      <point x="391" y="343"/>
      <point x="400" y="344" type="curve" smooth="yes"/>
      <point x="431" y="349"/>
      <point x="456" y="359"/>
      <point x="475" y="373" type="curve" smooth="yes"/>
      <point x="510" y="399"/>
      <point x="522" y="435"/>
      <point x="521" y="506" type="curve" smooth="yes"/>
      <point x="520" y="519"/>
      <point x="519" y="534"/>
      <point x="519" y="541" type="curve" smooth="yes"/>
      <point x="514" y="573"/>
      <point x="504" y="594"/>
      <point x="486" y="611" type="curve" smooth="yes"/>
      <point x="466" y="630"/>
      <point x="438" y="643"/>
    </contour>
  </outline>
</glyph>
<glyph name="Q" format="2">
  <advance width="778"/>
  <unicode hex="0051"/>
  <outline>
    <contour>
      <point x="362" y="704" type="curve" smooth="yes"/>
      <point x="441" y="711"/>
      <point x="521" y="686"/>
      <point x="587" y="633" type="curve" smooth="yes"/>
      <point x="601" y="622"/>
      <point x="626" y="596"/>
      <point x="639" y="581" type="curve" smooth="yes"/>
      <point x="684" y="525"/>
      <point x="710" y="459"/>
      <point x="720" y="383" type="curve" smooth="yes"/>
      <point x="721" y="372"/>
      <point x="721" y="361"/>
      <point x="721" y="340" type="curve" smooth="yes"/>
      <point x="721" y="309"/>
      <point x="721" y="298"/>
      <point x="716" y="273" type="curve" smooth="yes"/>
      <point x="697" y="160"/>
      <point x="628" y="63"/>
      <point x="531" y="13" type="curve" smooth="yes"/>
      <point x="525" y="10"/>
      <point x="520" y="7"/>
      <point x="519" y="7" type="curve" smooth="yes"/>
      <point x="518" y="7"/>
      <point x="520" y="1"/>
      <point x="524" y="-8" type="curve" smooth="yes"/>
      <point x="547" y="-61"/>
      <point x="569" y="-84"/>
      <point x="600" y="-89" type="curve" smooth="yes"/>
      <point x="610" y="-91"/>
      <point x="630" y="-90"/>
      <point x="639" y="-87" type="curve" smooth="yes"/>
      <point x="657" y="-82"/>
      <point x="675" y="-70"/>
      <point x="686" y="-56" type="curve" smooth="yes"/>
      <point x="698" y="-42"/>
      <point x="704" y="-26"/>
      <point x="706" y="-4" type="curve" smooth="yes"/>
      <point x="707" y="5"/>
      <point x="707" y="6"/>
      <point x="710" y="8" type="curve" smooth="yes"/>
      <point x="714" y="12"/>
      <point x="720" y="12"/>
      <point x="724" y="8" type="curve" smooth="yes"/>
      <point x="728" y="5" type="line"/>
      <point x="727" y="-13" type="line" smooth="yes"/>
      <point x="727" y="-75"/>
      <point x="708" y="-132"/>
      <point x="678" y="-163" type="curve" smooth="yes"/>
      <point x="659" y="-183"/>
      <point x="639" y="-192"/>
      <point x="613" y="-194" type="curve" smooth="yes"/>
      <point x="572" y="-196"/>
      <point x="541" y="-179"/>
      <point x="521" y="-145" type="curve" smooth="yes"/>
      <point x="507" y="-121"/>
      <point x="499" y="-92"/>
      <point x="488" y="-34" type="curve" smooth="yes"/>
      <point x="486" y="-19"/>
      <point x="484" y="-7"/>
      <point x="484" y="-7" type="curve"/>
      <point x="484" y="-7"/>
      <point x="479" y="-8"/>
      <point x="473" y="-10" type="curve" smooth="yes"/>
      <point x="429" y="-22"/>
      <point x="383" y="-25"/>
      <point x="339" y="-18" type="curve" smooth="yes"/>
      <point x="198" y="5"/>
      <point x="86" y="122"/>
      <point x="61" y="273" type="curve" smooth="yes"/>
      <point x="56" y="298"/>
      <point x="56" y="309"/>
      <point x="56" y="340" type="curve" smooth="yes"/>
      <point x="56" y="371"/>
      <point x="57" y="385"/>
      <point x="62" y="411" type="curve" smooth="yes"/>
      <point x="69" y="454"/>
      <point x="84" y="496"/>
      <point x="105" y="532" type="curve" smooth="yes"/>
      <point x="113" y="546"/>
      <point x="128" y="568"/>
      <point x="138" y="581" type="curve" smooth="yes"/>
      <point x="151" y="596"/>
      <point x="176" y="622"/>
      <point x="191" y="633" type="curve" smooth="yes"/>
      <point x="241" y="674"/>
      <point x="301" y="698"/>
    </contour>
    <contour>
      <point x="418" y="677" type="curve" smooth="yes"/>
      <point x="410" y="678"/>
      <point x="379" y="679"/>
      <point x="373" y="678" type="curve" smooth="yes"/>
      <point x="359" y="676"/>
      <point x="353" y="676"/>
      <point x="345" y="673" type="curve" smooth="yes"/>
      <point x="292" y="660"/>
      <point x="244" y="623"/>
      <point x="211" y="570" type="curve" smooth="yes"/>
      <point x="173" y="508"/>
      <point x="154" y="426"/>
      <point x="156" y="326" type="curve" smooth="yes"/>
      <point x="158" y="254"/>
      <point x="169" y="198"/>
      <point x="192" y="147" type="curve" smooth="yes"/>
      <point x="216" y="94"/>
      <point x="256" y="49"/>
      <point x="302" y="26" type="curve" smooth="yes"/>
      <point x="310" y="21"/>
      <point x="321" y="17"/>
      <point x="321" y="17" type="curve"/>
      <point x="321" y="18"/>
      <point x="320" y="20"/>
      <point x="319" y="22" type="curve" smooth="yes"/>
      <point x="317" y="25"/>
      <point x="315" y="30"/>
      <point x="313" y="34" type="curve" smooth="yes"/>
      <point x="302" y="64"/>
      <point x="309" y="99"/>
      <point x="331" y="123" type="curve" smooth="yes"/>
      <point x="348" y="141"/>
      <point x="369" y="149"/>
      <point x="394" y="148" type="curve" smooth="yes"/>
      <point x="409" y="147"/>
      <point x="419" y="144"/>
      <point x="432" y="138" type="curve" smooth="yes"/>
      <point x="458" y="125"/>
      <point x="478" y="101"/>
      <point x="497" y="57" type="curve" smooth="yes"/>
      <point x="500" y="50"/>
      <point x="503" y="44"/>
      <point x="503" y="43" type="curve"/>
      <point x="504" y="43"/>
      <point x="518" y="55"/>
      <point x="529" y="66" type="curve" smooth="yes"/>
      <point x="574" y="110"/>
      <point x="603" y="173"/>
      <point x="615" y="251" type="curve" smooth="yes"/>
      <point x="622" y="298"/>
      <point x="623" y="359"/>
      <point x="617" y="409" type="curve" smooth="yes"/>
      <point x="607" y="506"/>
      <point x="571" y="583"/>
      <point x="513" y="632" type="curve" smooth="yes"/>
      <point x="485" y="655"/>
      <point x="453" y="670"/>
    </contour>
    <contour>
      <point x="403" y="124" type="curve" smooth="yes"/>
      <point x="393" y="125"/>
      <point x="383" y="125"/>
      <point x="376" y="123" type="curve" smooth="yes"/>
      <point x="356" y="119"/>
      <point x="339" y="102"/>
      <point x="333" y="81" type="curve" smooth="yes"/>
      <point x="331" y="72"/>
      <point x="331" y="56"/>
      <point x="333" y="47" type="curve" smooth="yes"/>
      <point x="339" y="28"/>
      <point x="353" y="12"/>
      <point x="370" y="6" type="curve" smooth="yes"/>
      <point x="376" y="4"/>
      <point x="378" y="4"/>
      <point x="393" y="4" type="curve" smooth="yes"/>
      <point x="421" y="5"/>
      <point x="444" y="11"/>
      <point x="469" y="23" type="curve" smooth="yes"/>
      <point x="478" y="27"/>
      <point x="478" y="25"/>
      <point x="472" y="46" type="curve" smooth="yes"/>
      <point x="464" y="77"/>
      <point x="452" y="99"/>
      <point x="436" y="110" type="curve" smooth="yes"/>
      <point x="426" y="118"/>
      <point x="416" y="122"/>
    </contour>
  </outline>
</glyph>
<glyph name="R" format="2">
  <advance width="736"/>
  <unicode hex="0052"/>
  <outline>
    <contour>
      <point x="34" y="667" type="line"/>
      <point x="34" y="683" type="line"/>
      <point x="206" y="683" type="line" smooth="yes"/>
      <point x="396" y="682"/>
      <point x="386" y="683"/>
      <point x="421" y="676" type="curve" smooth="yes"/>
      <point x="532" y="654"/>
      <point x="610" y="582"/>
      <point x="610" y="502" type="curve" smooth="yes"/>
      <point x="610" y="454"/>
      <point x="579" y="408"/>
      <point x="525" y="375" type="curve" smooth="yes"/>
      <point x="503" y="362"/>
      <point x="474" y="350"/>
      <point x="448" y="343" type="curve" smooth="yes"/>
      <point x="436" y="340" type="line"/>
      <point x="444" y="337" type="line" smooth="yes"/>
      <point x="456" y="332"/>
      <point x="485" y="318"/>
      <point x="495" y="310" type="curve" smooth="yes"/>
      <point x="507" y="302"/>
      <point x="523" y="286"/>
      <point x="531" y="275" type="curve" smooth="yes"/>
      <point x="543" y="260"/>
      <point x="552" y="242"/>
      <point x="556" y="225" type="curve" smooth="yes"/>
      <point x="557" y="220"/>
      <point x="562" y="193"/>
      <point x="567" y="164" type="curve" smooth="yes"/>
      <point x="571" y="134"/>
      <point x="576" y="104"/>
      <point x="578" y="96" type="curve" smooth="yes"/>
      <point x="590" y="27"/>
      <point x="605" y="4"/>
      <point x="638" y="1" type="curve" smooth="yes"/>
      <point x="654" y="0"/>
      <point x="666" y="5"/>
      <point x="679" y="17" type="curve" smooth="yes"/>
      <point x="687" y="26"/>
      <point x="692" y="34"/>
      <point x="697" y="45" type="curve" smooth="yes"/>
      <point x="702" y="58"/>
      <point x="706" y="79"/>
      <point x="706" y="91" type="curve" smooth="yes"/>
      <point x="706" y="97"/>
      <point x="708" y="101"/>
      <point x="712" y="103" type="curve" smooth="yes"/>
      <point x="719" y="107"/>
      <point x="728" y="104"/>
      <point x="731" y="99" type="curve" smooth="yes"/>
      <point x="732" y="96"/>
      <point x="732" y="94"/>
      <point x="732" y="85" type="curve" smooth="yes"/>
      <point x="729" y="39"/>
      <point x="705" y="-2"/>
      <point x="672" y="-16" type="curve" smooth="yes"/>
      <point x="659" y="-21"/>
      <point x="650" y="-22"/>
      <point x="631" y="-22" type="curve" smooth="yes"/>
      <point x="552" y="-19"/>
      <point x="497" y="14"/>
      <point x="477" y="72" type="curve" smooth="yes"/>
      <point x="470" y="92"/>
      <point x="470" y="92"/>
      <point x="469" y="162" type="curve" smooth="yes"/>
      <point x="468" y="217"/>
      <point x="468" y="226"/>
      <point x="467" y="233" type="curve" smooth="yes"/>
      <point x="460" y="259"/>
      <point x="450" y="278"/>
      <point x="432" y="295" type="curve" smooth="yes"/>
      <point x="418" y="308"/>
      <point x="405" y="317"/>
      <point x="388" y="323" type="curve" smooth="yes"/>
      <point x="369" y="330"/>
      <point x="371" y="329"/>
      <point x="294" y="330" type="curve" smooth="yes"/>
      <point x="224" y="330" type="line"/>
      <point x="224" y="196" type="line" smooth="yes"/>
      <point x="224" y="63"/>
      <point x="224" y="61"/>
      <point x="226" y="55" type="curve" smooth="yes"/>
      <point x="230" y="43"/>
      <point x="237" y="38"/>
      <point x="254" y="35" type="curve" smooth="yes"/>
      <point x="263" y="33"/>
      <point x="290" y="32"/>
      <point x="309" y="32" type="curve" smooth="yes"/>
      <point x="327" y="32" type="line"/>
      <point x="327" y="16" type="line"/>
      <point x="327" y="0" type="line"/>
      <point x="317" y="0" type="line" smooth="yes"/>
      <point x="312" y="1"/>
      <point x="279" y="1"/>
      <point x="244" y="2" type="curve" smooth="yes"/>
      <point x="194" y="3"/>
      <point x="167" y="3"/>
      <point x="117" y="2" type="curve" smooth="yes"/>
      <point x="82" y="1"/>
      <point x="49" y="1"/>
      <point x="44" y="0" type="curve" smooth="yes"/>
      <point x="34" y="0" type="line"/>
      <point x="34" y="16" type="line"/>
      <point x="34" y="32" type="line"/>
      <point x="52" y="32" type="line" smooth="yes"/>
      <point x="71" y="32"/>
      <point x="98" y="33"/>
      <point x="108" y="35" type="curve" smooth="yes"/>
      <point x="124" y="38"/>
      <point x="131" y="43"/>
      <point x="135" y="55" type="curve" smooth="yes"/>
      <point x="137" y="61" type="line"/>
      <point x="137" y="341" type="line"/>
      <point x="137" y="622" type="line"/>
      <point x="135" y="628" type="line" smooth="yes"/>
      <point x="131" y="640"/>
      <point x="124" y="645"/>
      <point x="108" y="648" type="curve" smooth="yes"/>
      <point x="98" y="650"/>
      <point x="71" y="651"/>
      <point x="52" y="651" type="curve" smooth="yes"/>
      <point x="34" y="651" type="line"/>
    </contour>
    <contour>
      <point x="376" y="649" type="curve" smooth="yes"/>
      <point x="367" y="650"/>
      <point x="355" y="650"/>
      <point x="310" y="651" type="curve" smooth="yes"/>
      <point x="279" y="651"/>
      <point x="251" y="650"/>
      <point x="248" y="650" type="curve" smooth="yes"/>
      <point x="237" y="649"/>
      <point x="230" y="645"/>
      <point x="227" y="639" type="curve" smooth="yes"/>
      <point x="225" y="634" type="line"/>
      <point x="224" y="493" type="line"/>
      <point x="224" y="353" type="line"/>
      <point x="294" y="353" type="line" smooth="yes"/>
      <point x="352" y="354"/>
      <point x="365" y="354"/>
      <point x="375" y="355" type="curve" smooth="yes"/>
      <point x="400" y="359"/>
      <point x="421" y="365"/>
      <point x="439" y="375" type="curve" smooth="yes"/>
      <point x="479" y="395"/>
      <point x="498" y="422"/>
      <point x="504" y="470" type="curve" smooth="yes"/>
      <point x="506" y="483"/>
      <point x="506" y="525"/>
      <point x="504" y="539" type="curve" smooth="yes"/>
      <point x="499" y="570"/>
      <point x="489" y="592"/>
      <point x="471" y="608" type="curve" smooth="yes"/>
      <point x="449" y="629"/>
      <point x="419" y="642"/>
    </contour>
  </outline>
</glyph>
<glyph name="S" format="2">
  <advance width="556"/>
  <unicode hex="0053"/>
  <outline>
    <contour>
      <point x="55" y="-16" type="curve"/>
      <point x="55" y="101" type="line" smooth="yes"/>
      <point x="55" y="190"/>
      <point x="55" y="220"/>
      <point x="56" y="222" type="curve" smooth="yes"/>
      <point x="58" y="225"/>
      <point x="62" y="227"/>
      <point x="69" y="227" type="curve" smooth="yes"/>
      <point x="81" y="227"/>
      <point x="81" y="223"/>
      <point x="81" y="207" type="curve" smooth="yes"/>
      <point x="82" y="174"/>
      <point x="99" y="11"/>
      <point x="300" y="11" type="curve" smooth="yes"/>
      <point x="319" y="11"/>
      <point x="323" y="11"/>
      <point x="331" y="13" type="curve" smooth="yes"/>
      <point x="463" y="43"/>
      <point x="469" y="244"/>
      <point x="346" y="287" type="curve" smooth="yes"/>
      <point x="328" y="291"/>
      <point x="189" y="327"/>
      <point x="187" y="328" type="curve" smooth="yes"/>
      <point x="59" y="370"/>
      <point x="10" y="533"/>
      <point x="105" y="641" type="curve" smooth="yes"/>
      <point x="184" y="728"/>
      <point x="328" y="723"/>
      <point x="401" y="644" type="curve" smooth="yes"/>
      <point x="406" y="640"/>
      <point x="410" y="636"/>
      <point x="410" y="636" type="curve"/>
      <point x="412" y="636"/>
      <point x="449" y="702"/>
      <point x="454" y="704" type="curve" smooth="yes"/>
      <point x="456" y="704"/>
      <point x="459" y="705"/>
      <point x="462" y="705" type="curve" smooth="yes"/>
      <point x="466" y="705"/>
      <point x="467" y="704"/>
      <point x="472" y="699" type="curve"/>
      <point x="472" y="462" type="line"/>
      <point x="466" y="456"/>
      <point x="466" y="456"/>
      <point x="459" y="456" type="curve" smooth="yes"/>
      <point x="449" y="456"/>
      <point x="447" y="458"/>
      <point x="445" y="473" type="curve" smooth="yes"/>
      <point x="440" y="521"/>
      <point x="411" y="676"/>
      <point x="252" y="676" type="curve" smooth="yes"/>
      <point x="146" y="676"/>
      <point x="86" y="560"/>
      <point x="142" y="475" type="curve" smooth="yes"/>
      <point x="157" y="452"/>
      <point x="180" y="434"/>
      <point x="205" y="425" type="curve" smooth="yes"/>
      <point x="218" y="419"/>
      <point x="347" y="392"/>
      <point x="384" y="376" type="curve" smooth="yes"/>
      <point x="579" y="285"/>
      <point x="519" y="-52"/>
      <point x="264" y="-20" type="curve" smooth="yes"/>
      <point x="241" y="-17"/>
      <point x="172" y="-7"/>
      <point x="117" y="48" type="curve"/>
      <point x="96" y="14" type="line" smooth="yes"/>
      <point x="82" y="-9"/>
      <point x="75" y="-20"/>
      <point x="73" y="-21" type="curve" smooth="yes"/>
      <point x="71" y="-21"/>
      <point x="68" y="-22"/>
      <point x="65" y="-22" type="curve" smooth="yes"/>
      <point x="61" y="-22"/>
      <point x="60" y="-21"/>
    </contour>
  </outline>
</glyph>
